<?xml version="1.0" encoding="UTF-8" standalone="no"?>
<!-- Created with Inkscape (http://www.inkscape.org/) -->

<svg
   xmlns:dc="http://purl.org/dc/elements/1.1/"
   xmlns:cc="http://creativecommons.org/ns#"
   xmlns:rdf="http://www.w3.org/1999/02/22-rdf-syntax-ns#"
   xmlns:svg="http://www.w3.org/2000/svg"
   xmlns="http://www.w3.org/2000/svg"
   xmlns:sodipodi="http://sodipodi.sourceforge.net/DTD/sodipodi-0.dtd"
   xmlns:inkscape="http://www.inkscape.org/namespaces/inkscape"
   width="381.03125"
   height="268.90698"
   id="svg6189"
   version="1.1"
   inkscape:version="0.48.4 r9939"
   sodipodi:docname="DTGLax.svg">
  <defs
     id="defs6191" />
  <sodipodi:namedview
     id="base"
     pagecolor="#ffffff"
     bordercolor="#666666"
     borderopacity="1.0"
     inkscape:pageopacity="0.0"
     inkscape:pageshadow="2"
     inkscape:zoom="1.65"
     inkscape:cx="222.91944"
     inkscape:cy="95.451409"
     inkscape:document-units="cm"
     inkscape:current-layer="layer1"
     showgrid="false"
     units="cm"
     inkscape:showpageshadow="false"
     inkscape:window-width="1231"
     inkscape:window-height="776"
     inkscape:window-x="49"
     inkscape:window-y="24"
     inkscape:window-maximized="1"
     fit-margin-top="0"
     fit-margin-left="0"
     fit-margin-bottom="0"
     fit-margin-right="0" />
  <metadata
     id="metadata6194">
    <rdf:RDF>
      <cc:Work
         rdf:about="">
        <dc:format>image/svg+xml</dc:format>
        <dc:type
           rdf:resource="http://purl.org/dc/dcmitype/StillImage" />
        <dc:title></dc:title>
      </cc:Work>
    </rdf:RDF>
  </metadata>
  <g
     inkscape:label="Layer 1"
     inkscape:groupmode="layer"
     id="layer1"
     transform="translate(593.1875,134.1875)">
    <g
       id="g3877">
      <path
         id="path4729"
         d="m -402.38296,-129.27369 -0.375,0.375 -29.0625,29.406298 c -11.4129,11.5497 -18.6674,19.0601 -23.0938,24.0624 -2.2131,2.5012 -3.7238,4.3784 -4.6874,5.8126 -0.9637,1.4341 -1.4063,2.4457 -1.4063,3.3124 0,2.8224 1.0145,8.619 2.2813,14.3126 1.2667,5.6935 2.7425,11.1539 3.875,13.3437 0.5151,0.9962 0.8939,1.9054 1.0937,2.5313 0.096,0.2994 0.1475,0.5453 0.1563,0.6562 -0.084,0.054 -0.2006,0.046 -0.25,0.125 -0.1264,0.2021 -0.1342,0.381 -0.125,0.5625 0.018,0.3629 0.1542,0.7426 0.3437,1.2187 0.379,0.9524 1.0409,2.247301 1.9063,3.687601 1.7307,2.8804 4.2342,6.4023 6.5937,9.0937 2.6178,2.986 6.5302,7.8939 8.6563,10.8749998 1.0818,1.517 2.1752,2.8958 3.0937,3.9063 0.4593,0.5052 0.8661,0.9184 1.2187,1.2187 0.1764,0.1501 0.3417,0.2798 0.5,0.375 0.1584,0.095 0.315,0.1875 0.5626,0.1875 0.2673,0 0.4307,0.054 0.5,0.094 0.069,0.039 0.047,0.045 0.062,0.125 0.031,0.16 -0.081,0.68 -0.5312,1.4374 -0.9011,1.5149 -2.9224,3.8925 -6.0312,6.9688 -3.7138,3.6748 -7.7316,8.2588002 -9.0313,10.3750002 -1.866,3.0382 -4.1627,6.0063 -6.2187,8.2188 -0.7755,0.8344 -1.4595,1.4273 -2.125,2 0.3974,-0.5212 0.8793,-1.1497 1.5,-2 1.3747,-1.8836 3.2188,-4.4897 5.2187,-7.3438 3.9794,-5.6790002 9.1952,-11.9471002 11.375,-13.7812002 l 4.1875,-3.5313 0.375,-0.3125 -0.3125,-0.375 -6.375,-8.3124998 c -3.5148,-4.5681 -7.3614,-9.2674 -8.6875,-10.5937 -2.3821,-2.3829 -5.0826,-7.5324 -7.5938,-14.281301 -2.5111,-6.7489 -4.8637,-15.1148 -6.5937,-23.9687 l -1.4687,-7.625 -0.1876,-0.9376 -0.6874,0.6876 -18.0938,18.7187 c -4.9825,5.154 -9.5719,9.9839 -12.9375,13.5937 -1.6828,1.805 -3.0544,3.3109 -4.0313,4.406301 -0.4884,0.5477 -0.8785,0.9782 -1.1562,1.3125 -0.1388,0.1672 -0.258,0.3223 -0.3438,0.4375 -0.086,0.1152 -0.1223,0.1405 -0.1874,0.3125 -0.096,0.2544 -0.082,0.4559 -0.063,0.7188 0.02,0.2628 0.057,0.5714 0.125,0.9374 0.137,0.7321 0.3578,1.6726 0.6563,2.7813 0.5971,2.2173 1.5006,5.1078 2.5,8.125 1.9987,6.0344998 4.4575,12.6468998 6.0937,15.90629984 2.1226,4.22809996 4.913,8.03239996 7.9063,10.93740016 2.9933,2.9051 6.1689,4.9259 9.0625,5.4688 5.6176,1.0538 11.4149,3.8561 15.125,7.3125 0.746,0.695 1.4476,1.3498 2,1.8125 0.2762,0.2313 0.5313,0.3931 0.7188,0.5312 0.094,0.069 0.1716,0.1403 0.25,0.1876 0.01,0 0.023,0 0.031,0 -0.2799,0.1355 -0.7034,0.4374 -0.8125,0.4374 -0.2614,0 -1.0765,-0.2994 -1.9375,-0.875 -0.861,-0.5755 -1.8291,-1.4007 -2.6562,-2.2812 -0.9641,-1.0261 -2.7571,-2.1703 -5,-3.3125 -2.243,-1.1422 -4.9175,-2.2519 -7.5313,-3.0937 -6.2581,-2.0156 -10.4551,-4.5521 -14,-9.3438002 -3.5449,-4.7917 -6.4319,-11.878 -9.8125,-22.9374998 l -3.7812,-12.4063 -0.25,-0.8124 -0.5938,0.625 -6.4375,6.75 c -1.8279,1.9161 -3.2329,3.3666 -4.1875,4.6874 -0.9546,1.3209 -1.4754,2.5618 -1.5,4 -0.049,2.8764998 1.7473,6.3329998 5.2188,13.37499984 5.7001,11.56310016 13.5786,22.28010016 25.1562,34.25000016 7.0151,7.253 10.8039,11.049 14.7188,12.9688 3.9148,1.9198 7.8216,1.8566 14.9374,1.5312 3.2937,-0.1506 6.7082,-0.4354 9.5626,-0.8124 2.8543,-0.3771 5.1284,-0.8115 6.2812,-1.2813 l 3.7188,-1.5313 0.5312,-0.2187 -0.2812,-0.4687 -3.875,-6.9688 c -3.621,-6.4499 -5.2775,-10.5257 -4.875,-14.125 0.4018,-3.5943 2.8784,-6.9074 7.75,-11.7812 l 0,-0.031 c 2.9781,-2.9782002 4.5082,-4.4511002 6.0937,-5.1250002 1.5855,-0.6739 3.3607,-0.6109 6.9063,-0.4063 2.0267,0.117 3.9672,0.069 5.4687,-0.094 0.7507,-0.081 1.3969,-0.1977 1.9063,-0.3437 0.5093,-0.1461 0.8952,-0.2651 1.1562,-0.6876 0.9172,-1.484 1.1595,-4.0131 1.0312,-7.2812 -0.1282,-3.2681 -0.6719,-7.2527 -1.5312,-11.4999998 -1.7185,-8.4946 -4.7085,-18.0335 -8.2188,-24.875001 -3.3209,-6.4726 -6.3291,-15.2485 -7.2187,-21.0312 -0.2838,-1.8451 0.1598,-5.8867 1,-10.0626 0.8402,-4.1758 2.0623,-8.5681 3.3125,-11.3124 3.6106,-7.9256 9.8225,-13.8942 19.8438,-19.0626 9.0524,-4.668698 16.1048,-5.399898 21.7812,-2.406198 0.9177,0.484 2.4477,1.6315 4.25,3.218798 1.8023,1.5872 3.921,3.6056 6.0625,5.7812 4.283,4.3511 8.7588,9.3994 11.5,13.1562 1.0362,1.4201 2.1275,2.596 3.0937,3.375 0.4832,0.3896 0.9152,0.6706 1.3438,0.8438 0.3878,0.1567 0.8112,0.1719 1.1875,0 -0.076,0.2279 -0.095,0.42 -0.062,0.6562 0.042,0.3044 0.1238,0.6692 0.25,1.0938 0.2524,0.8491 0.6443,1.9768 1.1875,3.2812 1.0864,2.609 2.7184,6.0002 4.5937,9.5626 6.898,13.1026 8.1286,18.2263 9.625,39.500001 0.2563,3.6427 0.7843,10.9223 1.1563,16.1561998 0.7347,10.3351 2.1006,13.9387 7.375,19.5938002 2.0347,2.1814 4.4879,3.4345 6.875,3.6874 2.3871,0.253 4.6937,-0.5211 6.3437,-2.375 0.5953,-0.6687 1.2525,-1.9533 1.9688,-3.5937 0.7163,-1.6404 1.4691,-3.5975002 2.125,-5.5000002 0.6559,-1.9025 1.2082,-3.746 1.5312,-5.125 0.1616,-0.68949996 0.2562,-1.27309996 0.2813,-1.71869996 0.013,-0.2229 0.027,-0.3893 -0.031,-0.5938 -0.029,-0.1022 -0.08,-0.233 -0.1874,-0.34380004 -0.015,-0.015 -0.045,-0.017 -0.063,-0.031 0.01,-0.1299 0.059,-0.3102 0.125,-0.5938 0.1466,-0.6245 0.4309,-1.5464 0.8126,-2.5312 0.4524,-1.1669 0.8343,-3.7535 1.1874,-7.2187998 0.3532,-3.4652 0.6357,-7.722 0.7813,-11.9687 l 0.5313,-15.406301 0,-0.2187 -0.1563,-0.1563 -24.8125,-24.125 c -13.6506,-13.2729 -34.2636,-33.4751 -45.7812,-44.874998 l -20.9376,-20.7187 -0.3437,-0.375 z"
         style="font-size:medium;font-style:normal;font-variant:normal;font-weight:normal;font-stretch:normal;text-indent:0;text-align:start;text-decoration:none;line-height:normal;letter-spacing:normal;word-spacing:normal;text-transform:none;direction:ltr;block-progression:tb;writing-mode:lr-tb;text-anchor:start;baseline-shift:baseline;color:#000000;fill:none;stroke:#000000;stroke-width:1;stroke-opacity:1;marker:none;visibility:visible;display:inline;overflow:visible;enable-background:accumulate;font-family:Sans;-inkscape-font-specification:Sans"
         inkscape:connector-curvature="0" />
      <path
         style="font-size:medium;font-style:normal;font-variant:normal;font-weight:normal;font-stretch:normal;text-indent:0;text-align:start;text-decoration:none;line-height:normal;letter-spacing:normal;word-spacing:normal;text-transform:none;direction:ltr;block-progression:tb;writing-mode:lr-tb;text-anchor:start;baseline-shift:baseline;color:#000000;fill:#ffffff;fill-opacity:1;stroke:#7d7d7d;stroke-width:3;stroke-miterlimit:4;stroke-opacity:1;stroke-dasharray:none;marker:none;visibility:visible;display:inline;overflow:visible;enable-background:accumulate;font-family:Sans;-inkscape-font-specification:Sans"
         d="m -405.66111,-132.06891 c -61.39532,62.693789 -123.48607,124.7007637 -185.37381,186.907244 44.32058,40.99242 101.04303,70.079146 161.3149,77.226756 32.10326,2.45195 64.90219,1.61881 95.7038,-8.68638 44.24627,-13.30943 85.1922,-37.139086 119.70028,-67.574626 -22.89921,-23.91641 -47.60034,-46.4348603 -70.99585,-70.00827 -40.17161,-39.22964 -79.74652,-79.079755 -120.34932,-117.864724 z"
         id="path5037-7"
         inkscape:connector-curvature="0" />
      <path
         sodipodi:nodetypes="cccczccccccccccc"
         inkscape:connector-curvature="0"
         id="path4719"
         d="m -406.24379,-131.05375 c 30.1528,29.93391 67.53162,65.990603 98.02903,95.573056 -0.65056,12.68202 0.99223,12.084401 -2.32897,24.375476 -1.24858,6.2046158 -0.53447,8.75895 -8.32402,27.254094 4.49466,8.589723 19.33289,19.889169 19.98904,26.246918 0.65616,6.357749 4.51186,52.634642 -51.74688,14.839791 -12.21541,-7.511628 -48.28144,0.127831 -11.47038,23.655517 16.55821,10.842997 31.78971,4.861145 30.09069,22.544018 -13.81389,35.35152 -40.32361,27.82772 -54.91388,29.29221 -35.46628,-4.28579 -46.30246,-24.79582 -50.0691,-43.951806 -5.26242,-25.956428 2.29062,-23.874821 2.33268,-42.369135 -4.79658,-0.575736 -13.10777,3.695076 -21.09703,2.914276 -9.09673,1.488871 -15.84641,1.087132 -21.68701,-6.457522 -14.88869,-14.413226 -34.4323,-39.3772593 -41.6271,-59.030945 32.53902,-33.989035 37.88573,-38.470778 56.17266,-56.151791 19.22371,-19.885949 38.98387,-41.017317 56.65027,-58.734157 z"
         style="font-size:medium;font-style:normal;font-variant:normal;font-weight:normal;font-stretch:normal;text-indent:0;text-align:start;text-decoration:none;line-height:normal;letter-spacing:normal;word-spacing:normal;text-transform:none;direction:ltr;block-progression:tb;writing-mode:lr-tb;text-anchor:start;baseline-shift:baseline;color:#000000;fill:#7d7d7d;fill-opacity:1;stroke:none;stroke-width:1;marker:none;visibility:visible;display:inline;overflow:visible;enable-background:accumulate;font-family:Sans;-inkscape-font-specification:Sans" />
      <path
         sodipodi:nodetypes="cccccccc"
         inkscape:connector-curvature="0"
         id="path4671"
         d="m -467.85239,-68.568166 c 2.82432,14.50792 10.02274,31.969535 17.55647,44.875893 4.95602,5.728323 17.80954,23.65497605 17.90987,33.3246499 -12.73457,13.8676141 -17.22307,20.1292171 -34.64537,13.0775021 -16.49083,-6.7421 -23.79888,-18.1977348 -29.22088,-31.0484914 -2.09584,-5.6626086 -5.9344,-15.9205556 -7.14849,-21.8437276 3.6476,-5.045544 8.67191,-8.905183 12.82864,-13.526293 10.56364,-10.642396 14.28047,-17.765764 22.71976,-24.859533 z"
         style="font-size:medium;font-style:normal;font-variant:normal;font-weight:normal;font-stretch:normal;text-indent:0;text-align:start;text-decoration:none;line-height:normal;letter-spacing:normal;word-spacing:normal;text-transform:none;direction:ltr;block-progression:tb;writing-mode:lr-tb;text-anchor:start;baseline-shift:baseline;color:#000000;fill:#ffff00;fill-opacity:1;stroke:none;stroke-width:1;marker:none;visibility:visible;display:inline;overflow:visible;enable-background:accumulate;font-family:Sans;-inkscape-font-specification:Sans" />
      <path
         sodipodi:nodetypes="cccccccccccc"
         inkscape:connector-curvature="0"
         id="path4571"
         d="m -402.11844,25.525618 c 5.72599,-5.773623 10.48108,-8.932285 14.07778,-9.671058 10.21554,-0.307771 16.92826,9.36626 11.55929,18.498493 -11.49232,13.589837 -17.70192,7.778337 -5.78356,34.671006 5.77423,15.323512 37.1558,18.946116 42.71171,28.142797 2.56001,7.208494 0.0372,17.258824 -4.80119,22.034574 -13.60926,12.56001 -45.04684,9.54303 -60.22487,5.24846 -26.58808,-12.26469 -34.09858,-40.273872 -27.44147,-65.205842 3.21593,-7.058978 4.46134,-11.335306 0.79418,-15.849646 -3.64496,-5.185959 -8.80687,-10.687103 -7.41952,-17.588116 1.16314,-6.22713 4.98051,-13.841188 12.18416,-14.12685 10.51112,-2.3039605 21.80325,5.631559 24.34349,13.846182 z"
         style="font-size:medium;font-style:normal;font-variant:normal;font-weight:normal;font-stretch:normal;text-indent:0;text-align:start;text-decoration:none;line-height:normal;letter-spacing:normal;word-spacing:normal;text-transform:none;direction:ltr;block-progression:tb;writing-mode:lr-tb;text-anchor:start;baseline-shift:baseline;color:#000000;fill:#ffff00;fill-opacity:1;stroke:none;stroke-width:1;marker:none;visibility:visible;display:inline;overflow:visible;enable-background:accumulate;font-family:Sans;-inkscape-font-specification:Sans" />
      <path
         style="fill:#ff0000;fill-opacity:1;stroke:none;display:inline"
         d="M 186.78788,3.1382576 C 167.26923,22.628167 148.31067,43.857884 128.21875,62.75 l 6.0625,19.5625 c 3.55216,18.27431 8.69435,24.0175 19.28125,36.9375 8.70654,15.1225 10.66593,26.85815 15.3125,22.40625 8.9604,0 13.14935,-13.49153 4.96875,-32.15625 C 160.35326,78.720327 158.4605,71.25655 163.75,57.40625 c 5.6106,-14.6913 29.03485,-25.37004 36.96875,-27.9375 l 0.15625,-0.0625 0.0312,0 c 21.08648,5.930649 43.33389,40.748998 46.28125,47.625 3.0439,7.1009 6.3848,22.790399 7.4375,34.875 1.8904,21.7007 4.85085,31.44595 10.65625,35.21875 14.69223,1.83377 16.61295,-38.69095 17.53125,-50.8125 C 219.52159,33.837996 239.32281,52.932496 186.78788,3.1382576 z"
         transform="translate(-593.1875,-134.1875)"
         id="path5052"
         inkscape:connector-curvature="0"
         sodipodi:nodetypes="cccccssccccsccc" />
      <path
         sodipodi:nodetypes="sscscccss"
         inkscape:connector-curvature="0"
         id="path5056"
         d="m -481.99446,32.132109 c -14.1739,-15.0971 -34.36981,-44.419888 -34.36981,-51.240488 0,-2.2548 10.30041,-9.238413 10.30041,-9.238413 0,0 3.59636,9.426785 7.2454,18.8368008 6.82577,17.6020567 8.24132,22.4625002 25.88652,31.8580002 25.98488,15.706614 23.97749,-6.604295 32.48913,10.702358 2.1778,5.1953 1.19935,9.473056 0.54675,10.639756 -0.6525,1.1667 -8.3909,2.677886 -15.6091,2.677886 -12.1043,0 -14.1623,-1.106 -26.4893,-14.2359 z"
         style="fill:#ff0000;fill-opacity:1;stroke:none;display:inline" />
      <path
         style="font-size:medium;font-style:normal;font-variant:normal;font-weight:normal;font-stretch:normal;text-indent:0;text-align:start;text-decoration:none;line-height:normal;letter-spacing:normal;word-spacing:normal;text-transform:none;direction:ltr;block-progression:tb;writing-mode:lr-tb;text-anchor:start;baseline-shift:baseline;color:#000000;fill:#ffff00;fill-opacity:1;stroke:none;stroke-width:1;marker:none;visibility:visible;display:inline;overflow:visible;enable-background:accumulate;font-family:Sans;-inkscape-font-specification:Sans"
         d="m -368.09742,-82.816632 c 12.2398,14.104581 22.26219,31.204605 23.55125,50.223013 1.30044,11.46563 2.00879,23.0077052 3.12708,34.4787038 -7.69135,2.8685115 -22.04341,-24.7593828 -16.78057,-13.3182878 3.71343,8.4583225 8.90427,16.7277174 17.02822,21.549805 5.23029,5.329981 11.21935,9.672325 18.13844,12.531977 8.82187,4.898333 18.05487,12.345789 19.52978,22.931517 -0.0501,8.797839 -6.40224,16.99557 -14.16103,20.559755 -9.31269,1.675681 -17.53416,-4.656165 -25.43998,-8.598184 -10.66308,-6.490571 -19.01164,-9.229096 -24.91011,-20.349156 -1.26439,-10.633535 3.43956,-27.8285627 -1.95148,-38.00829385 -3.64083,-8.19228955 -9.87311,-15.32449115 -17.29375,-20.27678115 -3.71586,-1.902105 -6.68584,-0.587275 -1.77696,1.636013 10.00609,7.321635 18.45928,18.97022028 17.36944,31.916019 2.86624,6.155663 -1.50251,9.755518 -6.24552,4.56437 -6.5378,-5.908109 -12.12125,-3.811601 -22.01885,2.292782 -4.32905,-3.226879 -11.19883,-8.74217 -18.22555,-9.9640892 -4.39395,-1.3326118 5.73375,-5.2397915 5.47691,-9.3679987 2.04114,-7.0981137 -1.21788,-14.3675491 -3.05865,-21.1910581 -5.20236,-16.059961 -14.1577,-32.203483 -11.37426,-49.621616 2.91772,-13.981292 16.00884,-23.036164 28.51058,-27.94995 13.98409,-4.375598 22.48195,7.346209 30.50501,15.96146 z"
         id="path4681"
         inkscape:connector-curvature="0"
         sodipodi:nodetypes="cccccccccccccccccccccc" />
      <path
         style="font-size:medium;font-style:normal;font-variant:normal;font-weight:normal;font-stretch:normal;text-indent:0;text-align:start;text-decoration:none;line-height:normal;letter-spacing:normal;word-spacing:normal;text-transform:none;direction:ltr;block-progression:tb;writing-mode:lr-tb;text-anchor:start;baseline-shift:baseline;color:#000000;fill:none;fill-opacity:1;stroke:#7d7d7d;stroke-width:3;stroke-miterlimit:4;stroke-opacity:1;stroke-dasharray:none;marker:none;visibility:visible;display:inline;overflow:visible;enable-background:accumulate;font-family:Sans;-inkscape-font-specification:Sans"
         d="m -405.66111,-132.06891 c -61.39532,62.693791 -123.48607,124.7007624 -185.37381,186.907242 44.32058,40.99242 101.04303,70.079148 161.3149,77.226758 32.10326,2.45195 64.90219,1.61881 95.7038,-8.68638 44.24627,-13.30943 85.1922,-37.139088 119.70028,-67.574628 -22.89921,-23.91641 -47.60034,-46.4348596 -70.99585,-70.00827 -40.17161,-39.229636 -79.74652,-79.079751 -120.34932,-117.864722 z"
         id="path5037-7-2"
         inkscape:connector-curvature="0" />
    </g>
  </g>
</svg>
