<?xml version="1.0" encoding="UTF-8" standalone="no"?>
<!-- Created with Inkscape (http://www.inkscape.org/) -->

<svg
   xmlns:dc="http://purl.org/dc/elements/1.1/"
   xmlns:cc="http://creativecommons.org/ns#"
   xmlns:rdf="http://www.w3.org/1999/02/22-rdf-syntax-ns#"
   xmlns:svg="http://www.w3.org/2000/svg"
   xmlns="http://www.w3.org/2000/svg"
   xmlns:sodipodi="http://sodipodi.sourceforge.net/DTD/sodipodi-0.dtd"
   xmlns:inkscape="http://www.inkscape.org/namespaces/inkscape"
   width="379.71899"
   height="268.28757"
   id="svg3288"
   version="1.1"
   inkscape:version="0.48.4 r9939"
   sodipodi:docname="ME2C.svg">
  <defs
     id="defs3290" />
  <sodipodi:namedview
     id="base"
     pagecolor="#ffffff"
     bordercolor="#666666"
     borderopacity="1.0"
     inkscape:pageopacity="0.0"
     inkscape:pageshadow="2"
     inkscape:zoom="1.75"
     inkscape:cx="235.31778"
     inkscape:cy="197.61497"
     inkscape:document-units="px"
     inkscape:current-layer="layer1"
     showgrid="true"
     inkscape:snap-bbox="true"
     inkscape:bbox-nodes="true"
     inkscape:bbox-paths="true"
     inkscape:snap-bbox-edge-midpoints="true"
     inkscape:snap-bbox-midpoints="true"
     fit-margin-top="0"
     fit-margin-left="0"
     fit-margin-right="0"
     fit-margin-bottom="0"
     inkscape:window-width="1231"
     inkscape:window-height="776"
     inkscape:window-x="49"
     inkscape:window-y="24"
     inkscape:window-maximized="1"
     inkscape:snap-global="false">
    <inkscape:grid
       type="xygrid"
       id="grid3345"
       empspacing="5"
       visible="true"
       enabled="true"
       snapvisiblegridlinesonly="true"
       originx="-110.14051px"
       originy="-351.71243px" />
  </sodipodi:namedview>
  <metadata
     id="metadata3293">
    <rdf:RDF>
      <cc:Work
         rdf:about="">
        <dc:format>image/svg+xml</dc:format>
        <dc:type
           rdf:resource="http://purl.org/dc/dcmitype/StillImage" />
        <dc:title />
      </cc:Work>
    </rdf:RDF>
  </metadata>
  <g
     inkscape:label="Layer 1"
     inkscape:groupmode="layer"
     id="layer1"
     transform="translate(-110.14051,-432.36218)">
    <g
       id="g16585">
      <g
         inkscape:label="Layer 1"
         id="layer1-6"
         transform="translate(-169.15115,171.22007)"
         style="stroke:none">
        <path
           sodipodi:nodetypes="ccccccccccccc"
           inkscape:connector-curvature="0"
           id="path5365"
           d="m 485.07273,282.14598 c 36.67081,34.2169 44.76182,42.15698 69.34877,66.97444 0,0 -6.14849,33.58734 -13.16541,15.79463 -0.7646,-6.59354 -24.9257,-40.44622 -11.56212,-6.71187 7.40172,36.41029 -4.86388,73.57003 -19.57861,106.56753 -8.54531,16.49994 -18.20571,36.26159 -37.32642,42.10751 -24.05448,3.63868 -40.84982,-19.60643 -48.72638,-39.39497 -10.73871,-25.41652 -22.36622,-51.43676 -22.07142,-79.62157 -1.08967,-16.59687 -0.0585,-33.3318 4.66121,-49.23053 2.90614,-11.06788 0.54921,-16.34939 0.54921,-16.34939 l 4.40003,-5.13276 29.33188,-28.78334 c 14.71308,-6.79083 29.42617,-4.43025 44.13926,-6.21968 z"
           style="font-size:medium;font-style:normal;font-variant:normal;font-weight:normal;font-stretch:normal;text-indent:0;text-align:start;text-decoration:none;line-height:normal;letter-spacing:normal;word-spacing:normal;text-transform:none;direction:ltr;block-progression:tb;writing-mode:lr-tb;text-anchor:start;baseline-shift:baseline;color:#000000;fill:#969696;fill-opacity:1;stroke:none;stroke-width:1;marker:none;visibility:visible;display:inline;overflow:visible;enable-background:accumulate;font-family:Sans;-inkscape-font-specification:Sans" />
        <path
           sodipodi:nodetypes="cccccccccccccccccc"
           inkscape:connector-curvature="0"
           id="path5201"
           d="m 512.57239,338.58544 c -3.86314,6.26277 -1.65831,16.81941 -1.41839,24.90579 1.99167,23.11933 -1.76449,46.34743 -8.70537,68.38156 -5.76671,19.77451 -16.44526,45.2108 -29.82142,53.88308 -8.22355,5.59785 -19.55842,0.25679 -23.86668,-7.8404 -6.94012,-10.37525 -13.1303,-21.48757 -17.85937,-33.00115 -4.01665,-13.29385 3.01076,-26.575 6.44502,-39.06164 1.85799,-4.53131 5.15399,-15.6603 -3.31148,-11.17632 -6.04562,8.09841 -13.90223,9.48532 -13.40075,-3.34988 -1.19233,-13.31445 0.85279,-25.32799 -3.85932,-39.10643 -5.69783,-10.54977 -11.26719,-8.8252 -12.89472,3.79428 -3.45425,29.7748 0.60924,59.7891 12.08701,87.58657 5.54364,13.78636 9.68136,28.86764 18.15832,41.18851 7.13989,9.49 16.37723,18.94525 28.37933,21.52905 12.53509,1.95035 24.39294,-5.82999 31.15812,-15.91035 18.90846,-25.15455 29.26834,-55.69913 35.12551,-86.34541 3.59359,-20.24344 1.34253,-39.01354 -5.28017,-62.28219 -2.41904,-5.54039 -8.25423,-4.15722 -10.93564,-3.19507 z"
           style="font-size:medium;font-style:normal;font-variant:normal;font-weight:normal;font-stretch:normal;text-indent:0;text-align:start;text-decoration:none;line-height:normal;letter-spacing:normal;word-spacing:normal;text-transform:none;direction:ltr;block-progression:tb;writing-mode:lr-tb;text-anchor:start;baseline-shift:baseline;color:#000000;fill:#ff0000;fill-opacity:1;stroke:none;stroke-width:1;marker:none;visibility:visible;display:inline;overflow:visible;enable-background:accumulate;font-family:Sans;-inkscape-font-specification:Sans" />
        <path
           style="font-size:medium;font-style:normal;font-variant:normal;font-weight:normal;font-stretch:normal;text-indent:0;text-align:start;text-decoration:none;line-height:normal;letter-spacing:normal;word-spacing:normal;text-transform:none;direction:ltr;block-progression:tb;writing-mode:lr-tb;text-anchor:start;baseline-shift:baseline;color:#000000;fill:none;stroke:none;stroke-width:1;marker:none;visibility:visible;display:inline;overflow:visible;enable-background:accumulate;font-family:Sans;-inkscape-font-specification:Sans"
           d="m 512.32519,343.64829 c 0.061,0.0172 0.099,0.0937 0.1562,0.0937 0,0 -0.035,0.006 -0.094,-0.0312 -0.025,-0.0166 -0.043,-0.0384 -0.062,-0.0625 z"
           id="path5185"
           inkscape:connector-curvature="0" />
        <path
           inkscape:connector-curvature="0"
           id="path5181"
           d="m 503.95019,344.05454 c -10.1,0.56819 -17.40953,8.94005 -23.34256,16.28066 -5.38168,7.48167 -10.62564,15.16087 -14.82347,23.35336 -3.00579,5.8661 -5.70713,13.62632 -13.93001,13.1314 -3.22278,0.0845 -6.43716,-0.29145 -9.65396,-0.45287 -3.0068,10.6888 -6.92385,21.10046 -9.89191,31.79221 -1.76528,6.37867 -2.37918,13.41773 0.935,19.43265 5.96629,12.29075 11.34876,25.40219 21.05753,35.29222 4.62768,5.08931 12.69444,6.2092 18.24744,1.91913 8.00445,-5.55699 12.32384,-14.81404 16.90164,-23.12366 10.8797,-21.29575 17.01462,-44.72998 20.36706,-68.31817 2.1715,-15.24804 -0.90573,-30.52969 -0.6118,-45.81725 -0.007,-1.90329 0.57749,-4.38621 -2.19249,-3.48958 -1.0204,-7e-5 -2.0441,1.4e-4 -3.06247,-1e-4 z"
           style="font-size:medium;font-style:normal;font-variant:normal;font-weight:normal;font-stretch:normal;text-indent:0;text-align:start;text-decoration:none;line-height:normal;letter-spacing:normal;word-spacing:normal;text-transform:none;direction:ltr;block-progression:tb;writing-mode:lr-tb;text-anchor:start;baseline-shift:baseline;color:#000000;fill:#ffff00;fill-opacity:1;stroke:none;stroke-width:1;marker:none;visibility:visible;display:inline;overflow:visible;enable-background:accumulate;font-family:Sans;-inkscape-font-specification:Sans"
           sodipodi:nodetypes="ccsccccccccccc" />
        <path
           inkscape:connector-curvature="0"
           id="path5177"
           d="m 421.26259,344.27329 c -2.36377,-0.0487 -4.5986,0.82882 -6.875,1.3438 2.62476,5.26324 5.68138,10.47114 6.43859,16.41027 1.67723,10.95579 -0.58373,22.13126 1.35022,33.05767 0.36051,1.94031 1.44817,4.70531 3.88312,4.38989 3.77292,-0.86692 5.74354,-4.6356 8.78595,-6.70821 1.74075,-1.74586 4.4767,-1.02846 6.24279,-2.71988 3.00109,-2.29468 4.63178,-6.56691 3.01979,-10.14466 -1.40148,-4.2177 -4.65457,-7.44305 -6.27629,-11.55844 -2.29834,-4.63943 -2.73758,-9.93164 -5.08707,-14.55309 -2.14153,-4.60046 -5.96383,-9.3781 -11.4821,-9.51735 z"
           style="font-size:medium;font-style:normal;font-variant:normal;font-weight:normal;font-stretch:normal;text-indent:0;text-align:start;text-decoration:none;line-height:normal;letter-spacing:normal;word-spacing:normal;text-transform:none;direction:ltr;block-progression:tb;writing-mode:lr-tb;text-anchor:start;baseline-shift:baseline;color:#000000;fill:#ffff00;fill-opacity:1;stroke:none;stroke-width:1;marker:none;visibility:visible;display:inline;overflow:visible;enable-background:accumulate;font-family:Sans;-inkscape-font-specification:Sans" />
      </g>
      <path
         sodipodi:nodetypes="ccczzzzzcszzzccc"
         inkscape:connector-curvature="0"
         id="path5281-7"
         d="m 317.74116,454.53665 c 24.52123,20.8928 43.14982,43.35688 63.02463,62.68993 2.04069,9.47763 -0.82496,17.87725 -3.63591,21.55697 -3.90676,1.81826 -7.35122,-18.04515 -16.31747,-24.59738 -8.96625,-6.55223 -9.54927,-8.10004 -20.05467,-5.55766 -10.5054,2.54238 -9.97045,1.16533 -24.96308,14.14878 -14.99263,12.98346 -18.26794,25.32049 -21.6032,32.39204 -3.33526,7.07155 -6.45709,12.33337 -15.02985,11.37937 -8.57276,-0.95399 -4.86003,-2.09585 -4.86003,-2.09585 0,0 1.95013,-3.85702 2.18104,-8.5155 0.27404,-5.5287 -2.988,-9.79307 -4.67554,-16.15443 -1.68754,-6.36136 -3.52773,-18.22075 -13.22235,-24.77282 -9.69461,-6.55206 -17.2753,1.89347 -17.23461,-3.48436 0.0407,-5.37783 -1.91456,-12.65068 0.27442,-20.56235 8.7613,-10.50579 19.95389,-19.5889 29.56687,-29.28718 6.38333,-5.51353 29.02085,-6.00083 46.54975,-7.13956 z"
         style="font-size:medium;font-style:normal;font-variant:normal;font-weight:normal;font-stretch:normal;text-indent:0;text-align:start;text-decoration:none;line-height:normal;letter-spacing:normal;word-spacing:normal;text-transform:none;direction:ltr;block-progression:tb;writing-mode:lr-tb;text-anchor:start;baseline-shift:baseline;color:#000000;fill:#ffff00;fill-opacity:1;stroke:none;stroke-width:1;marker:none;visibility:visible;display:inline;overflow:visible;enable-background:accumulate;font-family:Sans;-inkscape-font-specification:Sans" />
      <path
         style="font-size:medium;font-style:normal;font-variant:normal;font-weight:normal;font-stretch:normal;text-indent:0;text-align:start;text-decoration:none;line-height:normal;letter-spacing:normal;word-spacing:normal;text-transform:none;direction:ltr;block-progression:tb;writing-mode:lr-tb;text-anchor:start;baseline-shift:baseline;color:#000000;fill:none;stroke:#7d7d7d;stroke-width:3;stroke-miterlimit:4;stroke-opacity:1;stroke-dasharray:none;marker:none;visibility:visible;display:inline;overflow:visible;enable-background:accumulate;font-family:Sans;-inkscape-font-specification:Sans"
         d="M 297.01432,433.86218 C 235.619,496.55597 173.52825,558.56294 111.64051,620.76942 c 44.32058,40.99242 101.04303,70.07915 161.3149,77.22676 32.10326,2.45195 64.90219,1.61881 95.7038,-8.68638 44.24627,-13.30943 85.1922,-37.13909 119.70028,-67.57463 C 465.46028,597.81876 440.75915,575.30031 417.36364,551.7269 377.19203,512.49726 337.61712,472.64715 297.01432,433.86218 z"
         id="path5037-7"
         inkscape:connector-curvature="0" />
    </g>
  </g>
</svg>
