<?xml version="1.0" encoding="UTF-8" standalone="no"?>
<!-- Created with Inkscape (http://www.inkscape.org/) -->

<svg
   xmlns:dc="http://purl.org/dc/elements/1.1/"
   xmlns:cc="http://creativecommons.org/ns#"
   xmlns:rdf="http://www.w3.org/1999/02/22-rdf-syntax-ns#"
   xmlns:svg="http://www.w3.org/2000/svg"
   xmlns="http://www.w3.org/2000/svg"
   xmlns:sodipodi="http://sodipodi.sourceforge.net/DTD/sodipodi-0.dtd"
   xmlns:inkscape="http://www.inkscape.org/namespaces/inkscape"
   width="379.71899"
   height="268.28757"
   id="svg3288"
   version="1.1"
   inkscape:version="0.48.4 r9939"
   sodipodi:docname="ME4C.svg">
  <defs
     id="defs3290" />
  <sodipodi:namedview
     id="base"
     pagecolor="#ffffff"
     bordercolor="#666666"
     borderopacity="1.0"
     inkscape:pageopacity="0.0"
     inkscape:pageshadow="2"
     inkscape:zoom="0.45"
     inkscape:cx="-252.87032"
     inkscape:cy="168.28757"
     inkscape:document-units="px"
     inkscape:current-layer="layer1"
     showgrid="true"
     inkscape:snap-bbox="true"
     inkscape:bbox-nodes="true"
     inkscape:bbox-paths="true"
     inkscape:snap-bbox-edge-midpoints="true"
     inkscape:snap-bbox-midpoints="true"
     fit-margin-top="0"
     fit-margin-left="0"
     fit-margin-right="0"
     fit-margin-bottom="0"
     inkscape:window-width="1231"
     inkscape:window-height="776"
     inkscape:window-x="49"
     inkscape:window-y="24"
     inkscape:window-maximized="1"
     inkscape:snap-global="false">
    <inkscape:grid
       type="xygrid"
       id="grid3345"
       empspacing="5"
       visible="true"
       enabled="true"
       snapvisiblegridlinesonly="true"
       originx="-110.14051px"
       originy="-351.71243px" />
  </sodipodi:namedview>
  <metadata
     id="metadata3293">
    <rdf:RDF>
      <cc:Work
         rdf:about="">
        <dc:format>image/svg+xml</dc:format>
        <dc:type
           rdf:resource="http://purl.org/dc/dcmitype/StillImage" />
      </cc:Work>
    </rdf:RDF>
  </metadata>
  <g
     inkscape:label="Layer 1"
     inkscape:groupmode="layer"
     id="layer1"
     transform="translate(-110.14051,-432.36218)">
    <g
       id="g4788">
      <path
         style="font-size:medium;font-style:normal;font-variant:normal;font-weight:normal;font-stretch:normal;text-indent:0;text-align:start;text-decoration:none;line-height:normal;letter-spacing:normal;word-spacing:normal;text-transform:none;direction:ltr;block-progression:tb;writing-mode:lr-tb;text-anchor:start;baseline-shift:baseline;color:#000000;fill:#ffffff;stroke:#7d7d7d;stroke-width:3;stroke-miterlimit:4;stroke-opacity:1;stroke-dasharray:none;marker:none;visibility:visible;display:inline;overflow:visible;enable-background:accumulate;font-family:Sans;-inkscape-font-specification:Sans;fill-opacity:1"
         d="M 297.01432,433.86218 C 235.619,496.55597 173.52825,558.56294 111.64051,620.76942 c 44.32058,40.99242 101.04303,70.07915 161.3149,77.22676 32.10326,2.45195 64.90219,1.61881 95.7038,-8.68638 44.24627,-13.30943 85.1922,-37.13909 119.70028,-67.57463 C 465.46028,597.81876 440.75915,575.30031 417.36364,551.7269 377.19203,512.49726 337.61712,472.64715 297.01432,433.86218 z"
         id="path5037-7-4"
         inkscape:connector-curvature="0" />
      <path
         sodipodi:nodetypes="cccccccc"
         inkscape:connector-curvature="0"
         id="path5369"
         d="m 297.30736,432.95213 -98.79689,101.08886 c 0,0 5.34606,68.51565 28.28891,91.57308 17.48144,20.05296 36.73567,39.01997 58.86971,53.86406 14.78615,7.85847 33.87517,0.39947 40.77242,-14.49313 21.85116,-34.99857 30.7091,-76.2675 34.02841,-116.93075 0.87201,-19.38242 -1.47679,-53.00709 -1.47679,-53.00709 z"
         style="font-size:medium;font-style:normal;font-variant:normal;font-weight:normal;font-stretch:normal;text-indent:0;text-align:start;text-decoration:none;line-height:normal;letter-spacing:normal;word-spacing:normal;text-transform:none;direction:ltr;block-progression:tb;writing-mode:lr-tb;text-anchor:start;baseline-shift:baseline;color:#000000;fill:#969696;fill-opacity:1;stroke:none;stroke-width:2;marker:none;visibility:visible;display:inline;overflow:visible;enable-background:accumulate;font-family:Sans;-inkscape-font-specification:Sans" />
      <path
         inkscape:connector-curvature="0"
         id="path5351"
         d="m 297.92069,435.00874 7.8236,7.70724 c 2.24768,2.20536 4.25137,4.26016 5.61779,5.79062 0.6832,0.76523 1.18972,1.41883 1.51775,1.86066 0.0317,0.0428 0.0355,0.054 0.0634,0.0931 -0.38327,0.003 -0.91688,0.005 -1.56302,-0.0476 -1.2923,-0.10433 -3.00562,-0.3223 -4.81852,-0.61048 -3.73971,-0.59449 -10.8906,-0.6878 -16.03409,-0.22262 l -7.89966,0.73136 7.30576,-7.31977 0.0309,-0.0315 7.95604,-7.95098 z"
         style="font-size:medium;font-style:normal;font-variant:normal;font-weight:normal;font-stretch:normal;text-indent:0;text-align:start;text-decoration:none;line-height:normal;letter-spacing:normal;word-spacing:normal;text-transform:none;direction:ltr;block-progression:tb;writing-mode:lr-tb;text-anchor:start;baseline-shift:baseline;opacity:1;color:#000000;fill:#ffffff;fill-opacity:1;stroke:none;stroke-width:1;stroke-opacity:1;marker:none;visibility:visible;display:inline;overflow:visible;enable-background:accumulate;font-family:Sans;-inkscape-font-specification:Sans" />
      <path
         inkscape:connector-curvature="0"
         id="path5279"
         d="m 304.84971,457.10024 c -10.57571,-0.37366 -21.10626,0.84127 -31.64323,1.51956 -6.12521,6.22808 -12.2193,12.49043 -18.38584,18.67559 1.3626,12.62357 2.70279,25.25001 4.11,37.86889 8.17622,2.60175 16.75533,5.26102 22.77642,11.75426 9.13583,9.1064 11.87336,22.35473 12.8486,34.75212 0.19327,4.44209 2.76349,9.4915 7.80159,9.52744 7.0576,0.38083 14.16926,-0.36277 21.15905,-1.30143 4.1279,-5.98148 8.17254,-13.00714 7.50016,-20.61776 0.0412,-5.33867 -4.78364,-9.4541 -3.61084,-14.92943 1.22548,-8.97249 8.19506,-18.13383 17.93787,-18.09453 7.27179,0.58465 6.97679,-7.65528 6.27871,-12.6483 -0.66622,-6.5105 -0.4772,-13.41302 -3.1551,-19.47477 -6.3797,-8.70963 -14.67603,-15.88481 -23.18434,-22.45791 -5.07782,-4.44367 -12.21868,-3.77476 -18.48223,-4.49373 l -0.9707,-0.0441 -0.98022,-0.036 1e-4,0 z"
         style="font-size:medium;font-style:normal;font-variant:normal;font-weight:normal;font-stretch:normal;text-indent:0;text-align:start;text-decoration:none;line-height:normal;letter-spacing:normal;word-spacing:normal;text-transform:none;direction:ltr;block-progression:tb;writing-mode:lr-tb;text-anchor:start;baseline-shift:baseline;opacity:1;color:#000000;fill:#ffff00;fill-opacity:1;stroke:none;stroke-width:1;stroke-opacity:1;marker:none;visibility:visible;display:inline;overflow:visible;enable-background:accumulate;font-family:Sans;-inkscape-font-specification:Sans" />
      <path
         inkscape:connector-curvature="0"
         id="path5257"
         d="m 247.96929,486.39221 c 1.94365,9.73676 3.63325,19.60611 4.21075,29.52785 -0.58406,5.73088 -8.61114,6.23811 -10.53149,11.69944 -5.7458,8.06475 -7.10018,18.40121 -5.16754,27.95822 -0.55729,3.72013 4.48008,9.29682 4.41792,2.50083 0.23736,-9.74781 1.00139,-20.4456 7.29484,-28.38103 0.84613,0.24439 -1.44188,7.09417 -0.80696,9.55037 0.91021,23.41594 4.0548,46.72253 8.18549,69.77702 1.67995,10.95133 5.38839,21.52199 6.52879,32.5525 0.28714,8.11436 -8.01551,-1.86761 -11.00836,-3.63836 -14.16463,-12.94193 -27.29516,-27.69739 -35.39419,-45.26236 -5.53598,-11.64728 -6.88154,-24.58863 -7.91271,-37.27069 -0.31778,-5.59748 -2.28185,-12.0722 -1.98194,-17.17325 7.66794,4.87021 10.34355,14.41247 12.37691,22.78899 1.9029,3.66029 -0.68877,12.7647 4.12864,12.73277 4.65593,-9.59408 2.21648,-21.20659 -2.44428,-30.37926 -2.90089,-6.37408 -8.40265,-10.85397 -14.64233,-13.66861 9.46525,-10.78573 20.10022,-20.99566 30.28415,-31.29952 4.13251,-4.02433 8.15155,-8.17985 12.46231,-12.01491 z"
         style="font-size:medium;font-style:normal;font-variant:normal;font-weight:normal;font-stretch:normal;text-indent:0;text-align:start;text-decoration:none;line-height:normal;letter-spacing:normal;word-spacing:normal;text-transform:none;direction:ltr;block-progression:tb;writing-mode:lr-tb;text-anchor:start;baseline-shift:baseline;opacity:1;color:#000000;fill:#ffff00;fill-opacity:1;stroke:none;stroke-width:1;stroke-opacity:1;marker:none;visibility:visible;display:inline;overflow:visible;enable-background:accumulate;font-family:Sans;-inkscape-font-specification:Sans" />
      <path
         inkscape:connector-curvature="0"
         id="path5169"
         d="m 257.87096,515.45567 c -6.34047,4.7238 -8.11595,14.30992 -8.31399,21.97383 1.14325,26.69735 3.94444,53.37467 9.69792,79.4981 1.19019,8.78502 5.15325,17.08138 5.42136,25.96914 -3.33389,8.92221 -13.63098,-2.84733 -18.00303,-6.47693 -16.86102,-17.01005 -33.33198,-36.52298 -38.90197,-60.3968 0.16715,-7.14921 -3.66954,-14.30251 -1.80138,-20.32225 -1.96989,-6.60029 -0.76305,-14.54318 -4.06966,-20.46224 -2.82631,7.29019 -0.454,16.59493 -0.66783,24.57857 0.97123,14.76104 2.6646,30.26341 11.4925,42.684 6.6131,11.41375 14.3622,22.16595 23.99378,31.23815 13.9213,13.69274 27.45169,27.98471 42.96616,39.89455 10.17462,7.23743 25.0152,10.07085 35.58637,2.03357 5.24585,-4.22256 10.50729,-12.00537 13.87474,-18.92051 7.58398,-15.12755 15.30759,-30.36773 19.12083,-46.96912 3.66357,-12.78175 5.34294,-26.00055 7.50917,-39.06258 2.10683,-16.49252 7.2285,-33.99958 0.80692,-50.18825 -4.26546,-10.09287 -12.63594,0.1514 -14.08139,6.37604 -4.09654,14.79829 -5.96259,30.15759 -7.82245,45.37268 -0.6734,4.45334 -0.89466,15.09492 -4.4949,15.24602 -2.51591,-5.11184 -4.32513,-14.25452 -9.89806,-15.53163 -3.32625,7.70603 0.48572,16.02157 0.33892,24.03896 0.53693,11.19007 4.24281,22.31795 1.34709,33.5003 -2.47674,11.23747 -6.989,23.54556 -17.09531,30.02806 -8.94848,3.3528 -14.62467,-7.17105 -17.74015,-13.90313 -6.07888,-11.34607 -6.12967,-24.50789 -9.00594,-36.79957 -4.37853,-24.69746 -7.74951,-49.56926 -12.20115,-74.24885 -1.75904,-6.37007 -1.84488,-15.42689 -8.05855,-19.15011 z"
         style="font-size:medium;font-style:normal;font-variant:normal;font-weight:normal;font-stretch:normal;text-indent:0;text-align:start;text-decoration:none;line-height:normal;letter-spacing:normal;word-spacing:normal;text-transform:none;direction:ltr;block-progression:tb;writing-mode:lr-tb;text-anchor:start;baseline-shift:baseline;opacity:1;color:#000000;fill:#ff0000;fill-opacity:1;stroke:none;stroke-width:1;stroke-opacity:1;marker:none;visibility:visible;display:inline;overflow:visible;enable-background:accumulate;font-family:Sans;-inkscape-font-specification:Sans" />
      <path
         inkscape:connector-curvature="0"
         id="path5149"
         d="m 342.85863,520.3356 c -4.02044,2.23763 -6.98299,5.97037 -9.50501,9.73963 -2.50694,4.05416 -1.69853,9.03789 -1.71746,13.56097 0.003,4.81981 0.81568,9.80258 -0.62027,14.49735 -1.70823,4.15341 -4.3866,7.80815 -6.62705,11.68291 -0.38604,0.67843 -1.10994,1.34248 -0.43772,2.07607 2.03498,4.13175 3.65797,8.5154 6.35988,12.27479 2.24773,1.38245 1.90425,-3.26929 2.43314,-4.62883 1.21939,-8.46221 1.98748,-16.98612 3.38974,-25.42439 1.55123,-9.50353 2.98591,-19.06644 5.57076,-28.3563 -0.074,-1.59101 3.43732,-4.74498 1.15399,-5.4222 z"
         style="font-size:medium;font-style:normal;font-variant:normal;font-weight:normal;font-stretch:normal;text-indent:0;text-align:start;text-decoration:none;line-height:normal;letter-spacing:normal;word-spacing:normal;text-transform:none;direction:ltr;block-progression:tb;writing-mode:lr-tb;text-anchor:start;baseline-shift:baseline;opacity:1;color:#000000;fill:#ffff00;fill-opacity:1;stroke:none;stroke-width:1;stroke-opacity:1;marker:none;visibility:visible;display:inline;overflow:visible;enable-background:accumulate;font-family:Sans;-inkscape-font-specification:Sans" />
      <path
         inkscape:connector-curvature="0"
         id="path5137"
         d="m 266.70967,524.74708 c -3.33776,2.84581 1.51751,9.47693 1.0682,13.75188 5.66054,31.50413 9.28368,63.38891 16.37578,94.62617 2.39768,8.97261 4.81468,19.26045 12.88854,24.89097 5.6852,3.17963 11.83564,-1.34898 14.81622,-6.15062 7.66866,-11.67422 11.91284,-26.09765 9.68057,-40.06864 -1.72888,-13.26331 -3.72605,-26.56158 -3.47332,-39.97323 -6.54416,-0.23981 -13.42398,1.08853 -19.64148,-1.4535 -6.5764,-3.75869 -7.48964,-12.11341 -9.99694,-18.58395 -3.94777,-10.3859 -10.60421,-20.06647 -19.84611,-26.39098 l -0.98456,-0.45397 -0.8869,-0.19413 z"
         style="font-size:medium;font-style:normal;font-variant:normal;font-weight:normal;font-stretch:normal;text-indent:0;text-align:start;text-decoration:none;line-height:normal;letter-spacing:normal;word-spacing:normal;text-transform:none;direction:ltr;block-progression:tb;writing-mode:lr-tb;text-anchor:start;baseline-shift:baseline;opacity:1;color:#000000;fill:#ffff00;fill-opacity:1;stroke:none;stroke-width:1;stroke-opacity:1;marker:none;visibility:visible;display:inline;overflow:visible;enable-background:accumulate;font-family:Sans;-inkscape-font-specification:Sans" />
      <path
         style="font-size:medium;font-style:normal;font-variant:normal;font-weight:normal;font-stretch:normal;text-indent:0;text-align:start;text-decoration:none;line-height:normal;letter-spacing:normal;word-spacing:normal;text-transform:none;direction:ltr;block-progression:tb;writing-mode:lr-tb;text-anchor:start;baseline-shift:baseline;opacity:1;color:#000000;fill:none;stroke:#7d7d7d;stroke-width:3;stroke-miterlimit:4;stroke-opacity:1;stroke-dasharray:none;marker:none;visibility:visible;display:inline;overflow:visible;enable-background:accumulate;font-family:Sans;-inkscape-font-specification:Sans"
         d="M 297.01432,433.86218 C 235.619,496.55597 173.52825,558.56294 111.64051,620.76942 c 44.32058,40.99242 101.04303,70.07915 161.3149,77.22676 32.10326,2.45195 64.90219,1.61881 95.7038,-8.68638 44.24627,-13.30943 85.1922,-37.13909 119.70028,-67.57463 C 465.46028,597.81876 440.75915,575.30031 417.36364,551.7269 377.19203,512.49726 337.61712,472.64715 297.01432,433.86218 z"
         id="path5037-7"
         inkscape:connector-curvature="0" />
    </g>
  </g>
</svg>
