<?xml version="1.0" encoding="UTF-8" standalone="no"?>
<!-- Created with Inkscape (http://www.inkscape.org/) -->

<svg
   xmlns:dc="http://purl.org/dc/elements/1.1/"
   xmlns:cc="http://creativecommons.org/ns#"
   xmlns:rdf="http://www.w3.org/1999/02/22-rdf-syntax-ns#"
   xmlns:svg="http://www.w3.org/2000/svg"
   xmlns="http://www.w3.org/2000/svg"
   xmlns:sodipodi="http://sodipodi.sourceforge.net/DTD/sodipodi-0.dtd"
   xmlns:inkscape="http://www.inkscape.org/namespaces/inkscape"
   width="379.71899"
   height="268.28757"
   id="svg3288"
   version="1.1"
   inkscape:version="0.48.4 r9939"
   sodipodi:docname="ME4C-RV Zoom.svg">
  <defs
     id="defs3290" />
  <sodipodi:namedview
     id="base"
     pagecolor="#ffffff"
     bordercolor="#666666"
     borderopacity="1.0"
     inkscape:pageopacity="0.0"
     inkscape:pageshadow="2"
     inkscape:zoom="2.43"
     inkscape:cx="141.97993"
     inkscape:cy="109.97205"
     inkscape:document-units="px"
     inkscape:current-layer="layer1"
     showgrid="true"
     inkscape:snap-bbox="true"
     inkscape:bbox-nodes="true"
     inkscape:bbox-paths="true"
     inkscape:snap-bbox-edge-midpoints="true"
     inkscape:snap-bbox-midpoints="true"
     fit-margin-top="0"
     fit-margin-left="0"
     fit-margin-right="0"
     fit-margin-bottom="0"
     inkscape:window-width="1231"
     inkscape:window-height="776"
     inkscape:window-x="49"
     inkscape:window-y="24"
     inkscape:window-maximized="1"
     inkscape:snap-global="false">
    <inkscape:grid
       type="xygrid"
       id="grid3345"
       empspacing="5"
       visible="true"
       enabled="true"
       snapvisiblegridlinesonly="true"
       originx="-110.14051px"
       originy="-351.71243px" />
  </sodipodi:namedview>
  <metadata
     id="metadata3293">
    <rdf:RDF>
      <cc:Work
         rdf:about="">
        <dc:format>image/svg+xml</dc:format>
        <dc:type
           rdf:resource="http://purl.org/dc/dcmitype/StillImage" />
        <dc:title></dc:title>
      </cc:Work>
    </rdf:RDF>
  </metadata>
  <g
     inkscape:label="Layer 1"
     inkscape:groupmode="layer"
     id="layer1"
     transform="translate(-110.14051,-432.36218)">
    <g
       id="g3074">
      <path
         style="font-size:medium;font-style:normal;font-variant:normal;font-weight:normal;font-stretch:normal;text-indent:0;text-align:start;text-decoration:none;line-height:normal;letter-spacing:normal;word-spacing:normal;text-transform:none;direction:ltr;block-progression:tb;writing-mode:lr-tb;text-anchor:start;baseline-shift:baseline;color:#000000;fill:#ffffff;fill-opacity:1;stroke:#7d7d7d;stroke-width:3;stroke-miterlimit:4;stroke-opacity:1;stroke-dasharray:none;marker:none;visibility:visible;display:inline;overflow:visible;enable-background:accumulate;font-family:Sans;-inkscape-font-specification:Sans"
         d="M 297.01432,433.86218 C 235.619,496.55597 173.52825,558.56294 111.64051,620.76942 c 44.32058,40.99242 101.04303,70.07915 161.3149,77.22676 32.10326,2.45195 64.90219,1.61881 95.7038,-8.68638 44.24627,-13.30943 85.1922,-37.13909 119.70028,-67.57463 C 465.46028,597.81876 440.75915,575.30031 417.36364,551.7269 377.19203,512.49726 337.61712,472.64715 297.01432,433.86218 z"
         id="path5037-7-4"
         inkscape:connector-curvature="0" />
      <path
         sodipodi:nodetypes="ccccccccc"
         inkscape:connector-curvature="0"
         id="path5369"
         transform="translate(110.14051,432.36218)"
         d="m 186.875,1.5 c -20.11119,20.536523 -40.3024,40.985967 -60.53125,61.40625 l -24.44882,25.280093 c 0,0 19.03105,77.220097 53.57678,97.619337 27.09367,18.50868 70.37329,45.47298 101.40329,56.31932 20.08994,4.7893 40.54738,-10.05021 44.15625,-29.96875 8.94688,-28.55392 11.88087,-58.28953 11,-88.03125 -1.59772,-1.58981 -3.22582,-3.15125 -4.8125,-4.75 C 267.04714,80.14536 227.4778,40.28497 186.875,1.5 z"
         style="font-size:medium;font-style:normal;font-variant:normal;font-weight:normal;font-stretch:normal;text-indent:0;text-align:start;text-decoration:none;line-height:normal;letter-spacing:normal;word-spacing:normal;text-transform:none;direction:ltr;block-progression:tb;writing-mode:lr-tb;text-anchor:start;baseline-shift:baseline;color:#000000;fill:#969696;fill-opacity:1;stroke:none;stroke-width:2;marker:none;visibility:visible;display:inline;overflow:visible;enable-background:accumulate;font-family:Sans;-inkscape-font-specification:Sans" />
      <path
         inkscape:connector-curvature="0"
         id="path5351"
         d="m 297.92069,435.00874 7.8236,7.70724 c 2.24768,2.20536 4.25137,4.26016 5.61779,5.79062 0.6832,0.76523 1.18972,1.41883 1.51775,1.86066 0.0317,0.0428 0.0355,0.054 0.0634,0.0931 -0.38327,0.003 -0.91688,0.005 -1.56302,-0.0476 -1.2923,-0.10433 -3.00562,-0.3223 -4.81852,-0.61048 -3.73971,-0.59449 -10.8906,-0.6878 -16.03409,-0.22262 l -7.89966,0.73136 7.30576,-7.31977 0.0309,-0.0315 7.95604,-7.95098 z"
         style="font-size:medium;font-style:normal;font-variant:normal;font-weight:normal;font-stretch:normal;text-indent:0;text-align:start;text-decoration:none;line-height:normal;letter-spacing:normal;word-spacing:normal;text-transform:none;direction:ltr;block-progression:tb;writing-mode:lr-tb;text-anchor:start;baseline-shift:baseline;color:#000000;fill:#ffffff;fill-opacity:1;stroke:none;stroke-width:1;marker:none;visibility:visible;display:inline;overflow:visible;enable-background:accumulate;font-family:Sans;-inkscape-font-specification:Sans" />
      <path
         id="path5279"
         transform="translate(110.14051,432.36218)"
         d="M 186.875 1.5 C 178.95832 9.5841138 171.03163 17.655576 163.09375 25.71875 C 166.69927 35.25044 170.29474 44.763743 173.9375 54.28125 C 184.50508 54.84815 195.57788 55.36877 204.78125 61.25 C 218.51399 69.28335 225.89271 84.2544 230.90625 98.75 C 232.51622 103.99239 237.13125 109.20894 243.15625 107.6875 C 251.69895 105.95068 259.97918 102.85331 268.03125 99.5625 C 269.75818 94.825327 271.34394 89.718425 271.84375 84.5625 C 243.65507 56.735065 215.51638 28.859077 186.875 1.5 z "
         style="font-size:medium;font-style:normal;font-variant:normal;font-weight:normal;font-stretch:normal;text-indent:0;text-align:start;text-decoration:none;line-height:normal;letter-spacing:normal;word-spacing:normal;text-transform:none;direction:ltr;block-progression:tb;writing-mode:lr-tb;text-anchor:start;baseline-shift:baseline;color:#000000;fill:#ffff00;fill-opacity:1;stroke:none;stroke-width:1;marker:none;visibility:visible;display:inline;overflow:visible;enable-background:accumulate;font-family:Sans;-inkscape-font-specification:Sans" />
      <path
         sodipodi:nodetypes="ccccccccccccccccccc"
         inkscape:connector-curvature="0"
         id="path5257"
         transform="translate(110.14051,432.36218)"
         d="m 156.28125,32.625 c -8.34656,8.467039 -50.5769,51.712449 -50.5769,51.712449 l 1.71656,5.537551 c 0,0 16.62516,2.49029 25.07909,7.9375 8.23644,9.32268 16.36225,18.44448 16.5625,34.1875 -2.87321,-3.92913 -5.03401,-19.74045 -9.46875,-21.5625 -5.02811,-9.36747 -13.116,-13.25497 -23.78125,-16.6875 1.2259,6.18213 7.44512,17.88585 9.5625,24.46875 5.1687,14.81807 10.80656,29.84712 21.03125,42.03125 15.12159,18.4521 35.35477,31.98095 56.28125,43.03125 4.12231,1.1844 17.14354,10.503 14.28125,0.90625 -4.78629,-12.81275 -12.50052,-24.2618 -17.90625,-36.8125 -12.0892,-26.23698 -23.08027,-53.08159 -31.4375,-80.75 -1.52053,-2.73474 0.39838,-14.50225 -0.6875,-14.53125 -16.66465,3.75766 -6.34681,30.60919 -3.28125,42.53125 2.18438,8.0929 -3.47886,-0.51134 -3.96875,-5.125 -4.9108,-11.42718 -4.68938,-25.46126 -1.5625,-34.78125 6.27696,-7.27263 10.80217,-10.46383 7.96875,-17.4375 -2.71869,-8.411175 -6.12352,-16.605243 -9.8125,-24.65625 z"
         style="font-size:medium;font-style:normal;font-variant:normal;font-weight:normal;font-stretch:normal;text-indent:0;text-align:start;text-decoration:none;line-height:normal;letter-spacing:normal;word-spacing:normal;text-transform:none;direction:ltr;block-progression:tb;writing-mode:lr-tb;text-anchor:start;baseline-shift:baseline;color:#000000;fill:#ffff00;fill-opacity:1;stroke:none;stroke-width:1;marker:none;visibility:visible;display:inline;overflow:visible;enable-background:accumulate;font-family:Sans;-inkscape-font-specification:Sans" />
      <path
         sodipodi:nodetypes="cccccccccccccccccccccccccccc"
         inkscape:connector-curvature="0"
         id="path5169"
         transform="translate(110.14051,432.36218)"
         d="m 172.75,54.96875 c -6.1017,7.60742 -5.23703,19.60279 -3.09375,28.8125 9.65428,31.51297 21.2708,62.47859 36.25,91.875 4.14847,10.11691 11.45155,18.78666 14.53125,29.3125 -1.20921,11.6854 -17.15419,0.85003 -23.5,-2.125 -25.40824,-15.06906 -51.12585,-33.26317 -65.1875,-60.03125 -2.02033,-8.58573 -8.79832,-15.92182 -8.4375,-23.6875 -4.40081,-7.26696 -8.3145,-20.409701 -14.09941,-26.448431 -1.11007,9.579701 7.50071,23.227161 9.72441,32.823431 5.74269,17.31831 12.57446,35.28993 26.96875,47.375 11.4379,11.57091 24.02982,22.00512 38.34375,29.84375 20.86914,12.02206 41.43897,24.88206 63.65625,34.28125 14.39244,5.47989 33.00205,4.25129 43.125,-8.625 4.95072,-6.66922 8.81503,-17.57496 10.6875,-26.875 4.35565,-20.41223 8.82178,-40.99932 8.21875,-62 0.14673,-5.94943 -0.0432,-11.88514 -0.40625,-17.8125 -0.7701,-0.77105 -1.5451,-1.53927 -2.3125,-2.3125 -8.60971,-8.40782 -17.17912,-16.86427 -25.75,-25.3125 0.21518,1.622436 0.40852,3.255067 0.625,4.875 0.57895,5.52494 3.59435,18.29551 -0.65625,19.59375 -4.59042,-5.32068 -9.57619,-15.6747 -16.625,-15.46875 -1.57771,10.23132 5.5608,18.97801 7.875,28.59375 4.11548,13.19059 11.98439,25.31528 12,39.5625 0.53283,14.18293 -1.01169,30.28021 -11.0625,41.15625 -9.64051,6.78069 -19.6908,-4.02519 -25.5,-11.09375 -10.7792,-11.656 -14.93755,-27.34582 -22.1875,-41.125 -12.89518,-28.1212 -24.64809,-56.76658 -37.625,-84.84375 -4.07766,-7.05761 -6.98932,-17.82879 -15.5625,-20.34375 z"
         style="font-size:medium;font-style:normal;font-variant:normal;font-weight:normal;font-stretch:normal;text-indent:0;text-align:start;text-decoration:none;line-height:normal;letter-spacing:normal;word-spacing:normal;text-transform:none;direction:ltr;block-progression:tb;writing-mode:lr-tb;text-anchor:start;baseline-shift:baseline;color:#000000;fill:#ff0000;fill-opacity:1;stroke:none;stroke-width:1;marker:none;visibility:visible;display:inline;overflow:visible;enable-background:accumulate;font-family:Sans;-inkscape-font-specification:Sans" />
      <path
         id="path5149"
         transform="translate(110.14051,432.36218)"
         d="M 272.90625 85.59375 C 271.9733 90.213177 270.28722 94.645181 269.03125 99.1875 C 268.7811 100.11718 268.12607 101.14557 269.15625 101.8125 C 272.86828 106.11258 276.17 110.85148 280.5625 114.5 C 283.67481 115.45227 281.82207 110.00582 282.03125 108.21875 C 281.45 103.02128 280.75455 97.840678 280.0625 92.65625 C 277.67621 90.303422 275.29126 87.947924 272.90625 85.59375 z "
         style="font-size:medium;font-style:normal;font-variant:normal;font-weight:normal;font-stretch:normal;text-indent:0;text-align:start;text-decoration:none;line-height:normal;letter-spacing:normal;word-spacing:normal;text-transform:none;direction:ltr;block-progression:tb;writing-mode:lr-tb;text-anchor:start;baseline-shift:baseline;color:#000000;fill:#ffff00;fill-opacity:1;stroke:none;stroke-width:1;marker:none;visibility:visible;display:inline;overflow:visible;enable-background:accumulate;font-family:Sans;-inkscape-font-specification:Sans" />
      <path
         inkscape:connector-curvature="0"
         id="path5137"
         d="m 294.85906,493.53576 c -3.10056,4.43334 6.22708,12.97935 7.01813,18.22175 16.53895,35.84798 30.76409,72.78295 48.92897,107.86787 5.64807,9.96587 11.72758,21.49568 23.1134,25.70972 7.77355,2.03017 13.70901,-5.28524 15.77593,-11.9423 5.52898,-16.31632 6.11663,-34.85099 -0.88599,-50.83464 -6.18201,-15.29522 -12.69512,-30.54886 -16.5578,-46.63644 -7.88605,1.74572 -15.68583,5.46753 -23.8968,4.36373 -9.01714,-2.44466 -13.79645,-23.75877 -20.83079,-31.10166 -7.03435,-7.34289 -19.84292,-26.2506 -32.66505,-15.64803 z"
         style="font-size:medium;font-style:normal;font-variant:normal;font-weight:normal;font-stretch:normal;text-indent:0;text-align:start;text-decoration:none;line-height:normal;letter-spacing:normal;word-spacing:normal;text-transform:none;direction:ltr;block-progression:tb;writing-mode:lr-tb;text-anchor:start;baseline-shift:baseline;color:#000000;fill:#ffff00;fill-opacity:1;stroke:none;stroke-width:1;marker:none;visibility:visible;display:inline;overflow:visible;enable-background:accumulate;font-family:Sans;-inkscape-font-specification:Sans"
         sodipodi:nodetypes="cccccccczc" />
      <path
         style="font-size:medium;font-style:normal;font-variant:normal;font-weight:normal;font-stretch:normal;text-indent:0;text-align:start;text-decoration:none;line-height:normal;letter-spacing:normal;word-spacing:normal;text-transform:none;direction:ltr;block-progression:tb;writing-mode:lr-tb;text-anchor:start;baseline-shift:baseline;color:#000000;fill:none;stroke:#7d7d7d;stroke-width:3;stroke-miterlimit:4;stroke-opacity:1;stroke-dasharray:none;marker:none;visibility:visible;display:inline;overflow:visible;enable-background:accumulate;font-family:Sans;-inkscape-font-specification:Sans"
         d="M 297.01432,433.86218 C 235.619,496.55597 173.52825,558.56294 111.64051,620.76942 c 44.32058,40.99242 101.04303,70.07915 161.3149,77.22676 32.10326,2.45195 64.90219,1.61881 95.7038,-8.68638 44.24627,-13.30943 85.1922,-37.13909 119.70028,-67.57463 C 465.46028,597.81876 440.75915,575.30031 417.36364,551.7269 377.19203,512.49726 337.61712,472.64715 297.01432,433.86218 z"
         id="path5037-7"
         inkscape:connector-curvature="0" />
    </g>
  </g>
</svg>
