<?xml version="1.0" encoding="UTF-8" standalone="no"?>
<!-- Created with Inkscape (http://www.inkscape.org/) -->

<svg
   xmlns:dc="http://purl.org/dc/elements/1.1/"
   xmlns:cc="http://creativecommons.org/ns#"
   xmlns:rdf="http://www.w3.org/1999/02/22-rdf-syntax-ns#"
   xmlns:svg="http://www.w3.org/2000/svg"
   xmlns="http://www.w3.org/2000/svg"
   xmlns:sodipodi="http://sodipodi.sourceforge.net/DTD/sodipodi-0.dtd"
   xmlns:inkscape="http://www.inkscape.org/namespaces/inkscape"
   width="379.71899"
   height="268.28757"
   id="svg3288"
   version="1.1"
   inkscape:version="0.48.4 r9939"
   sodipodi:docname="TGRVI.svg">
  <defs
     id="defs3290" />
  <sodipodi:namedview
     id="base"
     pagecolor="#ffffff"
     bordercolor="#666666"
     borderopacity="1.0"
     inkscape:pageopacity="0.0"
     inkscape:pageshadow="2"
     inkscape:zoom="1.86"
     inkscape:cx="207.66976"
     inkscape:cy="83.748435"
     inkscape:document-units="px"
     inkscape:current-layer="layer1"
     showgrid="true"
     inkscape:snap-bbox="true"
     inkscape:bbox-nodes="true"
     inkscape:bbox-paths="true"
     inkscape:snap-bbox-edge-midpoints="true"
     inkscape:snap-bbox-midpoints="true"
     fit-margin-top="0"
     fit-margin-left="0"
     fit-margin-right="0"
     fit-margin-bottom="0"
     inkscape:window-width="1231"
     inkscape:window-height="776"
     inkscape:window-x="49"
     inkscape:window-y="24"
     inkscape:window-maximized="1"
     inkscape:snap-global="false">
    <inkscape:grid
       type="xygrid"
       id="grid3345"
       empspacing="5"
       visible="true"
       enabled="true"
       snapvisiblegridlinesonly="true"
       originx="-110.14051px"
       originy="-351.71243px" />
  </sodipodi:namedview>
  <metadata
     id="metadata3293">
    <rdf:RDF>
      <cc:Work
         rdf:about="">
        <dc:format>image/svg+xml</dc:format>
        <dc:type
           rdf:resource="http://purl.org/dc/dcmitype/StillImage" />
        <dc:title></dc:title>
      </cc:Work>
    </rdf:RDF>
  </metadata>
  <g
     inkscape:label="Layer 1"
     inkscape:groupmode="layer"
     id="layer1"
     transform="translate(-110.14051,-432.36218)">
    <g
       id="g3142">
      <path
         style="font-size:medium;font-style:normal;font-variant:normal;font-weight:normal;font-stretch:normal;text-indent:0;text-align:start;text-decoration:none;line-height:normal;letter-spacing:normal;word-spacing:normal;text-transform:none;direction:ltr;block-progression:tb;writing-mode:lr-tb;text-anchor:start;baseline-shift:baseline;color:#000000;fill:#ffffff;stroke:#7d7d7d;stroke-width:3;stroke-miterlimit:4;stroke-opacity:1;stroke-dasharray:none;marker:none;visibility:visible;display:inline;overflow:visible;enable-background:accumulate;font-family:Sans;-inkscape-font-specification:Sans;fill-opacity:1"
         d="M 297.01432,433.86218 C 235.619,496.55597 173.52825,558.56294 111.64051,620.76942 c 44.32058,40.99242 101.04303,70.07915 161.3149,77.22676 32.10326,2.45195 64.90219,1.61881 95.7038,-8.68638 44.24627,-13.30943 85.1922,-37.13909 119.70028,-67.57463 C 465.46028,597.81876 440.75915,575.30031 417.36364,551.7269 377.19203,512.49726 337.61712,472.64715 297.01432,433.86218 z"
         id="path5037-7"
         inkscape:connector-curvature="0" />
      <g
         id="g3106">
        <path
           style="font-size:medium;font-style:normal;font-variant:normal;font-weight:normal;font-stretch:normal;text-indent:0;text-align:start;text-decoration:none;line-height:normal;letter-spacing:normal;word-spacing:normal;text-transform:none;direction:ltr;block-progression:tb;writing-mode:lr-tb;text-anchor:start;baseline-shift:baseline;color:#000000;fill:#969696;fill-opacity:1;stroke:none;stroke-width:2;marker:none;visibility:visible;display:inline;overflow:visible;enable-background:accumulate;font-family:Sans;-inkscape-font-specification:Sans"
           d="m 147.40625,41.625 c -46.89084,47.49091 -79.562246,78.56546 -126.640121,125.87097 10.106559,8.37072 7.180085,4.0044 27.335349,24.55679 28.627072,29.19111 47.720242,35.42974 81.523522,46.32224 19.34612,6.23394 46.47,2.26473 61.125,-0.0312 16.60996,24.08032 29.06521,19.75135 38.0625,19.96875 95.34297,-5.09626 99.31403,-51.07584 90.875,-126.625 -4.17566,-4.09128 -8.35688,-8.16936 -12.46875,-12.3125 -17.80428,-17.38684 -35.47621,-34.922499 -53.1875,-52.4063 -8.42321,-0.687519 -12.84215,6.501301 -25.81064,-1.69003 C 220.62482,50.091465 167.76741,41.664592 147.40625,41.625 z"
           transform="translate(110.14051,432.36218)"
           id="path5369"
           inkscape:connector-curvature="0"
           sodipodi:nodetypes="ccssccccccc" />
      </g>
      <path
         sodipodi:nodetypes="cczcccsccccsscccc"
         inkscape:connector-curvature="0"
         id="path4983-8"
         transform="translate(110.14051,432.36218)"
         d="M 228.1875,70.625 C 227.47927,87.536619 239.18288,86.090813 217.46371,98.537634 203.5686,112.47424 204.81074,121.42614 153.8041,119.07359 102.79746,116.72104 111.41884,103.67178 102.91835,87.056788 79.132686,111.00454 63.904935,126.32416 40.082997,150.23589 c 10.209454,6.00828 10.189264,7.17618 18.248321,6.73286 15.865039,-6.86362 8.989084,-7.51824 13.739919,-8.78394 5.86193,-1.56171 6.352901,1.39909 25.923051,3.51848 16.245472,-1.36565 28.915532,-8.47122 47.562502,-4.0084 25.69621,6.07184 31.88767,28.30332 42.09946,39.30511 18.10042,3.59757 14.51158,25.00854 8.40625,43.09375 1.34199,11.80992 6.27494,23.70126 30.78125,23.84375 24.50632,0.14249 70.49182,-6.62437 83.28125,-33.65625 11.80062,-24.94192 7.51418,-69.73578 4.53125,-93.5 -2.48826,-2.46115 -4.97455,-4.92458 -7.4375,-7.40625 C 291.68016,104.20077 276.2353,88.918594 260.78125,73.65625 250.51591,71.935588 237.17138,71.591348 228.1875,70.625 z"
         style="font-size:medium;font-style:normal;font-variant:normal;font-weight:normal;font-stretch:normal;text-indent:0;text-align:start;text-decoration:none;line-height:normal;letter-spacing:normal;word-spacing:normal;text-transform:none;direction:ltr;block-progression:tb;writing-mode:lr-tb;text-anchor:start;baseline-shift:baseline;color:#000000;fill:#ffff00;fill-opacity:1;stroke:none;stroke-width:1;marker:none;visibility:visible;display:inline;overflow:visible;enable-background:accumulate;font-family:Sans;-inkscape-font-specification:Sans" />
      <path
         sodipodi:nodetypes="ccccssscccccccccsccc"
         inkscape:connector-curvature="0"
         id="path4941-6"
         transform="translate(110.14051,432.36218)"
         d="m 144.63004,44.36996 c -15.13579,15.335065 -25.47689,25.780516 -40.66129,41.06754 1.59279,1.335531 3.28145,10.641475 5.1875,11.752016 5.97191,15.668514 10.79948,11.947624 13.47816,10.845764 -2.75803,-17.080667 -1.01343,-48.315202 22.27318,-50.361893 23.81125,-2.092802 49.16272,2.649083 59.35383,10.931116 13.22401,10.746771 16.68784,22.124815 18.61929,21.050067 8.24649,-4.588733 -1.18432,-28.468766 -7.44892,-32.005376 C 192.46292,47.298737 171.6864,45.179451 144.63004,44.36996 z M 37.101479,151.6045 c -6.431085,6.45556 -5.325571,6.46559 -11.754369,12.92339 6.329208,6.12793 21.507331,20.53608 31.658266,31.53394 26.344999,22.96091 41.613364,31.41478 75.400874,39.78192 18.56786,5.92847 37.92834,2.70237 55,-1.8125 1.47696,-0.8542 20.75909,-24.10292 7.25706,-41.86593 -11.78196,-6.30838 -9.10559,32.11498 -27.58031,33.87568 -26.05796,1.13343 -57.96066,-2.45176 -76.812503,-22.0121 -22.163879,-22.99686 -4.630709,-49.54275 -11.659273,-52.07124 -8.66313,-7.74577 -15.757071,8.687 -28.496641,8.32795 -6.937241,-2.96275 -1.957808,-3.86824 -13.013104,-8.68111 z"
         style="font-size:medium;font-style:normal;font-variant:normal;font-weight:normal;font-stretch:normal;text-indent:0;text-align:start;text-decoration:none;line-height:normal;letter-spacing:normal;word-spacing:normal;text-transform:none;direction:ltr;block-progression:tb;writing-mode:lr-tb;text-anchor:start;baseline-shift:baseline;color:#000000;fill:#ff0000;fill-opacity:1;stroke:none;stroke-width:1;marker:none;visibility:visible;display:inline;overflow:visible;enable-background:accumulate;font-family:Sans;-inkscape-font-specification:Sans" />
      <path
         style="font-size:medium;font-style:normal;font-variant:normal;font-weight:normal;font-stretch:normal;text-indent:0;text-align:start;text-decoration:none;line-height:normal;letter-spacing:normal;word-spacing:normal;text-transform:none;direction:ltr;block-progression:tb;writing-mode:lr-tb;text-anchor:start;baseline-shift:baseline;color:#000000;fill:#ffff00;fill-opacity:1;stroke:none;stroke-width:1;marker:none;visibility:visible;display:inline;overflow:visible;enable-background:accumulate;font-family:Sans;-inkscape-font-specification:Sans"
         d="m 290.28057,644.29393 c 4.64978,-19.2375 4.69424,-17.16664 -1.49264,-26.89262 -18.00067,-25.54261 -26.0978,-35.75875 -39.47287,-35.06519 -27.58143,-5.13341 -39.53412,4.95054 -48.65505,5.44146 -14.49133,0.0413 -6.61583,2.32037 -8.98291,25.44267 -2.25607,7.57007 14.69289,32.68454 43.29272,38.9632 33.71676,9.04298 50.68644,0.0871 55.31075,-7.88952 z"
         id="path4935-7"
         inkscape:connector-curvature="0"
         sodipodi:nodetypes="ccccccc" />
      <path
         sodipodi:nodetypes="ccccccccc"
         inkscape:connector-curvature="0"
         id="path4925-2"
         d="m 314.50844,505.11562 c -6.00377,-6.75325 -9.59467,-8.51024 -16.81968,-10.06225 -17.68407,-3.05285 -26.36934,0.38005 -44.17594,-1.69713 -15.62515,2.58395 -19.59925,17.22257 -19.41944,33.00206 0.4291,13.2286 -2.27245,19.98889 11.05091,20.73113 6.70928,0.65353 11.67202,1.49295 18.36599,1.87777 20.68849,4.38428 29.57821,-1.64215 39.6212,-4.45706 10.22465,-0.89995 19.58139,-12.87298 23.73412,-19.53688 -3.42818,-15.50652 -6.1077,-12.45488 -12.35716,-19.85764 z"
         style="font-size:medium;font-style:normal;font-variant:normal;font-weight:normal;font-stretch:normal;text-indent:0;text-align:start;text-decoration:none;line-height:normal;letter-spacing:normal;word-spacing:normal;text-transform:none;direction:ltr;block-progression:tb;writing-mode:lr-tb;text-anchor:start;baseline-shift:baseline;color:#000000;fill:#ffff00;fill-opacity:1;stroke:none;stroke-width:1;marker:none;visibility:visible;display:inline;overflow:visible;enable-background:accumulate;font-family:Sans;-inkscape-font-specification:Sans" />
    </g>
    <g
       id="g3957">
      <path
         inkscape:connector-curvature="0"
         id="path5037-7-3"
         d="M 297.01432,433.86218 C 235.619,496.55597 173.52825,558.56294 111.64051,620.76942 c 44.32058,40.99242 101.04303,70.07915 161.3149,77.22676 32.10326,2.45195 64.90219,1.61881 95.7038,-8.68638 44.24627,-13.30943 85.1922,-37.13909 119.70028,-67.57463 C 465.46028,597.81876 440.75915,575.30031 417.36364,551.7269 377.19203,512.49726 337.61712,472.64715 297.01432,433.86218 z"
         style="font-size:medium;font-style:normal;font-variant:normal;font-weight:normal;font-stretch:normal;text-indent:0;text-align:start;text-decoration:none;line-height:normal;letter-spacing:normal;word-spacing:normal;text-transform:none;direction:ltr;block-progression:tb;writing-mode:lr-tb;text-anchor:start;baseline-shift:baseline;color:#000000;fill:none;stroke:#7d7d7d;stroke-width:3;stroke-miterlimit:4;stroke-opacity:1;stroke-dasharray:none;marker:none;visibility:visible;display:inline;overflow:visible;enable-background:accumulate;font-family:Sans;-inkscape-font-specification:Sans" />
    </g>
  </g>
</svg>
