<?xml version="1.0" encoding="UTF-8" standalone="no"?>
<!-- Created with Inkscape (http://www.inkscape.org/) -->

<svg
   xmlns:dc="http://purl.org/dc/elements/1.1/"
   xmlns:cc="http://creativecommons.org/ns#"
   xmlns:rdf="http://www.w3.org/1999/02/22-rdf-syntax-ns#"
   xmlns:svg="http://www.w3.org/2000/svg"
   xmlns="http://www.w3.org/2000/svg"
   xmlns:sodipodi="http://sodipodi.sourceforge.net/DTD/sodipodi-0.dtd"
   xmlns:inkscape="http://www.inkscape.org/namespaces/inkscape"
   width="379.71899"
   height="268.28757"
   id="svg3288"
   version="1.1"
   inkscape:version="0.48.4 r9939"
   sodipodi:docname="TGSaxMid.svg">
  <defs
     id="defs3290" />
  <sodipodi:namedview
     id="base"
     pagecolor="#ffffff"
     bordercolor="#666666"
     borderopacity="1.0"
     inkscape:pageopacity="0.0"
     inkscape:pageshadow="2"
     inkscape:zoom="1.2316035"
     inkscape:cx="193.80887"
     inkscape:cy="63.669214"
     inkscape:document-units="px"
     inkscape:current-layer="layer1"
     showgrid="true"
     inkscape:snap-bbox="false"
     inkscape:bbox-nodes="false"
     inkscape:bbox-paths="true"
     inkscape:snap-bbox-edge-midpoints="false"
     inkscape:snap-bbox-midpoints="false"
     fit-margin-top="0"
     fit-margin-left="0"
     fit-margin-right="0"
     fit-margin-bottom="0"
     inkscape:window-width="1237"
     inkscape:window-height="776"
     inkscape:window-x="43"
     inkscape:window-y="24"
     inkscape:window-maximized="1"
     inkscape:snap-global="true"
     inkscape:object-nodes="true"
     inkscape:snap-grids="false">
    <inkscape:grid
       type="xygrid"
       id="grid3345"
       empspacing="5"
       visible="true"
       enabled="true"
       snapvisiblegridlinesonly="true"
       originx="-113.12619px"
       originy="-353.21242px" />
    <sodipodi:guide
       position="-2.98568,76.787579"
       orientation="0,379.71899"
       id="guide6164" />
    <sodipodi:guide
       position="376.73331,-1.4999908"
       orientation="-268.28757,0"
       id="guide6166" />
    <sodipodi:guide
       position="376.73331,266.78758"
       orientation="0,-379.71899"
       id="guide6168" />
    <sodipodi:guide
       position="186.87381,276.78758"
       orientation="268.28757,0"
       id="guide6170" />
  </sodipodi:namedview>
  <metadata
     id="metadata3293">
    <rdf:RDF>
      <cc:Work
         rdf:about="">
        <dc:format>image/svg+xml</dc:format>
        <dc:type
           rdf:resource="http://purl.org/dc/dcmitype/StillImage" />
        <dc:title />
      </cc:Work>
    </rdf:RDF>
  </metadata>
  <g
     inkscape:label="Layer 1"
     inkscape:groupmode="layer"
     id="layer1"
     transform="translate(-113.12619,-430.86218)">
    <path
       inkscape:connector-curvature="0"
       id="path5037-7-7"
       d="m 300,432.36218 c -61.39532,62.69379 -123.48607,124.70076 -185.37381,186.90724 44.32058,40.99242 101.04303,70.07915 161.3149,77.22676 32.10326,2.45195 64.90219,1.61881 95.7038,-8.68638 44.24627,-13.30943 85.1922,-37.13909 119.70028,-67.57463 C 468.44596,596.31876 443.74483,573.80031 420.34932,550.2269 380.17771,510.99726 340.6028,471.14715 300,432.36218 z"
       style="font-size:medium;font-style:normal;font-variant:normal;font-weight:normal;font-stretch:normal;text-indent:0;text-align:start;text-decoration:none;line-height:normal;letter-spacing:normal;word-spacing:normal;text-transform:none;direction:ltr;block-progression:tb;writing-mode:lr-tb;text-anchor:start;baseline-shift:baseline;color:#000000;fill:#ffffff;stroke:#7d7d7d;stroke-width:3;stroke-miterlimit:4;stroke-opacity:1;stroke-dasharray:none;marker:none;visibility:visible;display:inline;overflow:visible;enable-background:accumulate;font-family:Sans;-inkscape-font-specification:Sans;fill-opacity:1" />
    <path
       style="font-size:medium;font-style:normal;font-variant:normal;font-weight:normal;font-stretch:normal;text-indent:0;text-align:start;text-decoration:none;line-height:normal;letter-spacing:normal;word-spacing:normal;text-transform:none;direction:ltr;block-progression:tb;writing-mode:lr-tb;text-anchor:start;baseline-shift:baseline;color:#000000;fill:#ff0000;fill-opacity:1;stroke:none;stroke-width:1;marker:none;visibility:visible;display:inline;overflow:visible;enable-background:accumulate;font-family:Sans;-inkscape-font-specification:Sans"
       d="m 287.45301,475.36218 c -10.55848,0.12932 -21.33781,2.30979 -37.75,8.0625 -4.00954,4.0536 -8.01815,8.10617 -12.03125,12.15625 10.01937,-3.2823 34.80808,-4.82563 21.875,0.46875 -22.51469,11.08675 -38.68371,35.15488 -40.59375,45.46875 -2.78729,14.66537 -1.82007,33.03662 0.15625,47.90625 1.57239,7.31855 7.18876,13.82385 9.0625,20.3125 -10.2023,-4.22249 -16.51931,-13.88135 -21.65625,-25.71875 -5.13694,-11.8374 -2.38364,-44.00596 2.375,-54.1875 1.72398,-3.68862 4.69856,-8.55498 8.125,-13.4375 -10.47079,10.54148 -20.95431,21.06455 -31.4375,31.59375 -2.40013,11.46731 -1.53371,21.67204 0.125,30.125 2.85352,14.54181 9.22279,30.84378 23.90625,40.09375 17.47352,15.5911 40.8024,31.05859 59.5,35.15625 10.62953,3.36759 22.2344,1.29361 33.5,1.75 6.89717,0.90147 15.6828,0.92129 21.15625,0.28125 8.31284,0.52949 16.06142,-3.69089 23.5,-5.1875 9.13773,-2.84061 14.91195,-9.90963 22.3125,-13.9375 17.83692,-17.83008 29.80346,-49.53608 29.96875,-67.4375 0.16529,-17.90142 -4.72202,-31.79522 -16.6875,-48.84375 -11.96547,-17.04853 -20.50648,-24.63286 -36,-32.8125 -15.49352,-8.17964 -37.04092,-10.52664 -51.4375,-11.5625 -2.69936,-0.19423 -5.33847,-0.28222 -7.96875,-0.25 z"
       id="path5273"
       inkscape:connector-curvature="0" />
    <path
       sodipodi:nodetypes="cczccccccczcsczcc"
       inkscape:connector-curvature="0"
       id="path5249"
       d="m 330.97317,509.64316 c -19.0919,-4.78525 -15.37322,0.0375 -14.34391,7.34687 0,0 2.24367,11.99843 -8.02121,18.99415 -10.26489,6.99574 -16.16524,1.24462 -22.02103,-5.73131 -5.26046,-9.2187 -0.16595,-12.15509 -2.62321,-20.57988 -8.14381,0.45305 1.67816,-1.13288 -5.95132,1.53049 -13.23566,5.18036 -22.02414,17.75419 -27.26093,30.47868 -4.86913,13.08678 -8.19659,27.70191 -4.59789,41.51902 5.34053,17.94416 19.91026,32.86825 37.41517,39.22869 18.44424,6.15757 41.94595,7.34077 54.48044,-1.87678 1.81337,-3.47461 -3.48049,-3.49383 -9.47834,-5.76276 -5.99784,-2.26894 -13.8288,-9.15075 -12.34509,-27.45892 2.39243,-10.46074 18.59339,-15.96605 27.4714,-13.17322 8.87802,2.79283 16.48922,13.56699 20.55269,17.75744 5.90661,-9.23023 3.9561,-16.52642 5.00325,-34.37527 1.04716,-17.84885 -15.76781,-34.73689 -26.04059,-41.16861 -3.81895,-2.62974 -7.71797,-5.47396 -12.23943,-6.72859 z"
       style="font-size:medium;font-style:normal;font-variant:normal;font-weight:normal;font-stretch:normal;text-indent:0;text-align:start;text-decoration:none;line-height:normal;letter-spacing:normal;word-spacing:normal;text-transform:none;direction:ltr;block-progression:tb;writing-mode:lr-tb;text-anchor:start;baseline-shift:baseline;color:#000000;fill:#ffff00;fill-opacity:1;stroke:none;stroke-width:1;marker:none;visibility:visible;display:inline;overflow:visible;enable-background:accumulate;font-family:Sans;-inkscape-font-specification:Sans" />
    <path
       style="font-size:medium;font-style:normal;font-variant:normal;font-weight:normal;font-stretch:normal;text-indent:0;text-align:start;text-decoration:none;line-height:normal;letter-spacing:normal;word-spacing:normal;text-transform:none;direction:ltr;block-progression:tb;writing-mode:lr-tb;text-anchor:start;baseline-shift:baseline;color:#000000;fill:#ffff00;fill-opacity:1;stroke:none;stroke-width:1;marker:none;visibility:visible;display:inline;overflow:visible;enable-background:accumulate;font-family:Sans;-inkscape-font-specification:Sans"
       d="m 260.10926,490.04968 c -5.73235,-0.0322 -13.92782,1.55906 -19.96875,3.03125 -12.81998,12.94254 -25.6532,25.86524 -38.5,38.78125 -1.21998,3.43726 -2.10143,7.27103 -3.03125,12 -2.72211,13.8445 -8.08586,18.04496 -3,34.9375 5.08585,16.89254 42.04943,52.47568 59.84375,58 4.98719,0.21618 -21.33612,-26.74022 -25.625,-36.375 -3.76793,-4.24286 -10.5997,-12.65676 -9,-37.09375 1.5997,-24.43699 6.87657,-38.09629 19.71875,-50.40625 12.84217,-12.30997 16.58878,-12.45097 26.1875,-19.90625 0.0927,-2.16063 -2.66141,-2.94647 -6.625,-2.96875 z"
       id="path5147-5"
       inkscape:connector-curvature="0" />
  </g>
</svg>
