<?xml version="1.0" encoding="UTF-8" standalone="no"?>
<!-- Created with Inkscape (http://www.inkscape.org/) -->

<svg
   xmlns:dc="http://purl.org/dc/elements/1.1/"
   xmlns:cc="http://creativecommons.org/ns#"
   xmlns:rdf="http://www.w3.org/1999/02/22-rdf-syntax-ns#"
   xmlns:svg="http://www.w3.org/2000/svg"
   xmlns="http://www.w3.org/2000/svg"
   xmlns:sodipodi="http://sodipodi.sourceforge.net/DTD/sodipodi-0.dtd"
   xmlns:inkscape="http://www.inkscape.org/namespaces/inkscape"
   width="379.71899"
   height="268.28757"
   id="svg3288"
   version="1.1"
   inkscape:version="0.48.4 r9939"
   sodipodi:docname="ME2C-MV Zoom.svg">
  <defs
     id="defs3290" />
  <sodipodi:namedview
     id="base"
     pagecolor="#ffffff"
     bordercolor="#666666"
     borderopacity="1.0"
     inkscape:pageopacity="0.0"
     inkscape:pageshadow="2"
     inkscape:zoom="1.8847266"
     inkscape:cx="147.24135"
     inkscape:cy="124.90094"
     inkscape:document-units="px"
     inkscape:current-layer="layer1"
     showgrid="true"
     inkscape:snap-bbox="true"
     inkscape:bbox-nodes="true"
     inkscape:bbox-paths="true"
     inkscape:snap-bbox-edge-midpoints="true"
     inkscape:snap-bbox-midpoints="true"
     fit-margin-top="0"
     fit-margin-left="0"
     fit-margin-right="0"
     fit-margin-bottom="0"
     inkscape:window-width="1231"
     inkscape:window-height="776"
     inkscape:window-x="49"
     inkscape:window-y="24"
     inkscape:window-maximized="1"
     inkscape:snap-global="false">
    <inkscape:grid
       type="xygrid"
       id="grid3345"
       empspacing="5"
       visible="true"
       enabled="true"
       snapvisiblegridlinesonly="true"
       originx="-110.14051px"
       originy="-351.71243px" />
  </sodipodi:namedview>
  <metadata
     id="metadata3293">
    <rdf:RDF>
      <cc:Work
         rdf:about="">
        <dc:format>image/svg+xml</dc:format>
        <dc:type
           rdf:resource="http://purl.org/dc/dcmitype/StillImage" />
        <dc:title></dc:title>
      </cc:Work>
    </rdf:RDF>
  </metadata>
  <g
     inkscape:label="Layer 1"
     inkscape:groupmode="layer"
     id="layer1"
     transform="translate(-110.14051,-432.36218)">
    <g
       id="g9225">
      <g
         inkscape:label="Layer 1"
         id="layer1-6"
         transform="matrix(1.5,0,0,1.5,-401.56102,38.053764)"
         style="stroke:none">
        <path
           id="path5365"
           transform="matrix(0.66666667,0,0,0.66666667,341.13435,262.87228)"
           d="M 186.875 1.5 C 157.8421 31.146922 128.65516 60.629025 99.40625 90.0625 C 100.1563 92.493039 101.82522 100.12797 98.28125 113.625 C 91.201685 137.4731 89.646745 162.57344 91.28125 187.46875 C 91.051999 209.38668 95.637476 230.43867 102.34375 250.9375 C 121.84383 258.15888 142.11707 263.17074 162.8125 265.625 C 194.91576 268.07695 227.72964 267.24269 258.53125 256.9375 C 263.46725 255.45273 268.338 253.83493 273.1875 252.09375 C 284.46972 216.70389 290.28344 179.59705 282.84375 143 C 272.92971 118.8525 297.07062 145.4236 300.1875 153.0625 C 310.69331 179.70193 318.50225 131.27409 318.53125 131.09375 C 318.0178 130.65252 309.12596 121.96683 253.96875 66.90625 C 231.73913 44.962296 209.46112 23.074912 186.875 1.5 z "
           style="font-size:medium;font-style:normal;font-variant:normal;font-weight:normal;font-stretch:normal;text-indent:0;text-align:start;text-decoration:none;line-height:normal;letter-spacing:normal;word-spacing:normal;text-transform:none;direction:ltr;block-progression:tb;writing-mode:lr-tb;text-anchor:start;baseline-shift:baseline;color:#000000;fill:#969696;fill-opacity:1;stroke:none;stroke-width:1;marker:none;visibility:visible;display:inline;overflow:visible;enable-background:accumulate;font-family:Sans;-inkscape-font-specification:Sans" />
        <path
           style="font-size:medium;font-style:normal;font-variant:normal;font-weight:normal;font-stretch:normal;text-indent:0;text-align:start;text-decoration:none;line-height:normal;letter-spacing:normal;word-spacing:normal;text-transform:none;direction:ltr;block-progression:tb;writing-mode:lr-tb;text-anchor:start;baseline-shift:baseline;color:#000000;fill:#ffffff;fill-opacity:1;stroke:none;stroke-width:1;marker:none;visibility:visible;display:inline;overflow:visible;enable-background:accumulate;font-family:Sans;-inkscape-font-specification:Sans"
           d="m 466.82519,265.11699 -0.3438,0.34385 -7.3125,7.21875 c -3.6229,3.57792 -5.908,6.12333 -6.875,7.71875 -0.2418,0.39885 -0.3941,0.7317 -0.4687,1.0625 -0.075,0.3308 -0.048,0.75016 0.25,1 0.2982,0.24984 0.671,0.26645 1.0312,0.21875 0.3602,-0.0477 0.756,-0.18544 1.25,-0.375 0.1897,-0.0728 0.7903,-0.20626 1.5938,-0.375 0.8034,-0.16874 1.8255,-0.38205 3.0312,-0.59375 2.4114,-0.4234 5.4979,-0.90629 8.625,-1.34375 l 11.375,-1.59375 1,-0.125 -0.7188,-0.71875 -6.0312,-6.0625 -6.0625,-6.03125 -0.3437,-0.34375 z"
           id="path5355"
           inkscape:connector-curvature="0" />
        <path
           id="path5201"
           transform="matrix(0.66666667,0,0,0.66666667,341.13435,262.87228)"
           d="M 263.625 114.40625 C 248.82465 120.14187 254.67137 138.80793 255.03125 150.9375 C 258.01876 185.61649 252.38007 220.44881 241.96875 253.5 C 241.13081 256.37337 240.26138 259.25063 239.34375 262.125 C 245.80374 260.75516 252.21598 259.05038 258.53125 256.9375 C 262.94511 255.6098 267.31119 254.18945 271.65625 252.65625 C 275.63775 239.18689 278.84909 225.48802 281.46875 211.78125 C 286.85913 181.41609 288.28272 147.36662 270.46875 120.625 C 268.52874 118.22435 266.23998 116.05871 263.625 114.40625 z M 104.1875 124.34375 C 97.3893 124.51746 90.020964 130.94777 94.125 139.71875 C 89.786973 177.1115 92.638544 215.46629 103.78125 251.4375 C 113.65858 255.03432 123.71385 258.0753 133.9375 260.5 C 133.91352 244.88255 141.62601 229.69329 145.71875 214.8125 C 148.50573 208.01553 152.04196 190.99278 139.34375 197.71875 C 132.35384 205.01648 118.14868 209.15824 119.59375 194.0625 C 117.80525 174.09082 123.30829 152.62039 113.46875 134.03125 C 113.2335 127.03955 108.8389 124.2249 104.1875 124.34375 z "
           style="font-size:medium;font-style:normal;font-variant:normal;font-weight:normal;font-stretch:normal;text-indent:0;text-align:start;text-decoration:none;line-height:normal;letter-spacing:normal;word-spacing:normal;text-transform:none;direction:ltr;block-progression:tb;writing-mode:lr-tb;text-anchor:start;baseline-shift:baseline;color:#000000;fill:#ff0000;fill-opacity:1;stroke:none;stroke-width:1;marker:none;visibility:visible;display:inline;overflow:visible;enable-background:accumulate;font-family:Sans;-inkscape-font-specification:Sans" />
        <path
           style="font-size:medium;font-style:normal;font-variant:normal;font-weight:normal;font-stretch:normal;text-indent:0;text-align:start;text-decoration:none;line-height:normal;letter-spacing:normal;word-spacing:normal;text-transform:none;direction:ltr;block-progression:tb;writing-mode:lr-tb;text-anchor:start;baseline-shift:baseline;color:#000000;fill:none;stroke:none;stroke-width:1;marker:none;visibility:visible;display:inline;overflow:visible;enable-background:accumulate;font-family:Sans;-inkscape-font-specification:Sans"
           d="m 512.32519,343.64829 c 0.061,0.0172 0.099,0.0937 0.1562,0.0937 0,0 -0.035,0.006 -0.094,-0.0312 -0.025,-0.0166 -0.043,-0.0384 -0.062,-0.0625 z"
           id="path5185"
           inkscape:connector-curvature="0" />
        <path
           id="path5181"
           transform="matrix(0.66666667,0,0,0.66666667,341.13435,262.87228)"
           d="M 250.15625 121.5 C 249.78256 121.5213 249.33187 121.61313 248.8125 121.78125 C 247.2819 121.78114 245.74631 121.78161 244.21875 121.78125 C 229.06875 122.63354 218.11829 135.17658 209.21875 146.1875 C 201.14623 157.41 193.2655 168.93002 186.96875 181.21875 C 182.46007 190.0179 178.42807 201.64863 166.09375 200.90625 C 161.25958 201.033 156.41895 200.49213 151.59375 200.25 C 147.08355 216.2832 141.20209 231.89987 136.75 247.9375 C 135.60804 252.06385 134.79044 256.3641 134.625 260.65625 C 143.90741 262.83135 153.31939 264.49922 162.8125 265.625 C 187.70762 267.52641 213.02402 267.43477 237.5 262.5 C 244.88861 240.85785 249.81823 218.32594 253.03125 195.71875 C 256.2885 172.84669 251.65286 149.93134 252.09375 127 C 252.08456 124.50193 252.77209 121.35089 250.15625 121.5 z "
           style="font-size:medium;font-style:normal;font-variant:normal;font-weight:normal;font-stretch:normal;text-indent:0;text-align:start;text-decoration:none;line-height:normal;letter-spacing:normal;word-spacing:normal;text-transform:none;direction:ltr;block-progression:tb;writing-mode:lr-tb;text-anchor:start;baseline-shift:baseline;color:#000000;fill:#ffff00;fill-opacity:1;stroke:none;stroke-width:1;marker:none;visibility:visible;display:inline;overflow:visible;enable-background:accumulate;font-family:Sans;-inkscape-font-specification:Sans" />
        <path
           inkscape:connector-curvature="0"
           id="path5177"
           d="m 421.26259,344.27329 c -2.36377,-0.0487 -4.5986,0.82882 -6.875,1.3438 2.62476,5.26324 5.68138,10.47114 6.43859,16.41027 1.67723,10.95579 -0.58373,22.13126 1.35022,33.05767 0.36051,1.94031 1.44817,4.70531 3.88312,4.38989 3.77292,-0.86692 5.74354,-4.6356 8.78595,-6.70821 1.74075,-1.74586 4.4767,-1.02846 6.24279,-2.71988 3.00109,-2.29468 4.63178,-6.56691 3.01979,-10.14466 -1.40148,-4.2177 -4.65457,-7.44305 -6.27629,-11.55844 -2.29834,-4.63943 -2.73758,-9.93164 -5.08707,-14.55309 -2.14153,-4.60046 -5.96383,-9.3781 -11.4821,-9.51735 z"
           style="font-size:medium;font-style:normal;font-variant:normal;font-weight:normal;font-stretch:normal;text-indent:0;text-align:start;text-decoration:none;line-height:normal;letter-spacing:normal;word-spacing:normal;text-transform:none;direction:ltr;block-progression:tb;writing-mode:lr-tb;text-anchor:start;baseline-shift:baseline;color:#000000;fill:#ffff00;fill-opacity:1;stroke:none;stroke-width:1;marker:none;visibility:visible;display:inline;overflow:visible;enable-background:accumulate;font-family:Sans;-inkscape-font-specification:Sans" />
      </g>
      <path
         sodipodi:nodetypes="cccczzzzzcszzzccc"
         inkscape:connector-curvature="0"
         id="path5281-7"
         d="m 310.41718,466.49284 c 15.24111,-1.83582 26.31408,10.81389 36.38128,20.2192 24.29174,23.90454 51.82349,50.31288 76.16951,74.16212 3.90531,9.71362 -3.14243,23.28667 -5.10744,26.83627 -5.86014,-11.06248 -14.40395,-27.34915 -24.47621,-35.20752 -10.07226,-7.85836 -14.3239,-12.15006 -30.082,-8.33649 -15.7581,3.81357 -14.95568,1.748 -37.44462,21.22317 -22.48895,19.47519 -27.40191,37.98074 -32.4048,48.58806 -5.00289,10.60733 -9.68564,18.50006 -22.54478,17.06906 -12.85914,-1.43099 -7.29004,-3.14378 -7.29004,-3.14378 0,0 2.92519,-5.78553 3.27156,-12.77325 0.41106,-8.29305 -4.482,-14.6896 -7.01331,-24.23164 -2.53131,-9.54204 -5.2916,-27.33113 -19.83353,-37.15923 -14.54191,-9.82809 -25.91295,2.8402 -25.85191,-5.22654 0.0611,-8.06675 -2.52542,-15.51182 0.75805,-27.37932 13.14195,-15.75869 33.04862,-34.23324 47.46809,-48.78066 16.01577,-1.82406 31.96801,-4.17462 48.00015,-5.85945 z"
         style="font-size:medium;font-style:normal;font-variant:normal;font-weight:normal;font-stretch:normal;text-indent:0;text-align:start;text-decoration:none;line-height:normal;letter-spacing:normal;word-spacing:normal;text-transform:none;direction:ltr;block-progression:tb;writing-mode:lr-tb;text-anchor:start;baseline-shift:baseline;color:#000000;fill:#ffff00;fill-opacity:1;stroke:none;stroke-width:1;marker:none;visibility:visible;display:inline;overflow:visible;enable-background:accumulate;font-family:Sans;-inkscape-font-specification:Sans" />
      <path
         style="font-size:medium;font-style:normal;font-variant:normal;font-weight:normal;font-stretch:normal;text-indent:0;text-align:start;text-decoration:none;line-height:normal;letter-spacing:normal;word-spacing:normal;text-transform:none;direction:ltr;block-progression:tb;writing-mode:lr-tb;text-anchor:start;baseline-shift:baseline;color:#000000;fill:none;stroke:#7d7d7d;stroke-width:3;stroke-miterlimit:4;stroke-opacity:1;stroke-dasharray:none;marker:none;visibility:visible;display:inline;overflow:visible;enable-background:accumulate;font-family:Sans;-inkscape-font-specification:Sans"
         d="M 297.01432,433.86218 C 235.619,496.55597 173.52825,558.56294 111.64051,620.76942 c 44.32058,40.99242 101.04303,70.07915 161.3149,77.22676 32.10326,2.45195 64.90219,1.61881 95.7038,-8.68638 44.24627,-13.30943 85.1922,-37.13909 119.70028,-67.57463 C 465.46028,597.81876 440.75915,575.30031 417.36364,551.7269 377.19203,512.49726 337.61712,472.64715 297.01432,433.86218 z"
         id="path5037-7"
         inkscape:connector-curvature="0" />
    </g>
  </g>
</svg>
