<?xml version="1.0" encoding="UTF-8" standalone="no"?>
<!-- Created with Inkscape (http://www.inkscape.org/) -->

<svg
   xmlns:dc="http://purl.org/dc/elements/1.1/"
   xmlns:cc="http://creativecommons.org/ns#"
   xmlns:rdf="http://www.w3.org/1999/02/22-rdf-syntax-ns#"
   xmlns:svg="http://www.w3.org/2000/svg"
   xmlns="http://www.w3.org/2000/svg"
   xmlns:sodipodi="http://sodipodi.sourceforge.net/DTD/sodipodi-0.dtd"
   xmlns:inkscape="http://www.inkscape.org/namespaces/inkscape"
   width="379.71899"
   height="268.28757"
   id="svg3288"
   version="1.1"
   inkscape:version="0.48.4 r9939"
   sodipodi:docname="ME4C-TV Zoom.svg">
  <defs
     id="defs3290" />
  <sodipodi:namedview
     id="base"
     pagecolor="#ffffff"
     bordercolor="#666666"
     borderopacity="1.0"
     inkscape:pageopacity="0.0"
     inkscape:pageshadow="2"
     inkscape:zoom="2.22"
     inkscape:cx="187.05164"
     inkscape:cy="180.34354"
     inkscape:document-units="px"
     inkscape:current-layer="layer1"
     showgrid="true"
     inkscape:snap-bbox="true"
     inkscape:bbox-nodes="true"
     inkscape:bbox-paths="true"
     inkscape:snap-bbox-edge-midpoints="true"
     inkscape:snap-bbox-midpoints="true"
     fit-margin-top="0"
     fit-margin-left="0"
     fit-margin-right="0"
     fit-margin-bottom="0"
     inkscape:window-width="1231"
     inkscape:window-height="776"
     inkscape:window-x="49"
     inkscape:window-y="24"
     inkscape:window-maximized="1"
     inkscape:snap-global="true"
     inkscape:snap-grids="false"
     inkscape:snap-to-guides="false"
     inkscape:snap-page="true">
    <inkscape:grid
       type="xygrid"
       id="grid3345"
       empspacing="5"
       visible="true"
       enabled="true"
       snapvisiblegridlinesonly="true"
       originx="-110.14051px"
       originy="-351.71243px" />
  </sodipodi:namedview>
  <metadata
     id="metadata3293">
    <rdf:RDF>
      <cc:Work
         rdf:about="">
        <dc:format>image/svg+xml</dc:format>
        <dc:type
           rdf:resource="http://purl.org/dc/dcmitype/StillImage" />
      </cc:Work>
    </rdf:RDF>
  </metadata>
  <g
     inkscape:label="Layer 1"
     inkscape:groupmode="layer"
     id="layer1"
     transform="translate(-110.14051,-432.36218)">
    <g
       id="g10743"
       transform="matrix(0.99887681,0,0,1.0617671,0.50730795,-45.372286)">
      <path
         style="font-size:medium;font-style:normal;font-variant:normal;font-weight:normal;font-stretch:normal;text-indent:0;text-align:start;text-decoration:none;line-height:normal;letter-spacing:normal;word-spacing:normal;text-transform:none;direction:ltr;block-progression:tb;writing-mode:lr-tb;text-anchor:start;baseline-shift:baseline;color:#000000;fill:#ffffff;fill-opacity:1;stroke:#7d7d7d;stroke-width:2.91305208;stroke-miterlimit:4;stroke-opacity:1;stroke-dasharray:none;marker:none;visibility:visible;display:inline;overflow:visible;enable-background:accumulate;font-family:Sans;-inkscape-font-specification:Sans"
         d="m 296.84004,451.35551 c -61.46451,59.04588 -123.62524,117.44484 -185.58272,176.03176 44.37052,38.6072 101.1569,66.00147 161.49669,72.73315 32.13944,2.30931 64.97534,1.52463 95.81165,-8.1809 44.29614,-12.53503 85.28822,-34.9781 119.83519,-63.64269 C 465.47583,605.77201 440.74686,584.56384 417.32498,562.36207 377.1081,525.4151 337.48859,487.88371 296.84004,451.35551 z"
         id="path5037-7-98-3"
         inkscape:connector-curvature="0" />
      <path
         sodipodi:nodetypes="cccccccccc"
         inkscape:connector-curvature="0"
         id="path5369"
         d="m 296.85918,451.33977 c -9.62784,9.24897 -19.21546,18.56374 -28.874,27.78418 l -86.95201,82.57647 c 0,0 16.42514,24.14893 48.40701,47.22589 27.2368,76.23841 94.86711,90.98903 96.29301,91.07416 14.50621,-1.27985 28.9604,-3.68447 42.89852,-8.07138 36.85056,-10.42808 71.33274,-27.8054 101.80149,-49.82527 -1.16943,-12.2695 -3.1881,-24.40856 -5.93979,-36.47645 C 448.81604,591.2008 432.73739,576.94972 417.30503,562.32129 377.08815,525.37432 337.50774,487.86797 296.85918,451.33977 z"
         style="font-size:medium;font-style:normal;font-variant:normal;font-weight:normal;font-stretch:normal;text-indent:0;text-align:start;text-decoration:none;line-height:normal;letter-spacing:normal;word-spacing:normal;text-transform:none;direction:ltr;block-progression:tb;writing-mode:lr-tb;text-anchor:start;baseline-shift:baseline;color:#000000;fill:#969696;fill-opacity:1;stroke:none;stroke-width:2;marker:none;visibility:visible;display:inline;overflow:visible;enable-background:accumulate;font-family:Sans;-inkscape-font-specification:Sans" />
      <path
         sodipodi:nodetypes="ccccccccc"
         inkscape:connector-curvature="0"
         id="path5279-6"
         d="m 296.7598,452.7143 c 0,0 -29.00962,29.9936 -46.2481,43.82225 9.92989,13.89266 25.32463,36.66676 35.30679,50.52654 20.46665,1.66735 32.45845,7.5792 44.16478,11.45813 17.2753,5.01553 22.40493,13.20316 33.8636,23.82331 3.13927,5.06446 9.5672,9.41571 15.83946,6.36398 9.00211,-3.88951 17.35236,-9.20312 25.40912,-14.59058 1.04914,-8.21203 1.64336,-17.21334 -1.97993,-24.99024 C 369.73175,518.27078 296.7598,452.7143 296.7598,452.7143 z"
         style="font-size:medium;font-style:normal;font-variant:normal;font-weight:normal;font-stretch:normal;text-indent:0;text-align:start;text-decoration:none;line-height:normal;letter-spacing:normal;word-spacing:normal;text-transform:none;direction:ltr;block-progression:tb;writing-mode:lr-tb;text-anchor:start;baseline-shift:baseline;color:#000000;fill:#ffff00;fill-opacity:1;stroke:none;stroke-width:1;marker:none;visibility:visible;display:inline;overflow:visible;enable-background:accumulate;font-family:Sans;-inkscape-font-specification:Sans" />
      <path
         sodipodi:nodetypes="ccccccccccccccccccc"
         inkscape:connector-curvature="0"
         id="path5257-9"
         d="m 248.30316,498.29634 c -8.45119,9.15095 -42.62018,41.28103 -62.80509,59.47122 32.05512,48.71235 38.01037,32.24136 47.11471,47.39227 24.28625,4.82832 38.35041,20.2999 49.56191,35.70223 -5.95423,-1.46849 -8.78018,-9.31517 -13.52954,-12.41751 -7.98969,-8.52532 -17.50439,-17.96263 -30.19396,-18.93671 2.95769,6.13619 9.64668,12.44538 13.69453,18.78149 9.55704,14.16451 19.68494,28.45871 34.15383,38.64951 19.50459,14.07436 42.62346,22.88161 66.16272,29.18116 5.40444,-1.17067 10.86945,-2.52279 16.16944,-4.19091 1.22485,-0.3467 2.41014,-0.72484 3.62987,-1.08653 -8.07181,-10.16707 -17.8716,-19.11592 -25.9041,-29.33638 -20.17184,-24.36391 -39.18971,-49.60449 -55.60309,-76.36771 -2.39077,-2.4761 -4.07102,-11.87635 -5.27982,-11.64141 -2.62602,13.12382 3.50131,26.04325 9.56967,37.56297 4.51308,7.89153 3.5361,5.33933 -5.96564,-5.02497 -6.04706,-13.61684 -8.40054,-24.94624 -6.53815,-37.88464 -1.18302,-7.55162 1.99059,-6.07887 -1.02574,-13.12442 -7.19257,-11.22225 -24.4453,-46.5622 -33.21155,-56.72966 z"
         style="font-size:medium;font-style:normal;font-variant:normal;font-weight:normal;font-stretch:normal;text-indent:0;text-align:start;text-decoration:none;line-height:normal;letter-spacing:normal;word-spacing:normal;text-transform:none;direction:ltr;block-progression:tb;writing-mode:lr-tb;text-anchor:start;baseline-shift:baseline;color:#000000;fill:#ffff00;fill-opacity:1;stroke:none;stroke-width:1;marker:none;visibility:visible;display:inline;overflow:visible;enable-background:accumulate;font-family:Sans;-inkscape-font-specification:Sans" />
      <path
         inkscape:connector-curvature="0"
         id="path5169-28"
         d="m 288.27948,550.99031 c -4.78072,9.40528 -0.79707,21.66931 3.95986,30.73335 18.84435,30.44903 39.665,59.81903 63.8528,86.76737 5.79243,7.6475 13.608,13.83877 19.63432,21.26499 9.23649,-2.85901 18.32396,-6.09565 27.22407,-9.77879 -11.15356,-9.38078 -18.92291,-21.82283 -28.70901,-32.44075 -21.55166,-26.12878 -41.89212,-53.09853 -63.52282,-79.16165 -6.33971,-6.3525 -12.3021,-16.85583 -22.43922,-17.38452 z m 129.35554,11.64142 c 0.98855,2.46719 1.97718,4.99035 2.9699,7.45051 2.07164,5.60973 8.65657,18.10175 4.28985,20.4889 -6.45719,-4.41969 -14.69348,-13.88388 -22.43923,-11.95186 0.90446,11.03405 11.1183,18.33913 16.16945,27.78419 7.97016,12.72715 19.88663,23.5131 23.59418,38.33907 1.31008,4.49668 2.26337,9.17108 2.9699,13.9697 7.7468,-4.60749 15.29181,-9.56556 22.60422,-14.7458 -0.81878,-12.96229 -2.39161,-25.87884 -5.93979,-38.49429 -0.20745,-0.93722 -0.4367,-1.86084 -0.65998,-2.79394 -14.51974,-13.3006 -29.295,-26.53856 -43.5585,-40.04648 z m -185.94859,45.78958 c 1.25309,10.24187 10.2335,19.57914 15.17947,29.02594 10.8397,16.62705 23.01688,33.76868 42.07355,42.84042 13.29248,7.86118 27.3767,14.51399 42.23855,19.24714 5.48553,-0.61039 10.91735,-1.29961 16.33444,-2.32828 -30.19483,-9.3109 -60.68757,-21.8804 -81.83718,-44.85827 -4.45926,-8.4445 -13.89725,-14.49079 -15.50947,-22.66196 -6.7515,-6.49162 -10.51457,-16.38903 -18.47936,-21.26499 z"
         style="font-size:medium;font-style:normal;font-variant:normal;font-weight:normal;font-stretch:normal;text-indent:0;text-align:start;text-decoration:none;line-height:normal;letter-spacing:normal;word-spacing:normal;text-transform:none;direction:ltr;block-progression:tb;writing-mode:lr-tb;text-anchor:start;baseline-shift:baseline;color:#000000;fill:#ff0000;fill-opacity:1;stroke:none;stroke-width:1;marker:none;visibility:visible;display:inline;overflow:visible;enable-background:accumulate;font-family:Sans;-inkscape-font-specification:Sans" />
      <path
         inkscape:connector-curvature="0"
         id="path5149-4"
         d="m 405.26045,551.14553 c 0.62911,1.48045 1.16409,3.06664 1.48495,4.65657 0.59238,5.89529 -0.24536,11.79803 -0.49499,17.69496 -0.0359,1.02866 -0.48759,2.19551 0.82497,2.63872 5.22094,3.57137 10.03437,7.8275 15.83946,10.55488 3.69023,0.23296 0.23147,-5.07374 0,-6.98485 -2.43829,-6.4572 -5.03201,-12.83037 -7.58974,-19.24714 -3.36834,-3.09757 -6.70336,-6.20868 -10.06465,-9.31314 z"
         style="font-size:medium;font-style:normal;font-variant:normal;font-weight:normal;font-stretch:normal;text-indent:0;text-align:start;text-decoration:none;line-height:normal;letter-spacing:normal;word-spacing:normal;text-transform:none;direction:ltr;block-progression:tb;writing-mode:lr-tb;text-anchor:start;baseline-shift:baseline;color:#000000;fill:#ffff00;fill-opacity:1;stroke:none;stroke-width:1;marker:none;visibility:visible;display:inline;overflow:visible;enable-background:accumulate;font-family:Sans;-inkscape-font-specification:Sans" />
      <path
         inkscape:connector-curvature="0"
         id="path5137-7"
         d="m 306.42885,555.95732 -1.15496,0.31044 c -2.28229,5.37012 7.99653,10.2579 10.22965,15.52189 27.58472,33.2837 52.98107,68.17816 82.16717,100.27142 2.308,2.35148 4.61095,4.76673 7.09475,7.14007 13.55022,-5.70595 26.6839,-12.29851 39.26865,-19.71281 -1.42034,-12.67102 -5.86958,-24.99253 -14.02452,-35.23469 -10.80178,-14.41425 -21.9181,-28.74361 -30.35895,-44.54783 -8.27338,3.73857 -15.87328,9.54778 -25.24413,10.39967 -10.61017,-0.34719 -17.25077,-9.51157 -24.58415,-15.52189 -11.67571,-9.69431 -26.31753,-16.92179 -41.90856,-18.62627 l -1.48495,0 z"
         style="font-size:medium;font-style:normal;font-variant:normal;font-weight:normal;font-stretch:normal;text-indent:0;text-align:start;text-decoration:none;line-height:normal;letter-spacing:normal;word-spacing:normal;text-transform:none;direction:ltr;block-progression:tb;writing-mode:lr-tb;text-anchor:start;baseline-shift:baseline;color:#000000;fill:#ffff00;fill-opacity:1;stroke:none;stroke-width:1;marker:none;visibility:visible;display:inline;overflow:visible;enable-background:accumulate;font-family:Sans;-inkscape-font-specification:Sans" />
      <path
         style="font-size:medium;font-style:normal;font-variant:normal;font-weight:normal;font-stretch:normal;text-indent:0;text-align:start;text-decoration:none;line-height:normal;letter-spacing:normal;word-spacing:normal;text-transform:none;direction:ltr;block-progression:tb;writing-mode:lr-tb;text-anchor:start;baseline-shift:baseline;color:#000000;fill:none;stroke:#7d7d7d;stroke-width:2.91305208;stroke-miterlimit:4;stroke-opacity:1;stroke-dasharray:none;marker:none;visibility:visible;display:inline;overflow:visible;enable-background:accumulate;font-family:Sans;-inkscape-font-specification:Sans"
         d="m 296.84004,451.35551 c -61.46451,59.04588 -123.62524,117.44484 -185.58272,176.03176 44.37052,38.6072 101.1569,66.00147 161.49669,72.73315 32.13944,2.30931 64.97534,1.52463 95.81165,-8.1809 44.29614,-12.53503 85.28822,-34.9781 119.83519,-63.64269 C 465.47583,605.77201 440.74686,584.56384 417.32498,562.36207 377.1081,525.4151 337.48859,487.88371 296.84004,451.35551 z"
         id="path5037-7-98"
         inkscape:connector-curvature="0" />
    </g>
  </g>
</svg>
