<?xml version="1.0" encoding="UTF-8" standalone="no"?>
<!-- Created with Inkscape (http://www.inkscape.org/) -->

<svg
   xmlns:dc="http://purl.org/dc/elements/1.1/"
   xmlns:cc="http://creativecommons.org/ns#"
   xmlns:rdf="http://www.w3.org/1999/02/22-rdf-syntax-ns#"
   xmlns:svg="http://www.w3.org/2000/svg"
   xmlns="http://www.w3.org/2000/svg"
   xmlns:sodipodi="http://sodipodi.sourceforge.net/DTD/sodipodi-0.dtd"
   xmlns:inkscape="http://www.inkscape.org/namespaces/inkscape"
   width="379.71899"
   height="268.28757"
   id="svg3288"
   version="1.1"
   inkscape:version="0.48.4 r9939"
   sodipodi:docname="ME4C-MV Zoom.svg">
  <defs
     id="defs3290" />
  <sodipodi:namedview
     id="base"
     pagecolor="#ffffff"
     bordercolor="#666666"
     borderopacity="1.0"
     inkscape:pageopacity="0.0"
     inkscape:pageshadow="2"
     inkscape:zoom="2.22"
     inkscape:cx="187.05164"
     inkscape:cy="119.27722"
     inkscape:document-units="px"
     inkscape:current-layer="layer1"
     showgrid="true"
     inkscape:snap-bbox="true"
     inkscape:bbox-nodes="true"
     inkscape:bbox-paths="true"
     inkscape:snap-bbox-edge-midpoints="true"
     inkscape:snap-bbox-midpoints="true"
     fit-margin-top="0"
     fit-margin-left="0"
     fit-margin-right="0"
     fit-margin-bottom="0"
     inkscape:window-width="1231"
     inkscape:window-height="776"
     inkscape:window-x="49"
     inkscape:window-y="24"
     inkscape:window-maximized="1"
     inkscape:snap-global="false">
    <inkscape:grid
       type="xygrid"
       id="grid3345"
       empspacing="5"
       visible="true"
       enabled="true"
       snapvisiblegridlinesonly="true"
       originx="-110.14051px"
       originy="-351.71243px" />
  </sodipodi:namedview>
  <metadata
     id="metadata3293">
    <rdf:RDF>
      <cc:Work
         rdf:about="">
        <dc:format>image/svg+xml</dc:format>
        <dc:type
           rdf:resource="http://purl.org/dc/dcmitype/StillImage" />
      </cc:Work>
    </rdf:RDF>
  </metadata>
  <g
     inkscape:label="Layer 1"
     inkscape:groupmode="layer"
     id="layer1"
     transform="translate(-110.14051,-432.36218)">
    <g
       id="g10634">
      <g
         id="g3785">
        <path
           inkscape:connector-curvature="0"
           id="path5037-7"
           d="M 297.01432,433.86218 C 235.619,496.55597 173.52825,558.56294 111.64051,620.76942 c 44.32058,40.99242 101.04303,70.07915 161.3149,77.22676 32.10326,2.45195 64.90219,1.61881 95.7038,-8.68638 44.24627,-13.30943 85.1922,-37.13909 119.70028,-67.57463 C 465.46028,597.81876 440.75915,575.30031 417.36364,551.7269 377.19203,512.49726 337.61712,472.64715 297.01432,433.86218 z"
           style="font-size:medium;font-style:normal;font-variant:normal;font-weight:normal;font-stretch:normal;text-indent:0;text-align:start;text-decoration:none;line-height:normal;letter-spacing:normal;word-spacing:normal;text-transform:none;direction:ltr;block-progression:tb;writing-mode:lr-tb;text-anchor:start;baseline-shift:baseline;color:#000000;fill:#ffffff;stroke:#7d7d7d;stroke-width:3;stroke-miterlimit:4;stroke-opacity:1;stroke-dasharray:none;marker:none;visibility:visible;display:inline;overflow:visible;enable-background:accumulate;font-family:Sans;-inkscape-font-specification:Sans;fill-opacity:1" />
        <path
           style="font-size:medium;font-style:normal;font-variant:normal;font-weight:normal;font-stretch:normal;text-indent:0;text-align:start;text-decoration:none;line-height:normal;letter-spacing:normal;word-spacing:normal;text-transform:none;direction:ltr;block-progression:tb;writing-mode:lr-tb;text-anchor:start;baseline-shift:baseline;color:#000000;fill:#969696;fill-opacity:1;stroke:none;stroke-width:2;marker:none;visibility:visible;display:inline;overflow:visible;enable-background:accumulate;font-family:Sans;-inkscape-font-specification:Sans"
           d="M 264.27937,466.65841 149.41736,583.46583 c 0,0 2.06164,32.5607 6.68869,70.97664 117.52715,75.4524 223.89777,30.83728 223.89777,30.83728 0,0 4.39503,-21.07576 12.35272,-80.79403 1.30801,-29.07363 -2.21519,-79.51064 -2.21519,-79.51064 l -55.96582,-56.52151 c -22.17872,-8.43837 -46.53966,-1.60125 -69.89616,-1.79516 z"
           id="path5369"
           inkscape:connector-curvature="0"
           sodipodi:nodetypes="cccccccc" />
        <path
           sodipodi:nodetypes="ccccccccccccccccccc"
           style="font-size:medium;font-style:normal;font-variant:normal;font-weight:normal;font-stretch:normal;text-indent:0;text-align:start;text-decoration:none;line-height:normal;letter-spacing:normal;word-spacing:normal;text-transform:none;direction:ltr;block-progression:tb;writing-mode:lr-tb;text-anchor:start;baseline-shift:baseline;color:#000000;fill:#ffff00;fill-opacity:1;stroke:none;stroke-width:1;marker:none;visibility:visible;display:inline;overflow:visible;enable-background:accumulate;font-family:Sans;-inkscape-font-specification:Sans"
           d="m 308.92622,468.0547 c -15.86356,-0.56049 -31.65939,1.26191 -47.46484,2.27934 -9.18782,9.34212 -18.32895,18.73565 -27.57876,28.01339 2.0439,18.93535 5.3301,35.64215 7.44092,54.57047 12.26433,3.90263 20.32466,16.99297 29.3563,26.73283 13.70374,13.6596 15.65134,24.89731 21.23535,47.61454 3.23358,5.68192 5.71519,11.88231 13.27234,11.93622 10.5864,0.57125 21.25389,-0.54415 31.73858,-1.95214 6.19185,-8.97222 12.25881,-19.51071 11.25024,-30.92664 0.0618,-8.00801 -3.64305,-13.19992 -1.88385,-21.41292 1.83822,-13.45873 7.38646,-21.31339 23.37439,-28.12302 14.73545,-2.63181 15.88785,-7.0172 18.03054,-14.82571 -0.99933,-9.76575 -0.39682,-14.69686 -4.41367,-23.78949 -11.80242,-11.78852 -30.9455,-31.16376 -43.70796,-43.25627 -7.61673,-6.66551 -18.32802,-5.66214 -27.72335,-6.7406 l -1.45605,-0.0661 -1.47033,-0.054 1.5e-4,0 z"
           id="path5279"
           inkscape:connector-curvature="0" />
        <path
           style="font-size:medium;font-style:normal;font-variant:normal;font-weight:normal;font-stretch:normal;text-indent:0;text-align:start;text-decoration:none;line-height:normal;letter-spacing:normal;word-spacing:normal;text-transform:none;direction:ltr;block-progression:tb;writing-mode:lr-tb;text-anchor:start;baseline-shift:baseline;color:#000000;fill:#ff0000;fill-opacity:1;stroke:none;stroke-width:1;marker:none;visibility:visible;display:inline;overflow:visible;enable-background:accumulate;font-family:Sans;-inkscape-font-specification:Sans"
           d="m 238.4581,555.58785 c -9.51071,7.0857 -12.17393,21.46488 -12.47099,32.96074 2.41777,49.0434 10.51017,77.59156 7.28456,100.80711 -24.61634,-5.43626 -49.53005,-20.84727 -63.74738,-26.78367 -2.17385,-25.20098 -7.54867,-56.22014 -15.02232,-77.30991 -6.00567,-1.23192 -0.681,24.8924 -1.00174,36.86786 3.22305,21.94531 3.01367,26.27922 4.47279,34.6643 114.15888,76.48778 221.18516,27.67322 221.18516,27.67322 0,0 4.61016,-24.69526 7.8595,-44.2883 3.16025,-24.73878 9.14062,-52.7015 -0.49175,-76.98451 -6.39819,-15.1393 -18.95391,0.2271 -21.12208,9.56406 -6.14481,22.19744 -8.94389,45.23639 -11.73368,68.05902 -1.0101,6.68001 -1.34199,22.64238 -6.74235,22.86903 -3.77386,-7.66776 -6.48769,-21.38178 -14.84709,-23.29744 -4.98937,11.55904 0.72858,24.03235 0.50838,36.05844 0.8054,16.7851 3.37557,19.54515 3.37557,19.54515 -24.49862,6.07005 -56.15922,2.89103 -67.53712,1.2909 -3.30666,-14.81702 -11.20418,-75.95145 -17.88164,-112.97084 -2.63856,-9.5551 -2.76732,-23.14033 -12.08782,-28.72516 z"
           id="path5169"
           inkscape:connector-curvature="0"
           sodipodi:nodetypes="ccccccccccccccccccc" />
        <path
           inkscape:connector-curvature="0"
           id="path5149"
           d="m 365.9396,562.90774 c -6.54378,3.77407 -11.4785,9.88617 -15.18912,16.35485 -2.97569,6.95678 -1.39149,14.6815 -1.57085,22.0003 0.27243,7.48346 1.17384,15.61208 -2.87247,22.3342 -2.73213,5.32217 -6.3496,10.16559 -9.11687,15.44548 1.27903,3.56042 3.25327,7.069 4.78281,10.61611 2.0276,3.02677 2.98208,8.32473 6.66589,9.30067 2.35971,-2.87648 1.6853,-7.29394 2.6268,-10.81952 1.88935,-14.89064 3.57139,-29.81346 6.2184,-44.59585 1.87005,-11.44387 3.97897,-22.90575 7.13646,-34.05267 0.49691,-1.78856 4.35445,-5.33749 1.31895,-6.58357 z"
           style="font-size:medium;font-style:normal;font-variant:normal;font-weight:normal;font-stretch:normal;text-indent:0;text-align:start;text-decoration:none;line-height:normal;letter-spacing:normal;word-spacing:normal;text-transform:none;direction:ltr;block-progression:tb;writing-mode:lr-tb;text-anchor:start;baseline-shift:baseline;color:#000000;fill:#ffff00;fill-opacity:1;stroke:none;stroke-width:1;marker:none;visibility:visible;display:inline;overflow:visible;enable-background:accumulate;font-family:Sans;-inkscape-font-specification:Sans" />
        <path
           style="font-size:medium;font-style:normal;font-variant:normal;font-weight:normal;font-stretch:normal;text-indent:0;text-align:start;text-decoration:none;line-height:normal;letter-spacing:normal;word-spacing:normal;text-transform:none;direction:ltr;block-progression:tb;writing-mode:lr-tb;text-anchor:start;baseline-shift:baseline;color:#000000;fill:#ffff00;fill-opacity:1;stroke:none;stroke-width:1;marker:none;visibility:visible;display:inline;overflow:visible;enable-background:accumulate;font-family:Sans;-inkscape-font-specification:Sans"
           d="m 253.31846,590.15278 c 8.49081,47.2562 9.65697,56.60036 16.00895,106.02266 29.25286,6.4735 63.71048,1.51637 63.71048,-0.72373 0,0 -4.60279,-30.69997 -4.28774,-55.31195 -9.81624,-0.35972 -20.13597,1.63279 -29.46222,-2.18025 -9.8646,-5.63804 -11.23446,-18.17012 -14.99541,-27.87593 -5.92166,-15.57885 -19.4151,-36.79828 -33.27795,-46.28505 -4.8507,-1.67642 2.50616,23.01625 2.30389,26.35425 z"
           id="path5137"
           inkscape:connector-curvature="0"
           sodipodi:nodetypes="cccccccc" />
      </g>
      <path
         style="font-size:medium;font-style:normal;font-variant:normal;font-weight:normal;font-stretch:normal;text-indent:0;text-align:start;text-decoration:none;line-height:normal;letter-spacing:normal;word-spacing:normal;text-transform:none;direction:ltr;block-progression:tb;writing-mode:lr-tb;text-anchor:start;baseline-shift:baseline;color:#000000;fill:#ffff00;fill-opacity:1;stroke:none;stroke-width:1;marker:none;visibility:visible;display:inline;overflow:visible;enable-background:accumulate;font-family:Sans;-inkscape-font-specification:Sans"
         d="m 229.34723,502.42325 c 2.91548,14.60514 3.536,34.83183 4.40225,49.71444 -0.87609,8.59632 -7.3247,9.38276 -10.20523,17.57475 -8.6187,12.09713 -13.59395,29.56427 -13.24617,47.82469 -0.83593,5.5802 2.79521,12.17902 2.70197,1.98504 0.35604,-14.62172 1.50209,-30.6684 10.94226,-42.57155 1.2692,0.36659 -2.16282,10.64126 -1.21044,14.32556 1.36532,35.12391 11.25576,60.63316 9.79903,98.02068 -33.05222,-10.10384 -54.45223,-19.52046 -62.30765,-26.52029 0,0 0.50823,-5.91623 -5.88059,-42.77863 -0.47667,-8.39622 -4.43503,-22.5929 -3.98517,-30.24447 11.50191,7.30531 15.51533,21.6187 18.56537,34.18348 2.85435,5.49044 1.91052,16.98835 6.19296,19.09916 -1.84715,-17.92353 -4.32885,-29.65119 -11.31999,-43.41019 -4.35134,-9.56112 -11.03401,-10.58985 -18.43108,-19.71794 14.19788,-16.17859 34.27148,-34.43717 49.54738,-49.89296 6.19876,-6.03649 17.96896,-21.83918 24.4351,-27.59177 z"
         id="path5257"
         inkscape:connector-curvature="0"
         sodipodi:nodetypes="ccccccccccccccccc" />
      <path
         inkscape:connector-curvature="0"
         id="path5037-7-9"
         d="M 297.01432,433.86218 C 235.619,496.55597 173.52825,558.56294 111.64051,620.76942 c 44.32058,40.99242 101.04303,70.07915 161.3149,77.22676 32.10326,2.45195 64.90219,1.61881 95.7038,-8.68638 44.24627,-13.30943 85.1922,-37.13909 119.70028,-67.57463 C 465.46028,597.81876 440.75915,575.30031 417.36364,551.7269 377.19203,512.49726 337.61712,472.64715 297.01432,433.86218 z"
         style="font-size:medium;font-style:normal;font-variant:normal;font-weight:normal;font-stretch:normal;text-indent:0;text-align:start;text-decoration:none;line-height:normal;letter-spacing:normal;word-spacing:normal;text-transform:none;direction:ltr;block-progression:tb;writing-mode:lr-tb;text-anchor:start;baseline-shift:baseline;color:#000000;fill:none;stroke:#7d7d7d;stroke-width:3;stroke-miterlimit:4;stroke-opacity:1;stroke-dasharray:none;marker:none;visibility:visible;display:inline;overflow:visible;enable-background:accumulate;font-family:Sans;-inkscape-font-specification:Sans" />
    </g>
  </g>
</svg>
