<?xml version="1.0" encoding="UTF-8" standalone="no"?>
<!-- Created with Inkscape (http://www.inkscape.org/) -->

<svg
   xmlns:dc="http://purl.org/dc/elements/1.1/"
   xmlns:cc="http://creativecommons.org/ns#"
   xmlns:rdf="http://www.w3.org/1999/02/22-rdf-syntax-ns#"
   xmlns:svg="http://www.w3.org/2000/svg"
   xmlns="http://www.w3.org/2000/svg"
   xmlns:sodipodi="http://sodipodi.sourceforge.net/DTD/sodipodi-0.dtd"
   xmlns:inkscape="http://www.inkscape.org/namespaces/inkscape"
   width="379.71899"
   height="268.28757"
   id="svg3288"
   version="1.1"
   inkscape:version="0.48.4 r9939"
   sodipodi:docname="ME2C.svg">
  <defs
     id="defs3290" />
  <sodipodi:namedview
     id="base"
     pagecolor="#ffffff"
     bordercolor="#666666"
     borderopacity="1.0"
     inkscape:pageopacity="0.0"
     inkscape:pageshadow="2"
     inkscape:zoom="0.96"
     inkscape:cx="136.01857"
     inkscape:cy="189.95007"
     inkscape:document-units="px"
     inkscape:current-layer="layer1"
     showgrid="true"
     inkscape:snap-bbox="true"
     inkscape:bbox-nodes="true"
     inkscape:bbox-paths="true"
     inkscape:snap-bbox-edge-midpoints="true"
     inkscape:snap-bbox-midpoints="true"
     fit-margin-top="0"
     fit-margin-left="0"
     fit-margin-right="0"
     fit-margin-bottom="0"
     inkscape:window-width="1231"
     inkscape:window-height="776"
     inkscape:window-x="49"
     inkscape:window-y="24"
     inkscape:window-maximized="1"
     inkscape:snap-global="false">
    <inkscape:grid
       type="xygrid"
       id="grid3345"
       empspacing="5"
       visible="true"
       enabled="true"
       snapvisiblegridlinesonly="true"
       originx="-110.14051px"
       originy="-351.71243px" />
  </sodipodi:namedview>
  <metadata
     id="metadata3293">
    <rdf:RDF>
      <cc:Work
         rdf:about="">
        <dc:format>image/svg+xml</dc:format>
        <dc:type
           rdf:resource="http://purl.org/dc/dcmitype/StillImage" />
        <dc:title></dc:title>
      </cc:Work>
    </rdf:RDF>
  </metadata>
  <g
     inkscape:label="Layer 1"
     inkscape:groupmode="layer"
     id="layer1"
     transform="translate(-110.14051,-432.36218)">
    <g
       id="g4303">
      <path
         sodipodi:nodetypes="cczczzcc"
         inkscape:connector-curvature="0"
         id="path5369"
         d="m 297.30736,432.95213 c 0,0 -44.97321,46.93233 -66.72792,68.33024 6.52114,22.08757 -8.09279,54.40448 2.42684,86.74549 10.51962,32.34102 23.63222,77.98549 49.90419,90.41579 14.78615,7.85847 27.88325,2.79646 41.11725,-12.42417 13.23399,-15.22062 35.72555,-63.11044 37.13186,-100.37902 1.4063,-37.26858 -2.16645,-70.5933 -2.16645,-70.5933 z"
         style="font-size:medium;font-style:normal;font-variant:normal;font-weight:normal;font-stretch:normal;text-indent:0;text-align:start;text-decoration:none;line-height:normal;letter-spacing:normal;word-spacing:normal;text-transform:none;direction:ltr;block-progression:tb;writing-mode:lr-tb;text-anchor:start;baseline-shift:baseline;color:#000000;fill:#969696;fill-opacity:1;stroke:none;stroke-width:2;marker:none;visibility:visible;display:inline;overflow:visible;enable-background:accumulate;font-family:Sans;-inkscape-font-specification:Sans" />
      <path
         inkscape:connector-curvature="0"
         id="path5351"
         d="m 297.92069,435.00874 7.8236,7.70724 c 2.24768,2.20536 4.25137,4.26016 5.61779,5.79062 0.6832,0.76523 1.18972,1.41883 1.51775,1.86066 0.0317,0.0428 0.0355,0.054 0.0634,0.0931 -0.38327,0.003 -0.91688,0.005 -1.56302,-0.0476 -1.2923,-0.10433 -3.00562,-0.3223 -4.81852,-0.61048 -3.73971,-0.59449 -10.8906,-0.6878 -16.03409,-0.22262 l -7.89966,0.73136 7.30576,-7.31977 0.0309,-0.0315 7.95604,-7.95098 z"
         style="font-size:medium;font-style:normal;font-variant:normal;font-weight:normal;font-stretch:normal;text-indent:0;text-align:start;text-decoration:none;line-height:normal;letter-spacing:normal;word-spacing:normal;text-transform:none;direction:ltr;block-progression:tb;writing-mode:lr-tb;text-anchor:start;baseline-shift:baseline;color:#000000;fill:#ffffff;fill-opacity:1;stroke:none;stroke-width:1;marker:none;visibility:visible;display:inline;overflow:visible;enable-background:accumulate;font-family:Sans;-inkscape-font-specification:Sans" />
      <path
         style="font-size:medium;font-style:normal;font-variant:normal;font-weight:normal;font-stretch:normal;text-indent:0;text-align:start;text-decoration:none;line-height:normal;letter-spacing:normal;word-spacing:normal;text-transform:none;direction:ltr;block-progression:tb;writing-mode:lr-tb;text-anchor:start;baseline-shift:baseline;color:#000000;fill:none;stroke:#7d7d7d;stroke-width:3;stroke-miterlimit:4;stroke-opacity:1;stroke-dasharray:none;marker:none;visibility:visible;display:inline;overflow:visible;enable-background:accumulate;font-family:Sans;-inkscape-font-specification:Sans"
         d="M 297.01432,433.86218 C 235.619,496.55597 173.52825,558.56294 111.64051,620.76942 c 44.32058,40.99242 101.04303,70.07915 161.3149,77.22676 32.10326,2.45195 64.90219,1.61881 95.7038,-8.68638 44.24627,-13.30943 85.1922,-37.13909 119.70028,-67.57463 C 465.46028,597.81876 440.75915,575.30031 417.36364,551.7269 377.19203,512.49726 337.61712,472.64715 297.01432,433.86218 z"
         id="path5037-7"
         inkscape:connector-curvature="0" />
      <path
         sodipodi:nodetypes="ccccc"
         inkscape:connector-curvature="0"
         id="path5007-9"
         d="m 296.69343,436.36038 c -6.90566,6.92801 -13.71996,13.94638 -20.625,20.875 10.53697,-1.77406 21.12218,-3.63882 31.83707,-3.76413 6.63305,-1.69348 7.45618,-1.82067 2.2349,-5.42887 -4.87423,-3.4236 -8.94299,-7.81562 -13.44697,-11.682 z"
         style="font-size:medium;font-style:normal;font-variant:normal;font-weight:normal;font-stretch:normal;text-indent:0;text-align:start;text-decoration:none;line-height:normal;letter-spacing:normal;word-spacing:normal;text-transform:none;direction:ltr;block-progression:tb;writing-mode:lr-tb;text-anchor:start;baseline-shift:baseline;color:#000000;fill:#ffffff;fill-opacity:1;stroke:none;stroke-width:1;marker:none;visibility:visible;display:inline;overflow:visible;enable-background:accumulate;font-family:Sans;-inkscape-font-specification:Sans" />
      <path
         style="font-size:medium;font-style:normal;font-variant:normal;font-weight:normal;font-stretch:normal;text-indent:0;text-align:start;text-decoration:none;line-height:normal;letter-spacing:normal;word-spacing:normal;text-transform:none;direction:ltr;block-progression:tb;writing-mode:lr-tb;text-anchor:start;baseline-shift:baseline;color:#000000;fill:#ffff00;fill-opacity:1;stroke:none;stroke-width:1;stroke-opacity:1;marker:none;visibility:visible;display:inline;overflow:visible;enable-background:accumulate;font-family:Sans;-inkscape-font-specification:Sans"
         d="m 315.88083,455.45408 c -15.25922,1.22267 -30.4754,3.88018 -45.344,7.1562 -12.26836,12.93718 -25.66818,24.94428 -36.4375,39.1875 0.10022,5.86458 2.08423,11.59684 3.2812,17.34375 6.99132,-1.81099 15.04301,-1.47203 20.375,4.0625 6.81694,6.83738 9.47319,16.48769 10.16123,25.84296 0.12351,3.41121 5.23244,18.104 5.77637,7.68829 -0.37541,-8.55502 -1.06638,-19.56565 7.48901,-24.58451 6.05998,-0.45471 13.02002,0.58637 18.9229,1.76081 7.49575,4.69805 8.70128,11.89012 12.28897,18.70239 1.51765,3.57435 7.5662,14.43391 7.02113,14.25115 -6.9779,-6.51264 -11.76923,-25.85483 -20.75804,-30.7726 -5.15221,-1.31711 -16.69464,1.80372 -16.65157,-3.45099 -5.25325,5.25952 -8.06644,13.5652 -7.70543,21.28184 -1.1773,12.40387 -1.6472,26.64556 -11.54457,35.62441 -7.55506,5.7045 -4.88307,16.21062 -3.05069,24.05421 4.72724,15.62413 11.79975,31.11377 23.1479,43.05605 6.58127,8.07952 18.65952,5.38742 23.65772,-2.97873 10.64389,-14.20648 18.47069,-30.81146 22.0321,-48.23117 2.09498,-11.07648 -5.46634,-20.72534 -7.64051,-31.21023 -3.81024,-8.24328 2.10344,-18.81633 -5.65596,-25.3886 -4.51671,-7.95387 -1.07909,-18.8515 4.13698,-25.78044 6.22115,-8.56974 16.71804,-9.26708 26.1376,-10.71861 7.33651,-2.43743 10.34457,-10.63979 11.17206,-17.42748 -13.5432,-13.14335 -27.04457,-26.33245 -40.5931,-39.4686 l -0.2188,0 z"
         id="path4983-8"
         inkscape:connector-curvature="0"
         sodipodi:nodetypes="ccccccccccccccccccccccccccc" />
      <path
         style="font-size:medium;font-style:normal;font-variant:normal;font-weight:normal;font-stretch:normal;text-indent:0;text-align:start;text-decoration:none;line-height:normal;letter-spacing:normal;word-spacing:normal;text-transform:none;direction:ltr;block-progression:tb;writing-mode:lr-tb;text-anchor:start;baseline-shift:baseline;color:#000000;fill:#ff0000;fill-opacity:1;stroke:none;stroke-width:1;stroke-opacity:1;marker:none;visibility:visible;display:inline;overflow:visible;enable-background:accumulate;font-family:Sans;-inkscape-font-specification:Sans"
         d="m 346.84963,514.64168 c -6.48216,3.57456 -6.15734,12.54962 -6.40342,19.0525 0.78714,14.44467 2.69004,41.93374 -1.3075,43.4207 -3.99754,1.48696 -9.47727,-8.35706 -15.58037,-10.70044 -3.40623,5.64427 3.27892,15.62772 5.3492,22.3027 6.08115,11.25351 0.71504,24.1406 -2.74405,35.32339 -3.36545,9.96825 -8.83317,19.08673 -14.37772,27.95587 -5.0652,7.2393 -15.19207,13.29835 -23.81144,8.42658 -10.10328,-7.22118 -15.55716,-19.03454 -20.92992,-29.87183 -4.42667,-10.63792 -9.47309,-21.92801 -8.63575,-33.68844 2.83208,-6.94871 9.99481,-11.21636 12.34458,-18.57832 2.76621,-3.98684 5.45605,-18.77222 -2.90391,-13.83016 -9.09352,5.74785 -18.01611,14.33347 -18.63485,1.71463 -0.61874,-12.61884 0.76912,-23.71107 -5.1076,-37.55805 -5.87673,-13.84698 -8.38609,-6.65547 -10.3031,-0.29354 -3.10404,16.75609 -3.45326,27.69871 -1.12145,46.67901 1.14471,19.54786 11.5151,38.37782 18.26015,56.43582 6.96653,15.96558 13.72279,33.90555 28.85861,43.96403 6.91758,4.05601 15.99374,8.0902 23.82924,4.1831 6.45711,0.23447 12.57164,-7.12948 17.54554,-11.41613 8.49107,-10.80785 15.65175,-22.81081 20.89206,-35.52137 1.74803,-5.23125 6.26051,-11.77877 7.81834,-18.80063 8.55364,-21.98993 11.72935,-45.73963 10.81346,-69.24598 0.45126,-10.52505 -5.11989,-20.11955 -11.1003,-28.32834 -0.8149,-0.64188 -1.61517,-1.61815 -2.7498,-1.6251 z"
         id="path4941-6"
         inkscape:connector-curvature="0"
         sodipodi:nodetypes="cczccccccccczzccccccccccc" />
      <path
         style="font-size:medium;font-style:normal;font-variant:normal;font-weight:normal;font-stretch:normal;text-indent:0;text-align:start;text-decoration:none;line-height:normal;letter-spacing:normal;word-spacing:normal;text-transform:none;direction:ltr;block-progression:tb;writing-mode:lr-tb;text-anchor:start;baseline-shift:baseline;color:#000000;fill:#ffff00;fill-opacity:1;stroke:none;stroke-width:1;stroke-opacity:1;marker:none;visibility:visible;display:inline;overflow:visible;enable-background:accumulate;font-family:Sans;-inkscape-font-specification:Sans"
         d="m 339.56843,517.51668 c -4.02007,0.70834 -8.20668,1.05323 -11.83,3.11678 -4.26348,2.29874 -8.68887,5.58521 -9.87943,10.5504 -1.3087,5.58399 -1.56605,11.49017 -0.46367,17.1313 0.42517,2.06961 2.11495,3.56323 2.5793,5.63902 1.25394,3.10933 1.05928,6.59598 2.40893,9.66098 1.76762,3.19864 4.03067,2.44653 6.96982,4.35682 2.24792,1.34658 4.29861,7.57605 8.02745,6.2947 3.72884,-1.28135 -0.11659,-37.59887 0.44765,-48.54175 0.27689,-2.78651 1.13232,-5.48191 1.73995,-8.20825 z"
         id="path4935-7"
         inkscape:connector-curvature="0"
         sodipodi:nodetypes="ccccccczcc" />
      <path
         style="font-size:medium;font-style:normal;font-variant:normal;font-weight:normal;font-stretch:normal;text-indent:0;text-align:start;text-decoration:none;line-height:normal;letter-spacing:normal;word-spacing:normal;text-transform:none;direction:ltr;block-progression:tb;writing-mode:lr-tb;text-anchor:start;baseline-shift:baseline;color:#000000;fill:#ffff00;fill-opacity:1;stroke:none;stroke-width:1;stroke-opacity:1;marker:none;visibility:visible;display:inline;overflow:visible;enable-background:accumulate;font-family:Sans;-inkscape-font-specification:Sans"
         d="m 245.03713,521.92293 c -2.44941,0.32994 -0.51023,3.11114 -0.11351,4.4863 1.3729,3.05569 2.96418,6.06775 3.49317,9.41964 1.56979,8.8535 1.22733,17.89784 2.24564,26.81281 0.27633,2.03463 0.31316,4.15513 1.0313,6.09375 1.24276,2.18418 4.24393,2.17837 6.1799,0.98487 3.45128,-1.72893 5.41119,-5.44533 8.97689,-6.99162 1.6551,0.13407 3.36686,-1.03417 3.24379,-2.83037 -0.061,-3.48119 -1.91896,-6.57679 -2.82214,-9.87053 -1.78494,-5.10461 -3.03639,-10.38217 -4.92041,-15.45112 -1.41023,-3.82079 -3.81682,-7.43798 -7.49296,-9.3849 -2.94165,-1.59996 -6.11742,-3.11251 -9.50781,-3.29293 l -0.31356,0.0241 -3e-4,-5e-5 z"
         id="path4925-2"
         inkscape:connector-curvature="0" />
    </g>
  </g>
</svg>
