<?xml version="1.0" encoding="UTF-8" standalone="no"?>
<!-- Created with Inkscape (http://www.inkscape.org/) -->

<svg
   xmlns:dc="http://purl.org/dc/elements/1.1/"
   xmlns:cc="http://creativecommons.org/ns#"
   xmlns:rdf="http://www.w3.org/1999/02/22-rdf-syntax-ns#"
   xmlns:svg="http://www.w3.org/2000/svg"
   xmlns="http://www.w3.org/2000/svg"
   xmlns:sodipodi="http://sodipodi.sourceforge.net/DTD/sodipodi-0.dtd"
   xmlns:inkscape="http://www.inkscape.org/namespaces/inkscape"
   width="379.71899"
   height="268.28757"
   id="svg3288"
   version="1.1"
   inkscape:version="0.48.4 r9939"
   sodipodi:docname="MEBicaval-modTV.svg">
  <defs
     id="defs3290" />
  <sodipodi:namedview
     id="base"
     pagecolor="#ffffff"
     bordercolor="#666666"
     borderopacity="1.0"
     inkscape:pageopacity="0.0"
     inkscape:pageshadow="2"
     inkscape:zoom="1.9873603"
     inkscape:cx="154.52689"
     inkscape:cy="108.13986"
     inkscape:document-units="px"
     inkscape:current-layer="layer1"
     showgrid="true"
     inkscape:snap-bbox="true"
     inkscape:bbox-nodes="true"
     inkscape:bbox-paths="true"
     inkscape:snap-bbox-edge-midpoints="true"
     inkscape:snap-bbox-midpoints="true"
     fit-margin-top="0"
     fit-margin-left="0"
     fit-margin-right="0"
     fit-margin-bottom="0"
     inkscape:window-width="1231"
     inkscape:window-height="776"
     inkscape:window-x="49"
     inkscape:window-y="24"
     inkscape:window-maximized="1"
     inkscape:snap-global="false">
    <inkscape:grid
       type="xygrid"
       id="grid3345"
       empspacing="5"
       visible="true"
       enabled="true"
       snapvisiblegridlinesonly="true"
       originx="-110.14051px"
       originy="-351.71243px" />
  </sodipodi:namedview>
  <metadata
     id="metadata3293">
    <rdf:RDF>
      <cc:Work
         rdf:about="">
        <dc:format>image/svg+xml</dc:format>
        <dc:type
           rdf:resource="http://purl.org/dc/dcmitype/StillImage" />
        <dc:title />
      </cc:Work>
    </rdf:RDF>
  </metadata>
  <g
     inkscape:label="Layer 1"
     inkscape:groupmode="layer"
     id="layer1"
     transform="translate(-110.14051,-432.36218)">
    <g
       id="g22019">
      <g
         id="g16673">
        <path
           inkscape:connector-curvature="0"
           id="path5037-7"
           d="M 297.01432,433.86218 C 235.619,496.55597 173.52825,558.56294 111.64051,620.76942 c 44.32058,40.99242 101.04303,70.07915 161.3149,77.22676 32.10326,2.45195 64.90219,1.61881 95.7038,-8.68638 44.24627,-13.30943 85.1922,-37.13909 119.70028,-67.57463 C 465.46028,597.81876 440.75915,575.30031 417.36364,551.7269 377.19203,512.49726 337.61712,472.64715 297.01432,433.86218 z"
           style="font-size:medium;font-style:normal;font-variant:normal;font-weight:normal;font-stretch:normal;text-indent:0;text-align:start;text-decoration:none;line-height:normal;letter-spacing:normal;word-spacing:normal;text-transform:none;direction:ltr;block-progression:tb;writing-mode:lr-tb;text-anchor:start;baseline-shift:baseline;color:#000000;fill:#ffffff;fill-opacity:1;stroke:#7d7d7d;stroke-width:3;stroke-miterlimit:4;stroke-opacity:1;stroke-dasharray:none;marker:none;visibility:visible;display:inline;overflow:visible;enable-background:accumulate;font-family:Sans;-inkscape-font-specification:Sans" />
        <path
           sodipodi:nodetypes="scccccccccccs"
           inkscape:connector-curvature="0"
           style="font-size:medium;font-style:normal;font-variant:normal;font-weight:normal;font-stretch:normal;text-indent:0;text-align:start;text-decoration:none;line-height:normal;letter-spacing:normal;word-spacing:normal;text-transform:none;direction:ltr;block-progression:tb;writing-mode:lr-tb;text-anchor:start;baseline-shift:baseline;color:#000000;fill:#969696;fill-opacity:1;stroke:none;stroke-width:1;marker:none;visibility:visible;display:inline;overflow:visible;enable-background:accumulate;font-family:Sans;-inkscape-font-specification:Sans"
           d="m 188.53125,14.96875 c -5.00574,-0.07345 -10.46801,0.88018 -18,3.34375 l -91.75,93.1875 c 37.86659,-14.455525 19.392675,12.77574 38.59375,41.625 -5.4458,15.16435 -9.19169,28.66511 -8.2136,43.5625 -0.22644,21.64915 4.04644,40.21335 12.285,60.22156 11.24655,2.91833 29.79528,7.34376 41.3661,8.71594 21.20899,1.61988 52.44809,0.31482 73.48783,-2.71688 11.5779,-26.44297 14.95264,-55.43411 10.95971,-92.38134 -1.32484,-11.5476 -7.7259,-19.81779 -14.04939,-26.73164 8.26559,-34.90125 -10.75794,-55.163951 39.53935,-58.20139 l -68.90625,-67.75 c -5.74588,-1.70403 -10.30676,-2.801545 -15.3125,-2.875 z"
           transform="translate(110.14051,432.36218)"
           id="path4613" />
        <path
           inkscape:connector-curvature="0"
           id="path4677"
           d="m 301.33249,449.85055 c 11.1626,-0.26931 23.44677,13.29853 31.34648,18.96844 12.13652,11.51987 15.20116,14.29434 15.20116,14.29434 8.05354,15.42984 -10.62763,6.60774 -28.87359,5.34631 -16.35246,0.40111 -24.2754,0.84476 -40.16536,-0.80857 -13.53981,1.52822 -32.34588,-1.87428 -32.34588,-1.87428 0,0 14.56806,-17.12165 27.58397,-28.5617 11.66323,-6.41911 15.5924,-7.31327 27.25322,-7.36454 z"
           style="font-size:medium;font-style:normal;font-variant:normal;font-weight:normal;font-stretch:normal;text-indent:0;text-align:start;text-decoration:none;line-height:normal;letter-spacing:normal;word-spacing:normal;text-transform:none;direction:ltr;block-progression:tb;writing-mode:lr-tb;text-anchor:start;baseline-shift:baseline;color:#000000;fill:#fcff03;fill-opacity:1;stroke:none;stroke-width:1;marker:none;visibility:visible;display:inline;overflow:visible;enable-background:accumulate;font-family:Sans;-inkscape-font-specification:Sans"
           sodipodi:nodetypes="cccccccc" />
        <path
           sodipodi:nodetypes="cccssccccccccccccscscsccccccc"
           inkscape:connector-curvature="0"
           style="font-size:medium;font-style:normal;font-variant:normal;font-weight:normal;font-stretch:normal;text-indent:0;text-align:start;text-decoration:none;line-height:normal;letter-spacing:normal;word-spacing:normal;text-transform:none;direction:ltr;block-progression:tb;writing-mode:lr-tb;text-anchor:start;baseline-shift:baseline;color:#000000;fill:#fcff03;fill-opacity:1;stroke:none;stroke-width:1;marker:none;visibility:visible;display:inline;overflow:visible;enable-background:accumulate;font-family:Sans;-inkscape-font-specification:Sans"
           d="m 132.125,58.3125 c -6.38482,6.91171 -37.94523,36.38365 -44.34375,43.28125 33.91866,6.64993 11.021617,17.05701 30.625,47.53125 -0.0407,5.37783 6.80305,-0.43221 14.625,2 5.58668,1.73716 11.31628,-1.20856 15.625,1.21875 4.12911,2.32613 10.99998,-0.61818 11.84375,2.5625 4.58687,9.42773 7.25614,5.86759 8.75,9.71875 -0.67652,0.2588 -1.44738,0.66477 -2.375,1.34375 -9.15407,-13.55915 -9.34346,-6.60112 -21.71875,-11.96875 -5.51232,-1.60421 -8.23173,0.358 -13.75,0.21875 -2.36377,-0.0487 -2.7236,0.45377 -5,0.96875 2.62476,5.26324 3.7208,5.05354 4.47801,10.99267 -2.36212,13.11011 -6.00026,22.55077 -5.82136,38.20679 1.16749,27.32943 14.77944,45.3073 29.13233,59.6223 13.60843,1.03937 35.42538,3.64178 49.07869,3.02932 15.58948,-11.2275 21.98551,-33.71872 25.46565,-62.31173 6.43482,-47.70455 -6.24222,-35.76061 -6.70292,-53.78472 -1.3659,-2.89497 -5.70397,-2.99427 -7.7554,-2.94213 -5.24253,0.13324 -13.1406,6.58326 -25.75,2.4375 -8.0034,5.23448 -8.39592,3.18251 -12.59375,11.375 -2.01142,3.92548 -2.71518,2.49972 -4.75,2.4375 2.18217,-5.95526 6.33752,-8.24466 10.625,-11.96875 6.50215,-5.64774 9.8462,-2.54481 20.78125,-2.40625 19.48701,-12.60892 16.71335,-2.20762 27.21875,-4.75 14.46866,-34.02185 -19.01233,-49.422056 39.25,-63.03125 C 258.81695,70.2494 254.8502,67.93266 246.3125,59.75 c -7.37175,3.59532 -8.63023,1.45908 -18.5625,3.59375 -36.79015,-4.38692 -41.05239,0.72423 -53.65625,-1.3125 -25.24937,1.69018 -24.04757,-3.607221 -41.96875,-3.71875 z"
           transform="translate(110.14051,432.36218)"
           id="path4665" />
        <g
           style="stroke:none"
           transform="translate(-177.82624,241.93928)"
           id="layer1-6"
           inkscape:label="Layer 1">
          <path
             sodipodi:nodetypes="ccccccccscccccs"
             inkscape:connector-curvature="0"
             style="font-size:medium;font-style:normal;font-variant:normal;font-weight:normal;font-stretch:normal;text-indent:0;text-align:start;text-decoration:none;line-height:normal;letter-spacing:normal;word-spacing:normal;text-transform:none;direction:ltr;block-progression:tb;writing-mode:lr-tb;text-anchor:start;baseline-shift:baseline;color:#000000;fill:#ff0000;fill-opacity:1;stroke:none;stroke-width:1;marker:none;visibility:visible;display:inline;overflow:visible;enable-background:accumulate;font-family:Sans;-inkscape-font-specification:Sans"
             d="m 228.59375,147.28125 c -12.39226,1.16922 -1.02119,11.10091 2.67244,24.4348 1.99167,23.11933 -2.85502,50.11093 -9.7959,72.14506 -2.3048,7.90334 -8.08524,16.181 -16.12654,22.57639 6.8695,-0.34862 21.56632,-2.48002 28.36517,-3.43563 8.90679,-15.92452 11.81632,-34.47222 13.47062,-53.87125 1.72093,-22.1161 -0.15668,-49.87403 -11.64829,-57.78687 -1.5119,-3.46274 -4.36072,-4.21568 -6.9375,-4.0625 z m -106.875,7.59375 c -2.73123,-0.0415 -4.89701,3.62029 -5.8125,10.71875 -8.09813,17.93319 -6.33446,65.00591 8.22671,91.81531 5.40457,1.35885 25.73782,6.57967 31.22282,7.58948 -19.5858,-12.12393 -31.49813,-42.92801 -31.58609,-60.05294 -1.19233,-13.31445 5.44628,-26.39247 5.04281,-43.1331 -2.4928,-4.61552 -4.96946,-6.90523 -7.09375,-6.9375 z"
             transform="translate(287.96675,190.4229)"
             id="path5201" />
          <path
             inkscape:connector-curvature="0"
             id="path5185"
             d="m 512.32519,343.64829 c 0.061,0.0172 0.099,0.0937 0.1562,0.0937 0,0 -0.035,0.006 -0.094,-0.0312 -0.025,-0.0166 -0.043,-0.0384 -0.062,-0.0625 z"
             style="font-size:medium;font-style:normal;font-variant:normal;font-weight:normal;font-stretch:normal;text-indent:0;text-align:start;text-decoration:none;line-height:normal;letter-spacing:normal;word-spacing:normal;text-transform:none;direction:ltr;block-progression:tb;writing-mode:lr-tb;text-anchor:start;baseline-shift:baseline;color:#000000;fill:none;stroke:none;stroke-width:1;marker:none;visibility:visible;display:inline;overflow:visible;enable-background:accumulate;font-family:Sans;-inkscape-font-specification:Sans" />
        </g>
        <path
           inkscape:connector-curvature="0"
           id="path5037-7-2-5"
           d="M 297.01432,433.86218 C 235.619,496.55597 173.52825,558.56294 111.64051,620.76942 c 44.32058,40.99242 101.04303,70.07915 161.3149,77.22676 32.10326,2.45195 64.90219,1.61881 95.7038,-8.68638 44.24627,-13.30943 85.1922,-37.13909 119.70028,-67.57463 C 465.46028,597.81876 440.75915,575.30031 417.36364,551.7269 377.19203,512.49726 337.61712,472.64715 297.01432,433.86218 z"
           style="font-size:medium;font-style:normal;font-variant:normal;font-weight:normal;font-stretch:normal;text-indent:0;text-align:start;text-decoration:none;line-height:normal;letter-spacing:normal;word-spacing:normal;text-transform:none;direction:ltr;block-progression:tb;writing-mode:lr-tb;text-anchor:start;baseline-shift:baseline;color:#000000;fill:none;stroke:#7d7d7d;stroke-width:3;stroke-miterlimit:4;stroke-opacity:1;stroke-dasharray:none;marker:none;visibility:visible;display:inline;overflow:visible;enable-background:accumulate;font-family:Sans;-inkscape-font-specification:Sans" />
      </g>
      <path
         transform="translate(110.14051,432.36218)"
         d="m 290.56372,120.31281 a 24.640018,23.83215 0 1 1 -49.28003,0 24.640018,23.83215 0 1 1 49.28003,0 z"
         sodipodi:ry="23.83215"
         sodipodi:rx="24.640018"
         sodipodi:cy="120.31281"
         sodipodi:cx="265.92371"
         id="path21507"
         style="fill:#969696;fill-opacity:1;fill-rule:nonzero;stroke:none;stroke-width:1;stroke-linecap:square;stroke-linejoin:round;stroke-miterlimit:4;stroke-opacity:1;stroke-dasharray:none;stroke-dashoffset:0"
         sodipodi:type="arc" />
      <path
         transform="matrix(1.1582734,0,0,1.1582734,71.397649,416.5804)"
         d="m 282.21573,117.21598 a 18.715643,17.503838 0 1 1 -37.43128,0 18.715643,17.503838 0 1 1 37.43128,0 z"
         sodipodi:ry="17.503838"
         sodipodi:rx="18.715643"
         sodipodi:cy="117.21598"
         sodipodi:cx="263.50009"
         id="path22017"
         style="fill:#fcff03;fill-opacity:1;fill-rule:nonzero;stroke:none"
         sodipodi:type="arc" />
    </g>
  </g>
</svg>
