<?xml version="1.0" encoding="UTF-8" standalone="no"?>
<!-- Created with Inkscape (http://www.inkscape.org/) -->

<svg
   xmlns:dc="http://purl.org/dc/elements/1.1/"
   xmlns:cc="http://creativecommons.org/ns#"
   xmlns:rdf="http://www.w3.org/1999/02/22-rdf-syntax-ns#"
   xmlns:svg="http://www.w3.org/2000/svg"
   xmlns="http://www.w3.org/2000/svg"
   xmlns:sodipodi="http://sodipodi.sourceforge.net/DTD/sodipodi-0.dtd"
   xmlns:inkscape="http://www.inkscape.org/namespaces/inkscape"
   width="379.71899"
   height="268.28757"
   id="svg3288"
   version="1.1"
   inkscape:version="0.48.4 r9939"
   sodipodi:docname="MEBicaval.svg">
  <defs
     id="defs3290" />
  <sodipodi:namedview
     id="base"
     pagecolor="#ffffff"
     bordercolor="#666666"
     borderopacity="1.0"
     inkscape:pageopacity="0.0"
     inkscape:pageshadow="2"
     inkscape:zoom="2.0153513"
     inkscape:cx="186.57238"
     inkscape:cy="134.70778"
     inkscape:document-units="px"
     inkscape:current-layer="layer1"
     showgrid="true"
     inkscape:snap-bbox="true"
     inkscape:bbox-nodes="true"
     inkscape:bbox-paths="true"
     inkscape:snap-bbox-edge-midpoints="true"
     inkscape:snap-bbox-midpoints="true"
     fit-margin-top="0"
     fit-margin-left="0"
     fit-margin-right="0"
     fit-margin-bottom="0"
     inkscape:window-width="1231"
     inkscape:window-height="776"
     inkscape:window-x="49"
     inkscape:window-y="24"
     inkscape:window-maximized="1"
     inkscape:snap-global="true">
    <inkscape:grid
       type="xygrid"
       id="grid3345"
       empspacing="5"
       visible="true"
       enabled="true"
       snapvisiblegridlinesonly="true"
       originx="-110.14051px"
       originy="-351.71243px" />
  </sodipodi:namedview>
  <metadata
     id="metadata3293">
    <rdf:RDF>
      <cc:Work
         rdf:about="">
        <dc:format>image/svg+xml</dc:format>
        <dc:type
           rdf:resource="http://purl.org/dc/dcmitype/StillImage" />
        <dc:title></dc:title>
      </cc:Work>
    </rdf:RDF>
  </metadata>
  <g
     inkscape:label="Layer 1"
     inkscape:groupmode="layer"
     id="layer1"
     transform="translate(-110.14051,-432.36218)">
    <g
       id="g12138">
      <path
         style="font-size:medium;font-style:normal;font-variant:normal;font-weight:normal;font-stretch:normal;text-indent:0;text-align:start;text-decoration:none;line-height:normal;letter-spacing:normal;word-spacing:normal;text-transform:none;direction:ltr;block-progression:tb;writing-mode:lr-tb;text-anchor:start;baseline-shift:baseline;color:#000000;fill:#ffffff;fill-opacity:1;stroke:#7d7d7d;stroke-width:3;stroke-miterlimit:4;stroke-opacity:1;stroke-dasharray:none;marker:none;visibility:visible;display:inline;overflow:visible;enable-background:accumulate;font-family:Sans;-inkscape-font-specification:Sans"
         d="M 297.01432,433.86218 C 235.619,496.55597 173.52825,558.56294 111.64051,620.76942 c 44.32058,40.99242 101.04303,70.07915 161.3149,77.22676 32.10326,2.45195 64.90219,1.61881 95.7038,-8.68638 44.24627,-13.30943 85.1922,-37.13909 119.70028,-67.57463 C 465.46028,597.81876 440.75915,575.30031 417.36364,551.7269 377.19203,512.49726 337.61712,472.64715 297.01432,433.86218 z"
         id="path5037-7"
         inkscape:connector-curvature="0" />
      <path
         style="font-size:medium;font-style:normal;font-variant:normal;font-weight:normal;font-stretch:normal;text-indent:0;text-align:start;text-decoration:none;line-height:normal;letter-spacing:normal;word-spacing:normal;text-transform:none;direction:ltr;block-progression:tb;writing-mode:lr-tb;text-anchor:start;baseline-shift:baseline;color:#000000;fill:#969696;fill-opacity:1;stroke:none;stroke-width:1;marker:none;visibility:visible;display:inline;overflow:visible;enable-background:accumulate;font-family:Sans;-inkscape-font-specification:Sans"
         d="m 418.61251,554.69373 c 0,0 -23.50627,14.26442 -34.93472,20.75957 -8.53485,6.74065 -24.92914,12.4902 -17.84277,25.07661 -3.91205,12.03628 -5.86696,26.32898 -10.04355,37.02179 -10.39271,3.09702 -22.98865,2.2667 -22.23702,16.72707 -12.10526,11.89871 -32.05938,12.23762 -48.13723,10.49692 -20.33289,-3.50965 -40.40443,-14.38798 -52.33148,-31.46471 -4.15864,-13.88915 -9.37048,-27.7187 -19.14891,-38.78215 -10.44938,-14.4065 -40.223,-34.8038 -40.223,-34.8038 l 99.17994,-99.67613 c 16.73777,-5.47461 33.60482,-7.61215 46.37345,-3.82542 z"
         id="path4613"
         inkscape:connector-curvature="0"
         sodipodi:nodetypes="cccccccccccc" />
      <path
         style="font-size:medium;font-style:normal;font-variant:normal;font-weight:normal;font-stretch:normal;text-indent:0;text-align:start;text-decoration:none;line-height:normal;letter-spacing:normal;word-spacing:normal;text-transform:none;direction:ltr;block-progression:tb;writing-mode:lr-tb;text-anchor:start;baseline-shift:baseline;color:#000000;fill:#fcff03;fill-opacity:1;stroke:none;stroke-width:1;marker:none;visibility:visible;display:inline;overflow:visible;enable-background:accumulate;font-family:Sans;-inkscape-font-specification:Sans"
         d="m 300.80422,465.21751 c 12.40288,-0.47158 26.60328,0.69612 35.38074,10.62445 13.48502,12.35219 26.31493,25.39087 39.49446,38.06305 -4.94018,9.34888 -11.0126,18.22361 -19.33806,24.8879 -8.46986,8.65765 -20.72394,12.26639 -32.59137,12.27722 -18.1694,0.70238 -35.24252,-6.34051 -52.89803,-9.23558 -15.42282,-2.28232 -31.64059,-1.7255 -45.9989,-8.66885 -5.83256,-1.98245 -19.71404,-6.34849 -9.2373,-12.85912 4.9639,-4.42474 9.03795,-9.75465 13.89589,-14.3471 11.04959,-11.35644 22.23022,-22.58442 33.29267,-33.92827 12.40783,-3.4205 25.04343,-6.72393 37.9999,-6.8137 z"
         id="path4677"
         inkscape:connector-curvature="0" />
      <path
         style="font-size:medium;font-style:normal;font-variant:normal;font-weight:normal;font-stretch:normal;text-indent:0;text-align:start;text-decoration:none;line-height:normal;letter-spacing:normal;word-spacing:normal;text-transform:none;direction:ltr;block-progression:tb;writing-mode:lr-tb;text-anchor:start;baseline-shift:baseline;color:#000000;fill:#fcff03;fill-opacity:1;stroke:none;stroke-width:1;marker:none;visibility:visible;display:inline;overflow:visible;enable-background:accumulate;font-family:Sans;-inkscape-font-specification:Sans"
         d="m 382.80392,519.87381 c -10.77151,13.91863 -20.8537,30.27889 -38.53228,35.95867 -16.92801,5.67608 -36.16279,3.92259 -52.38062,-3.24155 -8.23138,-5.35426 -18.10657,-7.87854 -27.79567,-8.70786 -5.41095,5.8799 -15.93654,1.89494 -23.26561,0.78423 -12.91847,-3.19554 -25.26814,-10.20396 -37.71332,-14.84086 -7.57844,7.67968 -16.76887,16.73088 -24.36357,24.39488 9.51814,9.95554 22.16678,20.38624 36.66095,21.10921 4.76246,-0.2696 20.44497,5.44649 7.21078,5.76284 -5.70445,-0.71855 -14.76521,0.41941 -6.55846,6.67025 9.29846,10.58373 17.40269,22.72555 20.25608,36.72717 5.62064,16.66007 20.55488,29.12833 37.69739,32.59263 16.94693,4.2774 36.15001,4.83238 51.7877,-3.67404 4.34011,-7.01838 4.79119,-21.63929 17.40935,-17.14629 11.93049,-0.8618 4.52485,-16.26204 13.40724,-21.19821 6.1605,-5.94687 7.14051,-23.86084 -5.0224,-15.2971 -10.64492,-5.98026 6.05415,-16.45024 12.29229,-19.55409 15.84618,-10.03397 33.0382,-18.14906 47.84765,-29.68418 -2.80715,-6.46588 -10.64789,-11.39205 -15.33891,-17.11548 -4.53251,-4.5134 -9.06776,-9.02686 -13.59859,-13.54022 z"
         id="path4665"
         inkscape:connector-curvature="0"
         sodipodi:nodetypes="cccccccccccccccccccc" />
      <path
         style="font-size:medium;font-style:normal;font-variant:normal;font-weight:normal;font-stretch:normal;text-indent:0;text-align:start;text-decoration:none;line-height:normal;letter-spacing:normal;word-spacing:normal;text-transform:none;direction:ltr;block-progression:tb;writing-mode:lr-tb;text-anchor:start;baseline-shift:baseline;color:#000000;fill:none;stroke:#7d7d7d;stroke-width:3;stroke-miterlimit:4;stroke-opacity:1;stroke-dasharray:none;marker:none;visibility:visible;display:inline;overflow:visible;enable-background:accumulate;font-family:Sans;-inkscape-font-specification:Sans"
         d="M 297.01432,433.86218 C 235.619,496.55597 173.52825,558.56294 111.64051,620.76942 c 44.32058,40.99242 101.04303,70.07915 161.3149,77.22676 32.10326,2.45195 64.90219,1.61881 95.7038,-8.68638 44.24627,-13.30943 85.1922,-37.13909 119.70028,-67.57463 C 465.46028,597.81876 440.75915,575.30031 417.36364,551.7269 377.19203,512.49726 337.61712,472.64715 297.01432,433.86218 z"
         id="path5037-7-2"
         inkscape:connector-curvature="0" />
    </g>
  </g>
</svg>
