<?xml version="1.0" encoding="UTF-8" standalone="no"?>
<!-- Created with Inkscape (http://www.inkscape.org/) -->

<svg
   xmlns:dc="http://purl.org/dc/elements/1.1/"
   xmlns:cc="http://creativecommons.org/ns#"
   xmlns:rdf="http://www.w3.org/1999/02/22-rdf-syntax-ns#"
   xmlns:svg="http://www.w3.org/2000/svg"
   xmlns="http://www.w3.org/2000/svg"
   xmlns:sodipodi="http://sodipodi.sourceforge.net/DTD/sodipodi-0.dtd"
   xmlns:inkscape="http://www.inkscape.org/namespaces/inkscape"
   width="379.71899"
   height="268.28757"
   id="svg3288"
   version="1.1"
   inkscape:version="0.48.4 r9939"
   sodipodi:docname="MEBiCom-MV Zoom.svg">
  <defs
     id="defs3290" />
  <sodipodi:namedview
     id="base"
     pagecolor="#ffffff"
     bordercolor="#666666"
     borderopacity="1.0"
     inkscape:pageopacity="0.0"
     inkscape:pageshadow="2"
     inkscape:zoom="1.86"
     inkscape:cx="173.26116"
     inkscape:cy="174.15642"
     inkscape:document-units="px"
     inkscape:current-layer="layer1"
     showgrid="true"
     inkscape:snap-bbox="true"
     inkscape:bbox-nodes="true"
     inkscape:bbox-paths="true"
     inkscape:snap-bbox-edge-midpoints="true"
     inkscape:snap-bbox-midpoints="true"
     fit-margin-top="0"
     fit-margin-left="0"
     fit-margin-right="0"
     fit-margin-bottom="0"
     inkscape:window-width="1231"
     inkscape:window-height="776"
     inkscape:window-x="49"
     inkscape:window-y="24"
     inkscape:window-maximized="1"
     inkscape:snap-global="false">
    <inkscape:grid
       type="xygrid"
       id="grid3345"
       empspacing="5"
       visible="true"
       enabled="true"
       snapvisiblegridlinesonly="true"
       originx="-110.14051px"
       originy="-351.71243px" />
  </sodipodi:namedview>
  <metadata
     id="metadata3293">
    <rdf:RDF>
      <cc:Work
         rdf:about="">
        <dc:format>image/svg+xml</dc:format>
        <dc:type
           rdf:resource="http://purl.org/dc/dcmitype/StillImage" />
        <dc:title />
      </cc:Work>
    </rdf:RDF>
  </metadata>
  <g
     inkscape:label="Layer 1"
     inkscape:groupmode="layer"
     id="layer1"
     transform="translate(-110.14051,-432.36218)">
    <g
       id="g3011">
      <path
         sodipodi:nodetypes="ccsccccsccc"
         inkscape:connector-curvature="0"
         id="path5369"
         transform="translate(110.14051,432.36218)"
         d="m 146.0412,42.366597 c -1.64456,1.715899 -21.31897,25.49819 -58.69745,61.070903 9.78171,33.13136 -12.15445,81.61348 3.625,130.125 1.537903,4.72806 3.154782,9.76994 4.78125,14.8125 21.50741,8.58317 44.02338,14.5178 67.0625,17.25 32.10326,2.45195 64.91714,1.61769 95.71875,-8.6875 5.31885,-1.59993 10.56324,-3.35283 15.78125,-5.25 4.9211,-17.51834 8.28684,-35.30373 8.90625,-51.71875 2.10945,-55.90287 -3.25,-105.875 -3.25,-105.875 L 218.30472,31.118859 c -23.14189,0.927993 -45.70649,7.327965 -72.26352,11.247738 z"
         style="font-size:medium;font-style:normal;font-variant:normal;font-weight:normal;font-stretch:normal;text-indent:0;text-align:start;text-decoration:none;line-height:normal;letter-spacing:normal;word-spacing:normal;text-transform:none;direction:ltr;block-progression:tb;writing-mode:lr-tb;text-anchor:start;baseline-shift:baseline;color:#000000;fill:#969696;fill-opacity:1;stroke:none;stroke-width:2;marker:none;visibility:visible;display:inline;overflow:visible;enable-background:accumulate;font-family:Sans;-inkscape-font-specification:Sans" />
      <path
         style="font-size:medium;font-style:normal;font-variant:normal;font-weight:normal;font-stretch:normal;text-indent:0;text-align:start;text-decoration:none;line-height:normal;letter-spacing:normal;word-spacing:normal;text-transform:none;direction:ltr;block-progression:tb;writing-mode:lr-tb;text-anchor:start;baseline-shift:baseline;color:#000000;fill:none;stroke:#7d7d7d;stroke-width:3;stroke-miterlimit:4;stroke-opacity:1;stroke-dasharray:none;marker:none;visibility:visible;display:inline;overflow:visible;enable-background:accumulate;font-family:Sans;-inkscape-font-specification:Sans"
         d="M 297.01432,433.86218 C 235.619,496.55597 173.52825,558.56294 111.64051,620.76942 c 44.32058,40.99242 101.04303,70.07915 161.3149,77.22676 32.10326,2.45195 64.90219,1.61881 95.7038,-8.68638 44.24627,-13.30943 85.1922,-37.13909 119.70028,-67.57463 C 465.46028,597.81876 440.75915,575.30031 417.36364,551.7269 377.19203,512.49726 337.61712,472.64715 297.01432,433.86218 z"
         id="path5037-7"
         inkscape:connector-curvature="0" />
      <path
         sodipodi:nodetypes="cccccccccccccccccccccccccc"
         inkscape:connector-curvature="0"
         id="path4983-8"
         transform="translate(110.14051,432.36218)"
         d="m 215.28125,34.6875 c -22.88883,1.834 -48.514,5.83597 -70.8169,10.75 -18.40254,19.40577 -32.86847,31.782617 -53.247801,54.086414 0.15033,8.796866 4.519251,22.074476 6.314701,30.694836 10.48698,-2.71648 22.56452,-2.20804 30.5625,6.09375 10.22541,10.25607 14.21794,24.74835 15.25,38.78125 0.18526,5.11682 7.84036,27.15481 8.65625,11.53125 -0.56311,-12.83253 -1.58309,-29.34671 11.25,-36.875 9.08997,-0.68206 19.52068,0.86334 28.375,2.625 11.24362,7.04707 13.05597,17.8441 18.4375,28.0625 2.27648,5.36153 11.34885,21.64914 10.53125,21.375 -10.46685,-9.76896 -17.67304,-38.7796 -31.15625,-46.15625 -7.72832,-1.97567 -25.03335,2.69457 -24.96875,-5.1875 -7.87987,7.88928 -12.10402,20.36254 -11.5625,31.9375 -1.76595,18.60581 -2.46644,39.96922 -17.3125,53.4375 -7.53078,5.68617 -8.27154,14.55077 -7.125,23.3125 11.27482,2.92977 22.74282,5.093 34.34375,6.46875 23.54136,1.79802 47.45987,1.83085 70.6875,-2.34375 0.27305,-1.19833 0.53515,-2.39 0.78125,-3.59375 3.14247,-16.61472 -8.20749,-31.08516 -11.46875,-46.8125 -5.71536,-12.36492 3.17035,-28.23534 -8.46875,-38.09375 -6.77506,-11.9308 -1.6366,-28.26284 6.1875,-38.65625 9.33173,-12.85461 25.08941,-13.91646 39.21875,-16.09375 11.00477,-3.65615 15.50877,-20.168822 16.75,-30.350352 -20.3148,-19.71503 -36.79633,-36.697629 -57.11913,-56.401849 z"
         style="font-size:medium;font-style:normal;font-variant:normal;font-weight:normal;font-stretch:normal;text-indent:0;text-align:start;text-decoration:none;line-height:normal;letter-spacing:normal;word-spacing:normal;text-transform:none;direction:ltr;block-progression:tb;writing-mode:lr-tb;text-anchor:start;baseline-shift:baseline;color:#000000;fill:#ffff00;fill-opacity:1;stroke:none;stroke-width:1;marker:none;visibility:visible;display:inline;overflow:visible;enable-background:accumulate;font-family:Sans;-inkscape-font-specification:Sans" />
      <path
         id="path4941-6"
         transform="translate(110.14051,432.36218)"
         d="M 261.75 123.46875 C 252.02676 128.83059 252.49412 142.30818 252.125 152.0625 C 253.30571 173.7295 256.18381 214.95706 250.1875 217.1875 C 244.19119 219.41794 235.96715 204.64007 226.8125 201.125 C 221.70315 209.5914 231.70708 224.58128 234.8125 234.59375 C 239.59528 243.44455 239.64597 252.96111 237.875 262.4375 C 244.83509 261.01968 251.73664 259.21075 258.53125 256.9375 C 263.42282 255.4661 268.25584 253.87952 273.0625 252.15625 C 280.79832 225.03219 283.62977 196.59961 282.53125 168.40625 C 283.20814 152.61867 274.84562 138.21943 265.875 125.90625 C 264.65265 124.94343 263.45195 123.47917 261.75 123.46875 z M 99.09375 132.53125 C 95.888632 132.20858 93.894834 138.33391 92.1875 144 C 87.53144 169.13414 87.00229 185.52955 90.5 214 C 91.200474 225.96175 94.220939 237.74593 98.21875 249.34375 C 108.46266 253.32116 118.92355 256.72134 129.5625 259.4375 C 128.97673 255.27243 128.79109 251.06332 129.09375 246.8125 C 133.34187 236.38944 144.06909 229.98044 147.59375 218.9375 C 151.74306 212.95724 155.78994 190.77441 143.25 198.1875 C 129.60972 206.80928 116.20936 219.70951 115.28125 200.78125 C 114.35314 181.85299 116.44008 165.20797 107.625 144.4375 C 104.04387 135.9995 101.28673 132.75202 99.09375 132.53125 z "
         style="font-size:medium;font-style:normal;font-variant:normal;font-weight:normal;font-stretch:normal;text-indent:0;text-align:start;text-decoration:none;line-height:normal;letter-spacing:normal;word-spacing:normal;text-transform:none;direction:ltr;block-progression:tb;writing-mode:lr-tb;text-anchor:start;baseline-shift:baseline;color:#000000;fill:#ff0000;fill-opacity:1;stroke:none;stroke-width:1;marker:none;visibility:visible;display:inline;overflow:visible;enable-background:accumulate;font-family:Sans;-inkscape-font-specification:Sans" />
      <path
         style="font-size:medium;font-style:normal;font-variant:normal;font-weight:normal;font-stretch:normal;text-indent:0;text-align:start;text-decoration:none;line-height:normal;letter-spacing:normal;word-spacing:normal;text-transform:none;direction:ltr;block-progression:tb;writing-mode:lr-tb;text-anchor:start;baseline-shift:baseline;color:#000000;fill:#ffff00;fill-opacity:1;stroke:none;stroke-width:1;marker:none;visibility:visible;display:inline;overflow:visible;enable-background:accumulate;font-family:Sans;-inkscape-font-specification:Sans"
         d="m 360.95971,560.15537 c -6.0301,1.06251 -12.31002,1.57984 -17.745,4.67517 -6.39522,3.44811 -13.0333,8.37781 -14.81914,15.8256 -1.96305,8.37598 -2.34908,17.23525 -0.69551,25.69695 0.63776,3.10441 3.17243,5.34484 3.86895,8.45853 1.88091,4.66399 1.58892,9.89397 3.6134,14.49147 2.65143,4.79796 6.046,3.66979 10.45473,6.53523 3.37188,2.01987 6.44791,11.36407 12.04117,9.44205 5.59326,-1.92203 -0.17488,-56.39831 0.67148,-72.81263 0.41533,-4.17976 1.69848,-8.22286 2.60992,-12.31237 z"
         id="path4935-7"
         inkscape:connector-curvature="0"
         sodipodi:nodetypes="ccccccczcc" />
      <path
         inkscape:connector-curvature="0"
         id="path4925-2"
         d="m 219.16276,566.76474 c -4.00966,1.6971 0.13212,6.26767 0.87244,8.96614 2.66236,5.34861 4.5159,11.11469 4.97912,17.09105 1.85179,14.46303 1.04133,29.20329 3.86548,43.54624 1.45398,3.65968 6.42806,4.11157 9.44308,2.18897 5.17492,-2.66315 8.19518,-8.20704 13.55997,-10.58377 3.88472,0.55746 5.97989,-3.98595 4.52601,-7.17433 -1.18839,-5.37569 -3.71424,-10.33183 -5.15716,-15.6362 -2.81825,-8.51806 -4.55405,-17.52281 -8.98989,-25.40889 -2.86109,-4.8264 -7.57935,-8.18448 -12.7005,-10.27653 -3.26441,-1.50083 -6.76411,-2.71997 -10.39855,-2.71268 z"
         style="font-size:medium;font-style:normal;font-variant:normal;font-weight:normal;font-stretch:normal;text-indent:0;text-align:start;text-decoration:none;line-height:normal;letter-spacing:normal;word-spacing:normal;text-transform:none;direction:ltr;block-progression:tb;writing-mode:lr-tb;text-anchor:start;baseline-shift:baseline;color:#000000;fill:#ffff00;fill-opacity:1;stroke:none;stroke-width:1;marker:none;visibility:visible;display:inline;overflow:visible;enable-background:accumulate;font-family:Sans;-inkscape-font-specification:Sans" />
      <path
         style="font-size:medium;font-style:normal;font-variant:normal;font-weight:normal;font-stretch:normal;text-indent:0;text-align:start;text-decoration:none;line-height:normal;letter-spacing:normal;word-spacing:normal;text-transform:none;direction:ltr;block-progression:tb;writing-mode:lr-tb;text-anchor:start;baseline-shift:baseline;color:#000000;fill:none;stroke:#7d7d7d;stroke-width:3;stroke-miterlimit:4;stroke-opacity:1;stroke-dasharray:none;marker:none;visibility:visible;display:inline;overflow:visible;enable-background:accumulate;font-family:Sans;-inkscape-font-specification:Sans"
         d="M 297.01432,433.86218 C 235.619,496.55597 173.52825,558.56294 111.64051,620.76942 c 44.32058,40.99242 101.04303,70.07915 161.3149,77.22676 32.10326,2.45195 64.90219,1.61881 95.7038,-8.68638 44.24627,-13.30943 85.1922,-37.13909 119.70028,-67.57463 C 465.46028,597.81876 440.75915,575.30031 417.36364,551.7269 377.19203,512.49726 337.61712,472.64715 297.01432,433.86218 z"
         id="path5037-7-3"
         inkscape:connector-curvature="0" />
    </g>
  </g>
</svg>
