<?xml version="1.0" encoding="UTF-8" standalone="no"?>
<!-- Created with Inkscape (http://www.inkscape.org/) -->

<svg
   xmlns:dc="http://purl.org/dc/elements/1.1/"
   xmlns:cc="http://creativecommons.org/ns#"
   xmlns:rdf="http://www.w3.org/1999/02/22-rdf-syntax-ns#"
   xmlns:svg="http://www.w3.org/2000/svg"
   xmlns="http://www.w3.org/2000/svg"
   xmlns:sodipodi="http://sodipodi.sourceforge.net/DTD/sodipodi-0.dtd"
   xmlns:inkscape="http://www.inkscape.org/namespaces/inkscape"
   width="379.71899"
   height="268.28757"
   id="svg3288"
   version="1.1"
   inkscape:version="0.48.4 r9939"
   sodipodi:docname="MELUPV.svg">
  <defs
     id="defs3290" />
  <sodipodi:namedview
     id="base"
     pagecolor="#ffffff"
     bordercolor="#666666"
     borderopacity="1.0"
     inkscape:pageopacity="0.0"
     inkscape:pageshadow="2"
     inkscape:zoom="1.2316035"
     inkscape:cx="100.53415"
     inkscape:cy="189.95007"
     inkscape:document-units="px"
     inkscape:current-layer="layer1"
     showgrid="true"
     inkscape:snap-bbox="true"
     inkscape:bbox-nodes="true"
     inkscape:bbox-paths="true"
     inkscape:snap-bbox-edge-midpoints="true"
     inkscape:snap-bbox-midpoints="true"
     fit-margin-top="0"
     fit-margin-left="0"
     fit-margin-right="0"
     fit-margin-bottom="0"
     inkscape:window-width="1231"
     inkscape:window-height="776"
     inkscape:window-x="49"
     inkscape:window-y="24"
     inkscape:window-maximized="1"
     inkscape:snap-global="false">
    <inkscape:grid
       type="xygrid"
       id="grid3345"
       empspacing="5"
       visible="true"
       enabled="true"
       snapvisiblegridlinesonly="true"
       originx="-110.14051px"
       originy="-351.71243px" />
  </sodipodi:namedview>
  <metadata
     id="metadata3293">
    <rdf:RDF>
      <cc:Work
         rdf:about="">
        <dc:format>image/svg+xml</dc:format>
        <dc:type
           rdf:resource="http://purl.org/dc/dcmitype/StillImage" />
        <dc:title></dc:title>
      </cc:Work>
    </rdf:RDF>
  </metadata>
  <g
     inkscape:label="Layer 1"
     inkscape:groupmode="layer"
     id="layer1"
     transform="translate(-110.14051,-432.36218)">
    <g
       id="g3763">
      <path
         id="path5365"
         transform="translate(110.14051,432.36218)"
         d="M 186.875 1.5 C 179.20058 9.3367237 171.50689 17.151758 163.8125 24.96875 C 161.83349 26.979239 159.85519 28.99068 157.875 31 C 152.15637 36.802947 146.44622 42.612033 140.71875 48.40625 C 136.75225 52.418809 132.78265 56.428558 128.8125 60.4375 C 125.06497 64.221806 121.31287 67.999754 117.5625 71.78125 C 109.83915 79.568366 102.10777 87.347144 94.375 95.125 C 86.418902 103.12748 78.462288 111.12851 70.5 119.125 C 71.475639 122.19778 73.796293 132.45232 69 150.71875 C 61.982949 174.35626 50.261744 199.60288 48.59375 224.40625 C 81.506316 244.95796 118.31333 259.32707 156.6875 264.84375 C 158.72908 265.13725 160.76236 265.38187 162.8125 265.625 C 166.82541 265.93149 170.8452 266.18328 174.875 266.375 C 180.91908 266.66263 186.97968 266.81977 193.03125 266.78125 C 197.06644 266.75551 201.09952 266.63841 205.125 266.4375 C 207.13728 266.33708 209.14839 266.21124 211.15625 266.0625 C 214.94323 265.78196 218.73555 265.40535 222.5 264.9375 C 223.01047 264.87398 223.52128 264.81718 224.03125 264.75 C 227.73803 264.26228 231.41864 263.6919 235.09375 263 C 240.03624 262.0694 244.94493 260.93493 249.8125 259.59375 C 251.75969 259.05727 253.69221 258.48246 255.625 257.875 C 256.59137 257.57127 257.5687 257.25954 258.53125 256.9375 C 302.2316 243.79229 342.69876 220.39843 376.9375 190.5 C 371.54547 182.10331 362.67607 174.07114 362.6875 174 C 362.23456 173.61076 356.95091 168.4393 333.1875 144.8125 C 332.86449 144.50034 332.54169 144.18722 332.21875 143.875 C 328.52119 140.30015 324.83206 136.71818 321.15625 133.125 C 319.45697 131.46941 317.75341 129.81878 316.0625 128.15625 C 313.10083 125.24428 310.14174 122.32021 307.21875 119.375 C 302.1973 114.47129 297.19348 109.5448 292.1875 104.625 C 272.1642 84.944666 252.24761 65.175802 232.21875 45.5 C 217.19612 30.744955 202.10105 16.044364 186.875 1.5 z "
         style="font-size:medium;font-style:normal;font-variant:normal;font-weight:normal;font-stretch:normal;text-indent:0;text-align:start;text-decoration:none;line-height:normal;letter-spacing:normal;word-spacing:normal;text-transform:none;direction:ltr;block-progression:tb;writing-mode:lr-tb;text-anchor:start;baseline-shift:baseline;color:#000000;fill:#969696;fill-opacity:1;stroke:none;stroke-width:1;marker:none;visibility:visible;display:inline;overflow:visible;enable-background:accumulate;font-family:Sans;-inkscape-font-specification:Sans" />
      <path
         inkscape:connector-curvature="0"
         id="path5355"
         d="m 299.5009,436.06375 -0.6876,0.6877 -14.625,14.4375 c -7.2458,7.15584 -11.816,12.24666 -13.75,15.4375 -0.4836,0.7977 -0.7882,1.4634 -0.9374,2.125 -0.15,0.6616 -0.096,1.50032 0.5,2 0.5964,0.49968 1.342,0.5329 2.0624,0.4375 0.7204,-0.0954 1.512,-0.37088 2.5,-0.75 0.3794,-0.1456 1.5806,-0.41252 3.1876,-0.75 1.6068,-0.33748 3.651,-0.7641 6.0624,-1.1875 4.8228,-0.8468 10.9958,-1.81258 17.25,-2.6875 l 22.75,-3.1875 2,-0.25 -1.4376,-1.4375 -12.0624,-12.125 -12.125,-12.0625 -0.6874,-0.6875 z"
         style="font-size:medium;font-style:normal;font-variant:normal;font-weight:normal;font-stretch:normal;text-indent:0;text-align:start;text-decoration:none;line-height:normal;letter-spacing:normal;word-spacing:normal;text-transform:none;direction:ltr;block-progression:tb;writing-mode:lr-tb;text-anchor:start;baseline-shift:baseline;color:#000000;fill:#ffffff;fill-opacity:1;stroke:none;stroke-width:1;marker:none;visibility:visible;display:inline;overflow:visible;enable-background:accumulate;font-family:Sans;-inkscape-font-specification:Sans" />
      <path
         inkscape:connector-curvature="0"
         id="path5185"
         d="m 390.5009,593.12635 c 0.122,0.0344 0.198,0.1874 0.3124,0.1874 0,0 -0.07,0.012 -0.188,-0.0624 -0.05,-0.0332 -0.086,-0.0768 -0.124,-0.125 z"
         style="font-size:medium;font-style:normal;font-variant:normal;font-weight:normal;font-stretch:normal;text-indent:0;text-align:start;text-decoration:none;line-height:normal;letter-spacing:normal;word-spacing:normal;text-transform:none;direction:ltr;block-progression:tb;writing-mode:lr-tb;text-anchor:start;baseline-shift:baseline;color:#000000;fill:none;stroke:none;stroke-width:1;marker:none;visibility:visible;display:inline;overflow:visible;enable-background:accumulate;font-family:Sans;-inkscape-font-specification:Sans" />
      <path
         sodipodi:nodetypes="scccccccccsssccs"
         inkscape:connector-curvature="0"
         id="path5281-7"
         transform="translate(110.14051,432.36218)"
         d="m 208.75,44.46875 c -1.2277,0.0079 -2.47991,0.09701 -3.75,0.25 -21.37618,2.24644 -42.64564,5.38042 -64,7.8125 -19.22596,19.39656 -45.75865,44.01967 -63.28125,65.03125 -4.37796,15.82334 -0.9186,25.77559 -1,36.53125 -2.191983,40.44848 -17.32127,53.35211 -18.03125,76.34375 32.064963,18.35046 67.43142,30.83603 104.125,35.1875 32.10326,2.45195 64.91714,1.61769 95.71875,-8.6875 12.10629,-3.64162 -22.31624,-21.06126 -5.89728,-34.31662 36.71769,38.70943 40.64606,21.49887 75.05353,3.66037 C 300.97576,191.95286 226.73888,132.73695 246.3125,128 c 21.0108,-5.08476 56.69532,28.24093 70.125,38.71875 13.42968,10.47782 15.50954,19.29295 26.96875,7.15625 7.96199,-8.43272 -12.35542,-19.57975 -17.5625,-32.53125 C 293.38239,109.54477 285.92023,103.56022 253.53125,71.6875 240.94724,59.930856 227.16556,44.350767 208.75,44.46875 z"
         style="font-size:medium;font-style:normal;font-variant:normal;font-weight:normal;font-stretch:normal;text-indent:0;text-align:start;text-decoration:none;line-height:normal;letter-spacing:normal;word-spacing:normal;text-transform:none;direction:ltr;block-progression:tb;writing-mode:lr-tb;text-anchor:start;baseline-shift:baseline;color:#000000;fill:#ffff00;fill-opacity:1;stroke:none;stroke-width:1;marker:none;visibility:visible;display:inline;overflow:visible;enable-background:accumulate;font-family:Sans;-inkscape-font-specification:Sans" />
      <path
         style="font-size:medium;font-style:normal;font-variant:normal;font-weight:normal;font-stretch:normal;text-indent:0;text-align:start;text-decoration:none;line-height:normal;letter-spacing:normal;word-spacing:normal;text-transform:none;direction:ltr;block-progression:tb;writing-mode:lr-tb;text-anchor:start;baseline-shift:baseline;color:#000000;fill:none;stroke:#7d7d7d;stroke-width:3;stroke-miterlimit:4;stroke-opacity:1;stroke-dasharray:none;marker:none;visibility:visible;display:inline;overflow:visible;enable-background:accumulate;font-family:Sans;-inkscape-font-specification:Sans"
         d="M 297.01432,433.86218 C 235.619,496.55597 173.52825,558.56294 111.64051,620.76942 c 44.32058,40.99242 101.04303,70.07915 161.3149,77.22676 32.10326,2.45195 64.90219,1.61881 95.7038,-8.68638 44.24627,-13.30943 85.1922,-37.13909 119.70028,-67.57463 C 465.46028,597.81876 440.75915,575.30031 417.36364,551.7269 377.19203,512.49726 337.61712,472.64715 297.01432,433.86218 z"
         id="path5037-7"
         inkscape:connector-curvature="0" />
    </g>
  </g>
</svg>
