<?xml version="1.0" encoding="UTF-8" standalone="no"?>
<!-- Created with Inkscape (http://www.inkscape.org/) -->

<svg
   xmlns:dc="http://purl.org/dc/elements/1.1/"
   xmlns:cc="http://creativecommons.org/ns#"
   xmlns:rdf="http://www.w3.org/1999/02/22-rdf-syntax-ns#"
   xmlns:svg="http://www.w3.org/2000/svg"
   xmlns="http://www.w3.org/2000/svg"
   xmlns:sodipodi="http://sodipodi.sourceforge.net/DTD/sodipodi-0.dtd"
   xmlns:inkscape="http://www.inkscape.org/namespaces/inkscape"
   width="379.71899"
   height="268.28757"
   id="svg3288"
   version="1.1"
   inkscape:version="0.48.4 r9939"
   sodipodi:docname="TGRVO.svg">
  <defs
     id="defs3290" />
  <sodipodi:namedview
     id="base"
     pagecolor="#ffffff"
     bordercolor="#666666"
     borderopacity="1.0"
     inkscape:pageopacity="0.0"
     inkscape:pageshadow="2"
     inkscape:zoom="0.45"
     inkscape:cx="205.13185"
     inkscape:cy="133.212"
     inkscape:document-units="px"
     inkscape:current-layer="layer1"
     showgrid="true"
     inkscape:snap-bbox="true"
     inkscape:bbox-nodes="true"
     inkscape:bbox-paths="true"
     inkscape:snap-bbox-edge-midpoints="true"
     inkscape:snap-bbox-midpoints="true"
     fit-margin-top="0"
     fit-margin-left="0"
     fit-margin-right="0"
     fit-margin-bottom="0"
     inkscape:window-width="1231"
     inkscape:window-height="776"
     inkscape:window-x="49"
     inkscape:window-y="24"
     inkscape:window-maximized="1"
     inkscape:snap-global="false">
    <inkscape:grid
       type="xygrid"
       id="grid3345"
       empspacing="5"
       visible="true"
       enabled="true"
       snapvisiblegridlinesonly="true"
       originx="-110.14051px"
       originy="-351.71243px" />
  </sodipodi:namedview>
  <metadata
     id="metadata3293">
    <rdf:RDF>
      <cc:Work
         rdf:about="">
        <dc:format>image/svg+xml</dc:format>
        <dc:type
           rdf:resource="http://purl.org/dc/dcmitype/StillImage" />
        <dc:title />
      </cc:Work>
    </rdf:RDF>
  </metadata>
  <g
     inkscape:label="Layer 1"
     inkscape:groupmode="layer"
     id="layer1"
     transform="translate(-110.14051,-432.36218)">
    <g
       id="g3165">
      <path
         style="font-size:medium;font-style:normal;font-variant:normal;font-weight:normal;font-stretch:normal;text-indent:0;text-align:start;text-decoration:none;line-height:normal;letter-spacing:normal;word-spacing:normal;text-transform:none;direction:ltr;block-progression:tb;writing-mode:lr-tb;text-anchor:start;baseline-shift:baseline;color:#000000;fill:#ffffff;fill-opacity:1;stroke:#7d7d7d;stroke-width:3;stroke-miterlimit:4;stroke-opacity:1;stroke-dasharray:none;marker:none;visibility:visible;display:inline;overflow:visible;enable-background:accumulate;font-family:Sans;-inkscape-font-specification:Sans"
         d="M 297.01432,433.86218 C 235.619,496.55597 173.52825,558.56294 111.64051,620.76942 c 44.32058,40.99242 101.04303,70.07915 161.3149,77.22676 32.10326,2.45195 64.90219,1.61881 95.7038,-8.68638 44.24627,-13.30943 85.1922,-37.13909 119.70028,-67.57463 C 465.46028,597.81876 440.75915,575.30031 417.36364,551.7269 377.19203,512.49726 337.61712,472.64715 297.01432,433.86218 z"
         id="path5037-7"
         inkscape:connector-curvature="0" />
      <path
         sodipodi:nodetypes="csccccccc"
         inkscape:connector-curvature="0"
         id="path5037-7-3"
         d="m 320.79676,457.45593 c -47.35197,5.19273 -100.24564,55.95929 -105.78125,61.21875 -25.45807,24.18806 -47.33699,46.73165 -29.34375,89.5625 32.87259,60.13255 78.53018,37.37538 91.875,54.75 11.90692,12.96972 19.6724,24.29743 21.9375,36.125 18.79689,0.10621 42.08124,-3.27637 60.317,-7.77055 -9.69578,-23.71053 -16.1171,-42.02267 -21.0411,-53.51915 -6.39682,-28.94772 70.30462,16.90059 90.3491,-71.3978 -21.73729,-22.5938 -106.49187,-106.9882 -108.3125,-108.96875 z"
         style="font-size:medium;font-style:normal;font-variant:normal;font-weight:normal;font-stretch:normal;text-indent:0;text-align:start;text-decoration:none;line-height:normal;letter-spacing:normal;word-spacing:normal;text-transform:none;direction:ltr;block-progression:tb;writing-mode:lr-tb;text-anchor:start;baseline-shift:baseline;color:#000000;fill:#7d7d7d;fill-opacity:1;stroke:#7d7d7d;stroke-width:2.43674994;stroke-miterlimit:4;stroke-opacity:1;stroke-dasharray:none;marker:none;visibility:visible;display:inline;overflow:visible;enable-background:accumulate;font-family:Sans;-inkscape-font-specification:Sans" />
      <path
         sodipodi:nodetypes="cccccccccccccsc"
         inkscape:connector-curvature="0"
         id="path4979"
         d="m 322.31579,459.66573 c -12.29641,2.15375 -22.12332,4.6026 -37.82039,12.26837 -21.7328,11.07907 -114.14087,63.65244 -101.02248,118.40405 18.01281,54.08843 49.99678,60.60519 90.92775,62.51229 24.3574,-10.24584 28.1593,-22.11011 57.34302,-25.68596 36.70229,-5.22227 68.3422,0.87256 87.59085,-37.67976 4.21114,-8.31657 6.88511,-17.23415 8.20711,-26.36993 -7.26514,-7.02792 -14.52663,-14.04956 -21.63179,-21.20875 -27.96231,-27.30662 -55.59976,-54.96541 -83.59407,-82.24031 z m -56.32164,33.64633 c -33.97301,30.12562 -21.66577,72.01258 -8.71476,98.20329 3.7632,9.32739 5.70386,13.11418 13.65032,18.9525 9.74293,9.56419 -13.89217,6.6142 -22.5625,-4.79454 -13.52881,-2.09772 -19.94613,-14.51932 -23.29579,-32.12336 -3.34967,-17.60402 5.63751,-57.29517 40.92273,-80.23789 z"
         style="font-size:medium;font-style:normal;font-variant:normal;font-weight:normal;font-stretch:normal;text-indent:0;text-align:start;text-decoration:none;line-height:normal;letter-spacing:normal;word-spacing:normal;text-transform:none;direction:ltr;block-progression:tb;writing-mode:lr-tb;text-anchor:start;baseline-shift:baseline;color:#000000;fill:#ff0000;fill-opacity:1;stroke:none;stroke-width:1;marker:none;visibility:visible;display:inline;overflow:visible;enable-background:accumulate;font-family:Sans;-inkscape-font-specification:Sans" />
      <path
         id="path4973"
         d="m 333.174,474.07753 c -14.76169,0.15597 -26.82485,5.11463 -33.3925,14.83484 -10.12233,19.93861 -5.95285,43.38479 -1.24094,64.35954 4.71192,20.97473 29.13771,34.18752 36.1564,40.33046 7.0187,6.14294 28.28714,15.23435 47.46587,9.8429 19.17872,-5.39146 24.68433,-18.87567 27.55445,-54.37563 0.0333,-1.1219 -0.006,-2.26325 -0.0281,-3.38437 -1.26185,-1.25741 -2.52509,-2.51557 -3.77922,-3.77923 -23.02513,-22.48518 -45.82121,-45.19668 -68.78746,-67.7439 -1.33845,-0.0612 -2.6504,-0.0983 -3.94844,-0.0846 z"
         style="font-size:medium;font-style:normal;font-variant:normal;font-weight:normal;font-stretch:normal;text-indent:0;text-align:start;text-decoration:none;line-height:normal;letter-spacing:normal;word-spacing:normal;text-transform:none;direction:ltr;block-progression:tb;writing-mode:lr-tb;text-anchor:start;baseline-shift:baseline;color:#000000;fill:#ffff00;fill-opacity:1;stroke:none;stroke-width:1;marker:none;visibility:visible;display:inline;overflow:visible;enable-background:accumulate;font-family:Sans;-inkscape-font-specification:Sans"
         inkscape:connector-curvature="0" />
      <path
         style="font-size:medium;font-style:normal;font-variant:normal;font-weight:normal;font-stretch:normal;text-indent:0;text-align:start;text-decoration:none;line-height:normal;letter-spacing:normal;word-spacing:normal;text-transform:none;direction:ltr;block-progression:tb;writing-mode:lr-tb;text-anchor:start;baseline-shift:baseline;color:#000000;fill:none;stroke:#7d7d7d;stroke-width:3;stroke-miterlimit:4;stroke-opacity:1;stroke-dasharray:none;marker:none;visibility:visible;display:inline;overflow:visible;enable-background:accumulate;font-family:Sans;-inkscape-font-specification:Sans"
         d="M 297.01432,433.86218 C 235.619,496.55597 173.52825,558.56294 111.64051,620.76942 c 44.32058,40.99242 101.04303,70.07915 161.3149,77.22676 32.10326,2.45195 64.90219,1.61881 95.7038,-8.68638 44.24627,-13.30943 85.1922,-37.13909 119.70028,-67.57463 C 465.46028,597.81876 440.75915,575.30031 417.36364,551.7269 377.19203,512.49726 337.61712,472.64715 297.01432,433.86218 z"
         id="path5037-7-2"
         inkscape:connector-curvature="0" />
      <path
         sodipodi:nodetypes="sccccccccccccssss"
         inkscape:connector-curvature="0"
         id="path4915-2"
         d="m 268.98426,492.61218 c -5.29588,-0.15222 -12.1435,3.67828 -17.375,7.4375 -23.66167,18.00448 -60.34022,50.66873 -52.1875,79.46875 19.25428,66.5581 54.91185,51.76356 65.9375,60.125 3.52864,5.00738 7.84983,10.92213 10.09375,13.4375 24.95224,-8.53255 35.40625,3.59375 35.40625,3.59375 0,0 -20.89985,-9.55401 -32.5,0.375 12.84557,15.83114 21.78635,29.38701 23.8902,41.61205 17.86213,0.0974 37.51731,-1.30805 54.89555,-5.3125 -8.86225,-17.05722 -13.13235,-37.22003 -24.28575,-60.48705 -19.17377,-2.10246 -21.84076,12.93424 -20.5,22.90625 -2.01219,-1.71963 -5.99987,-13.95256 6.65625,-23.1875 5.46528,-0.86326 6.50651,-4.20894 11.09375,-3.90625 -21.13068,-21.44539 -37.48082,-29.48666 -48.28125,-53.78125 -10.80045,-24.29459 -11.35901,-39.82537 -9.03125,-60.09375 2.32775,-20.2684 3.82098,-20.27792 -1.65625,-21.84375 -0.68465,-0.19573 -1.3997,-0.322 -2.15625,-0.34375 z"
         style="font-size:medium;font-style:normal;font-variant:normal;font-weight:normal;font-stretch:normal;text-indent:0;text-align:start;text-decoration:none;line-height:normal;letter-spacing:normal;word-spacing:normal;text-transform:none;direction:ltr;block-progression:tb;writing-mode:lr-tb;text-anchor:start;baseline-shift:baseline;color:#000000;fill:#ffff00;fill-opacity:1;stroke:none;stroke-width:1;marker:none;visibility:visible;display:inline;overflow:visible;enable-background:accumulate;font-family:Sans;-inkscape-font-specification:Sans" />
      <path
         style="font-size:medium;font-style:normal;font-variant:normal;font-weight:normal;font-stretch:normal;text-indent:0;text-align:start;text-decoration:none;line-height:normal;letter-spacing:normal;word-spacing:normal;text-transform:none;direction:ltr;block-progression:tb;writing-mode:lr-tb;text-anchor:start;baseline-shift:baseline;color:#000000;fill:none;stroke:#7d7d7d;stroke-width:3;stroke-miterlimit:4;stroke-opacity:1;stroke-dasharray:none;marker:none;visibility:visible;display:inline;overflow:visible;enable-background:accumulate;font-family:Sans;-inkscape-font-specification:Sans"
         d="M 297.01432,433.86218 C 235.619,496.55597 173.52825,558.56294 111.64051,620.76942 c 44.32058,40.99242 101.04303,70.07915 161.3149,77.22676 32.10326,2.45195 64.90219,1.61881 95.7038,-8.68638 44.24627,-13.30943 85.1922,-37.13909 119.70028,-67.57463 C 465.46028,597.81876 440.75915,575.30031 417.36364,551.7269 377.19203,512.49726 337.61712,472.64715 297.01432,433.86218 z"
         id="path5037-7-2-1"
         inkscape:connector-curvature="0" />
    </g>
  </g>
</svg>
