<?xml version="1.0" encoding="UTF-8" standalone="no"?>
<!-- Created with Inkscape (http://www.inkscape.org/) -->

<svg
   xmlns:dc="http://purl.org/dc/elements/1.1/"
   xmlns:cc="http://creativecommons.org/ns#"
   xmlns:rdf="http://www.w3.org/1999/02/22-rdf-syntax-ns#"
   xmlns:svg="http://www.w3.org/2000/svg"
   xmlns="http://www.w3.org/2000/svg"
   xmlns:sodipodi="http://sodipodi.sourceforge.net/DTD/sodipodi-0.dtd"
   xmlns:inkscape="http://www.inkscape.org/namespaces/inkscape"
   width="379.71899"
   height="268.28757"
   id="svg3288"
   version="1.1"
   inkscape:version="0.48.4 r9939"
   sodipodi:docname="TGSaxBasal.svg">
  <defs
     id="defs3290" />
  <sodipodi:namedview
     id="base"
     pagecolor="#ffffff"
     bordercolor="#666666"
     borderopacity="1.0"
     inkscape:pageopacity="0.0"
     inkscape:pageshadow="2"
     inkscape:zoom="1.8375054"
     inkscape:cx="92.768137"
     inkscape:cy="83.750332"
     inkscape:document-units="px"
     inkscape:current-layer="layer1"
     showgrid="true"
     inkscape:snap-bbox="true"
     inkscape:bbox-nodes="true"
     inkscape:bbox-paths="true"
     inkscape:snap-bbox-edge-midpoints="true"
     inkscape:snap-bbox-midpoints="true"
     fit-margin-top="0"
     fit-margin-left="0"
     fit-margin-right="0"
     fit-margin-bottom="0"
     inkscape:window-width="1237"
     inkscape:window-height="776"
     inkscape:window-x="43"
     inkscape:window-y="24"
     inkscape:window-maximized="1"
     inkscape:snap-global="false">
    <inkscape:grid
       type="xygrid"
       id="grid3345"
       empspacing="5"
       visible="true"
       enabled="true"
       snapvisiblegridlinesonly="true"
       originx="-110.14051px"
       originy="-351.71243px" />
  </sodipodi:namedview>
  <metadata
     id="metadata3293">
    <rdf:RDF>
      <cc:Work
         rdf:about="">
        <dc:format>image/svg+xml</dc:format>
        <dc:type
           rdf:resource="http://purl.org/dc/dcmitype/StillImage" />
        <dc:title />
      </cc:Work>
    </rdf:RDF>
  </metadata>
  <g
     inkscape:label="Layer 1"
     inkscape:groupmode="layer"
     id="layer1"
     transform="translate(-110.14051,-432.36218)">
    <g
       id="g4178">
      <path
         style="font-size:medium;font-style:normal;font-variant:normal;font-weight:normal;font-stretch:normal;text-indent:0;text-align:start;text-decoration:none;line-height:normal;letter-spacing:normal;word-spacing:normal;text-transform:none;direction:ltr;block-progression:tb;writing-mode:lr-tb;text-anchor:start;baseline-shift:baseline;color:#000000;fill:#ffffff;stroke:#7d7d7d;stroke-width:3;stroke-miterlimit:4;stroke-opacity:1;stroke-dasharray:none;marker:none;visibility:visible;display:inline;overflow:visible;enable-background:accumulate;font-family:Sans;-inkscape-font-specification:Sans;fill-opacity:1"
         d="M 297.01432,433.86218 C 235.619,496.55597 173.52825,558.56294 111.64051,620.76942 c 44.32058,40.99242 101.04303,70.07915 161.3149,77.22676 32.10326,2.45195 64.90219,1.61881 95.7038,-8.68638 44.24627,-13.30943 85.1922,-37.13909 119.70028,-67.57463 C 465.46028,597.81876 440.75915,575.30031 417.36364,551.7269 377.19203,512.49726 337.61712,472.64715 297.01432,433.86218 z"
         id="path5037-7"
         inkscape:connector-curvature="0" />
      <path
         sodipodi:nodetypes="zcccczccccccczczc"
         style="font-size:medium;font-style:normal;font-variant:normal;font-weight:normal;font-stretch:normal;text-indent:0;text-align:start;text-decoration:none;line-height:normal;letter-spacing:normal;word-spacing:normal;text-transform:none;direction:ltr;block-progression:tb;writing-mode:lr-tb;text-anchor:start;baseline-shift:baseline;color:#000000;fill:#ff0000;fill-opacity:1;stroke:none;stroke-width:1;stroke-opacity:1;marker:none;visibility:visible;display:inline;overflow:visible;enable-background:accumulate;font-family:Sans;-inkscape-font-specification:Sans"
         d="m 171.33192,603.57418 c 3.71153,19.50585 10.81045,33.27195 25.80082,35.5963 9.60702,12.64126 35.81739,15.91527 25.02189,5.31782 -8.80493,-6.46905 -10.96811,-10.67343 -15.13786,-21.0085 -14.35015,-29.02016 -27.97724,-75.42331 9.66599,-108.8035 -39.0972,25.42129 -49.06239,69.39204 -45.35084,88.89788 z m 65.83374,-112.59843 c 23.63284,-11.54124 35.21239,-12.37467 58.00572,-16.26697 26.24774,0.82677 42.75721,8.05269 66.0725,22.4766 10.80506,7.13548 20.51032,24.94391 27.65049,36.34701 10.43102,27.94215 11.37067,60.67291 -2.31231,87.69547 -4.18765,8.54413 -11.18657,11.53484 -15.35899,18.97046 -12.56503,10.9826 -27.41781,22.90533 -43.58322,27.23618 -20.62481,7.11532 -37.85778,13.79363 -61.69343,12.0833 -23.83565,-1.71033 -33.42768,-4.33462 -58.42094,-15.6634 -14.78385,-5.0383 -52.07738,-29.17839 -46.34273,-82.6378 5.73465,-53.45941 51.90224,-77.96487 75.98291,-90.24085 z"
         id="path4979"
         inkscape:connector-curvature="0" />
      <path
         style="font-size:medium;font-style:normal;font-variant:normal;font-weight:normal;font-stretch:normal;text-indent:0;text-align:start;text-decoration:none;line-height:normal;letter-spacing:normal;word-spacing:normal;text-transform:none;direction:ltr;block-progression:tb;writing-mode:lr-tb;text-anchor:start;baseline-shift:baseline;color:#000000;fill:#ffff00;fill-opacity:1;stroke:none;stroke-width:1;stroke-opacity:1;marker:none;visibility:visible;display:inline;overflow:visible;enable-background:accumulate;font-family:Sans;-inkscape-font-specification:Sans"
         d="m 285.50443,494.97611 c -20.3532,5.22909 -40.81332,14.68548 -54.23051,31.38432 -11.13905,14.80295 -10.47327,34.26228 -10.07294,51.83757 1.48651,15.75743 3.46335,32.94128 14.7393,45.06804 5.91289,7.53365 13.34502,13.60724 21.86827,17.95719 8.24814,4.811 16.94572,9.75092 26.84709,9.3374 9.72033,0.79606 19.35866,-1.24516 29.04043,-1.22482 20.29118,-1.21657 46.77386,-22.29357 55.96859,-37.43925 5.16624,-12.53702 5.92568,-26.44643 6.22617,-39.85692 -0.81351,-32.11455 -22.08089,-63.59037 -53.18814,-73.44085 -11.81862,-4.00745 -24.84208,-6.89137 -37.19826,-3.62268 z"
         id="path4973"
         inkscape:connector-curvature="0"
         sodipodi:nodetypes="ccccccccccc" />
      <path
         sodipodi:nodetypes="cccccccccccccc"
         inkscape:connector-curvature="0"
         id="path4961"
         d="m 283.65151,510.16036 c -8.05529,1.28676 -17.02434,2.96154 -22.90797,9.02747 -22.53646,5.03007 -25.12526,11.92081 -2.39807,17.63283 10.92737,5.20846 31.57881,11.7882 40.84144,20.04923 9.36917,7.91011 16.50755,18.84328 19.36294,30.79498 -1.38849,8.60976 0.20453,12.49145 6.53536,26.11087 8.40424,19.32894 3.82993,26.75777 18.8981,8.21721 7.25002,-5.35225 13.76141,-23.14405 15.76073,-31.27847 1.12795,-11.25204 -1.67469,-24.03336 -11.07591,-31.25494 -6.7447,-6.16816 -15.1672,-10.24414 -22.00422,-16.17908 -3.24568,-6.67949 -1.70375,-15.47911 -8.04159,-20.6914 -0.86937,-3.82554 -9.2086,-3.58862 -5.51163,-4.80334 -4.18753,-6.03157 -12.5206,-7.91595 -19.5525,-8.20657 -3.31083,-0.0734 -6.6245,0.15621 -9.90668,0.58121 z"
         style="font-size:medium;font-style:normal;font-variant:normal;font-weight:normal;font-stretch:normal;text-indent:0;text-align:start;text-decoration:none;line-height:normal;letter-spacing:normal;word-spacing:normal;text-transform:none;direction:ltr;block-progression:tb;writing-mode:lr-tb;text-anchor:start;baseline-shift:baseline;color:#000000;fill:#ffff00;fill-opacity:1;stroke:#000000;stroke-width:1;stroke-opacity:1;marker:none;visibility:visible;display:inline;overflow:visible;enable-background:accumulate;font-family:Sans;-inkscape-font-specification:Sans" />
      <path
         id="path4955"
         d="m 278.32529,513.60635 c 2.25966,-0.46515 4.78542,-0.84583 7.33176,-1.07066 5.09262,-0.44887 10.29148,-0.3569 13.61852,0.39111 2.69485,0.60587 6.87203,2.40042 9.09427,3.88609 1.09049,0.72917 2.01324,1.20215 2.77306,1.51015 -0.8673,-0.28986 -1.8658,-0.67469 -2.98128,-1.25131 -8.43281,-4.3588 -14.46561,-4.92117 -28.07691,-2.66499 -4.62791,0.76708 -6.58507,0.99963 -7.98876,1.12305 0.21805,-0.1 0.24001,-0.13381 0.49599,-0.24612 1.47747,-0.64834 3.47359,-1.21215 5.73335,-1.67732 z"
         style="font-size:medium;font-style:normal;font-variant:normal;font-weight:normal;font-stretch:normal;text-indent:0;text-align:start;text-decoration:none;line-height:normal;letter-spacing:normal;word-spacing:normal;text-transform:none;direction:ltr;block-progression:tb;writing-mode:lr-tb;text-anchor:start;baseline-shift:baseline;color:#000000;fill:none;stroke:#000000;stroke-width:1;stroke-opacity:1;marker:none;visibility:visible;display:inline;overflow:visible;enable-background:accumulate;font-family:Sans;-inkscape-font-specification:Sans"
         inkscape:connector-curvature="0" />
      <path
         sodipodi:nodetypes="cccccccccccc"
         inkscape:connector-curvature="0"
         id="path4945"
         d="m 248.22953,525.76933 c 1.27908,4.64053 13.9049,7.14784 18.29861,10.50585 7.15085,4.85961 16.1406,5.38683 24.14714,8.1518 11.3074,3.51688 20.24126,12.53088 24.84882,23.29448 4.36632,9.39039 6.02394,19.68132 8.05495,29.74432 0.87126,4.84615 4.95889,7.88787 8.26809,11.10178 -1.32841,2.72393 0.71744,7.56012 -1.10979,9.902 -2.80899,-5.94519 -5.84615,-11.82776 -8.51333,-17.81187 -0.65527,-8.14824 -1.10565,-16.50102 -4.57596,-24.05134 -7.19493,-17.05949 -23.22668,-29.0364 -40.55879,-34.49019 -5.69086,-2.15062 -12.74278,-4.47754 -14.84254,-10.8293 -0.7336,-2.90531 -14.77665,-2.63389 -14.0172,-5.51753 z"
         style="font-size:medium;font-style:normal;font-variant:normal;font-weight:normal;font-stretch:normal;text-indent:0;text-align:start;text-decoration:none;line-height:normal;letter-spacing:normal;word-spacing:normal;text-transform:none;direction:ltr;block-progression:tb;writing-mode:lr-tb;text-anchor:start;baseline-shift:baseline;color:#000000;fill:none;stroke:#000000;stroke-width:1;stroke-opacity:1;marker:none;visibility:visible;display:inline;overflow:visible;enable-background:accumulate;font-family:Sans;-inkscape-font-specification:Sans" />
      <path
         id="path4931"
         d="m 318.55115,527.0441 c 1.40679,1.42251 2.6711,4.53115 3.60643,9.83568 0.72885,4.13347 1.09959,6.29364 2.26891,8.00894 1.1645,1.71614 3.03822,2.81464 6.59228,4.99361 3.91415,2.39956 9.47584,6.10474 12.32501,8.17143 13.4256,9.73886 17.27457,25.22713 10.82471,43.75379 -0.66171,1.90064 -1.57021,3.93061 -2.52605,5.64946 -0.95595,1.71888 -1.96256,3.14119 -2.66709,3.77042 l -0.33133,0.28055 0.49613,-0.78559 c 3.18983,-5.15603 5.36842,-14.78411 5.61709,-24.47218 0.18538,-7.22573 -1.42393,-13.37234 -5.24894,-18.97049 -3.82512,-5.59813 -9.85859,-10.6642 -18.4644,-15.81521 l -8.86584,-5.29084 -1.47955,-9.29047 c -0.41173,-2.62872 -0.8997,-5.20032 -1.40375,-7.24125 -0.25203,-1.02047 -0.51031,-1.89784 -0.74361,-2.59785 z"
         style="font-size:medium;font-style:normal;font-variant:normal;font-weight:normal;font-stretch:normal;text-indent:0;text-align:start;text-decoration:none;line-height:normal;letter-spacing:normal;word-spacing:normal;text-transform:none;direction:ltr;block-progression:tb;writing-mode:lr-tb;text-anchor:start;baseline-shift:baseline;color:#000000;fill:none;stroke:#000000;stroke-width:1;stroke-opacity:1;marker:none;visibility:visible;display:inline;overflow:visible;enable-background:accumulate;font-family:Sans;-inkscape-font-specification:Sans"
         inkscape:connector-curvature="0" />
      <path
         style="font-size:medium;font-style:normal;font-variant:normal;font-weight:normal;font-stretch:normal;text-indent:0;text-align:start;text-decoration:none;line-height:normal;letter-spacing:normal;word-spacing:normal;text-transform:none;direction:ltr;block-progression:tb;writing-mode:lr-tb;text-anchor:start;baseline-shift:baseline;color:#000000;fill:#ffff00;fill-opacity:1;stroke:none;stroke-width:1;stroke-opacity:1;marker:none;visibility:visible;display:inline;overflow:visible;enable-background:accumulate;font-family:Sans;-inkscape-font-specification:Sans"
         d="m 200.56863,554.76315 c -1.01195,19.33324 -1.8175,39.8904 7.63808,57.50557 5.56488,11.38285 10.10035,24.02123 19.77616,32.66954 14.1476,7.97376 14.18783,10.42851 42.3118,22.46759 -2.91137,6.35863 -22.99078,-0.19389 -33.84448,-2.93695 -10.61274,-3.61636 -21.70859,-10.29017 -32.45796,-13.43713 -10.51193,-5.77179 -19.81023,-14.05709 -26.71901,-23.86149 -7.48581,-13.46296 -10.16158,-29.28168 -9.49605,-44.54035 1.53336,-16.4604 8.08141,-32.41308 17.92525,-45.6344 10.02598,-12.69536 23.89826,-21.52513 37.71978,-29.55301 -3.3916,3.00089 -7.56593,9.45418 -10.59825,14.2139 -6.10011,10.081 -11.42026,21.18377 -12.25532,33.10677 z"
         id="path4915-2"
         inkscape:connector-curvature="0"
         sodipodi:nodetypes="ccccccccccccc" />
    </g>
  </g>
</svg>
