<?xml version="1.0" encoding="UTF-8" standalone="no"?>
<!-- Created with Inkscape (http://www.inkscape.org/) -->

<svg
   xmlns:dc="http://purl.org/dc/elements/1.1/"
   xmlns:cc="http://creativecommons.org/ns#"
   xmlns:rdf="http://www.w3.org/1999/02/22-rdf-syntax-ns#"
   xmlns:svg="http://www.w3.org/2000/svg"
   xmlns="http://www.w3.org/2000/svg"
   xmlns:sodipodi="http://sodipodi.sourceforge.net/DTD/sodipodi-0.dtd"
   xmlns:inkscape="http://www.inkscape.org/namespaces/inkscape"
   width="379.71899"
   height="268.28757"
   id="svg3288"
   version="1.1"
   inkscape:version="0.48.4 r9939"
   sodipodi:docname="TGSaxBasal-modTV.svg">
  <defs
     id="defs3290" />
  <sodipodi:namedview
     id="base"
     pagecolor="#ffffff"
     bordercolor="#666666"
     borderopacity="1.0"
     inkscape:pageopacity="0.0"
     inkscape:pageshadow="2"
     inkscape:zoom="2.26"
     inkscape:cx="190.68088"
     inkscape:cy="130.05617"
     inkscape:document-units="px"
     inkscape:current-layer="layer1"
     showgrid="true"
     inkscape:snap-bbox="true"
     inkscape:bbox-nodes="true"
     inkscape:bbox-paths="true"
     inkscape:snap-bbox-edge-midpoints="true"
     inkscape:snap-bbox-midpoints="true"
     fit-margin-top="0"
     fit-margin-left="0"
     fit-margin-right="0"
     fit-margin-bottom="0"
     inkscape:window-width="1231"
     inkscape:window-height="776"
     inkscape:window-x="49"
     inkscape:window-y="24"
     inkscape:window-maximized="1"
     inkscape:snap-global="false">
    <inkscape:grid
       type="xygrid"
       id="grid3345"
       empspacing="5"
       visible="true"
       enabled="true"
       snapvisiblegridlinesonly="true"
       originx="-110.14051px"
       originy="-351.71243px" />
  </sodipodi:namedview>
  <metadata
     id="metadata3293">
    <rdf:RDF>
      <cc:Work
         rdf:about="">
        <dc:format>image/svg+xml</dc:format>
        <dc:type
           rdf:resource="http://purl.org/dc/dcmitype/StillImage" />
        <dc:title></dc:title>
      </cc:Work>
    </rdf:RDF>
  </metadata>
  <g
     inkscape:label="Layer 1"
     inkscape:groupmode="layer"
     id="layer1"
     transform="translate(-110.14051,-432.36218)">
    <g
       id="g19117">
      <path
         style="font-size:medium;font-style:normal;font-variant:normal;font-weight:normal;font-stretch:normal;text-indent:0;text-align:start;text-decoration:none;line-height:normal;letter-spacing:normal;word-spacing:normal;text-transform:none;direction:ltr;block-progression:tb;writing-mode:lr-tb;text-anchor:start;baseline-shift:baseline;color:#000000;fill:#ffffff;stroke:#7d7d7d;stroke-width:3;stroke-miterlimit:4;stroke-opacity:1;stroke-dasharray:none;marker:none;visibility:visible;display:inline;overflow:visible;enable-background:accumulate;font-family:Sans;-inkscape-font-specification:Sans;fill-opacity:1"
         d="M 297.01432,433.86218 C 235.619,496.55597 173.52825,558.56294 111.64051,620.76942 c 44.32058,40.99242 101.04303,70.07915 161.3149,77.22676 32.10326,2.45195 64.90219,1.61881 95.7038,-8.68638 44.24627,-13.30943 85.1922,-37.13909 119.70028,-67.57463 C 465.46028,597.81876 440.75915,575.30031 417.36364,551.7269 377.19203,512.49726 337.61712,472.64715 297.01432,433.86218 z"
         id="path5037-7"
         inkscape:connector-curvature="0" />
      <path
         sodipodi:nodetypes="ccccccccccccccsc"
         inkscape:connector-curvature="0"
         id="path4979"
         d="m 324.73426,460.61218 c -13.62483,2.38643 -24.51338,5.09983 -41.90625,13.59375 -24.08067,12.27598 -85.03045,43.502 -90.7651,96.96141 7.79663,64.88673 43.79493,87.83585 119.54635,91.56984 23.83565,1.71033 41.06269,-4.94718 61.6875,-12.0625 16.16541,-4.33085 30.99747,-16.2674 43.5625,-27.25 4.17242,-7.43562 11.18735,-10.42462 15.375,-18.96875 4.66607,-9.21504 7.62892,-19.09601 9.09375,-29.21875 -8.05003,-7.78717 -16.09599,-15.56738 -23.96875,-23.5 -30.98317,-30.25665 -61.60638,-60.90351 -92.625,-91.125 z m -62.40625,37.28125 c -37.64323,33.38019 -24.0064,79.79234 -9.65625,108.8125 4.16975,10.33507 6.32007,14.53095 15.125,21 10.7955,10.59745 -15.39298,7.32876 -25,-5.3125 -14.99037,-2.32435 -22.10097,-16.0879 -25.8125,-35.59375 -3.71155,-19.50584 6.24655,-63.48496 45.34375,-88.90625 z"
         style="font-size:medium;font-style:normal;font-variant:normal;font-weight:normal;font-stretch:normal;text-indent:0;text-align:start;text-decoration:none;line-height:normal;letter-spacing:normal;word-spacing:normal;text-transform:none;direction:ltr;block-progression:tb;writing-mode:lr-tb;text-anchor:start;baseline-shift:baseline;color:#000000;fill:#ff0000;fill-opacity:1;stroke:none;stroke-width:1;marker:none;visibility:visible;display:inline;overflow:visible;enable-background:accumulate;font-family:Sans;-inkscape-font-specification:Sans" />
      <path
         id="path4973"
         d="m 336.76551,476.58093 c -16.35644,0.17282 -29.72282,5.66718 -37,16.4375 -11.21587,22.09264 -6.59596,48.07179 -1.375,71.3125 5.22096,23.2407 32.28555,37.88091 40.0625,44.6875 7.77694,6.80658 31.34308,16.88016 52.59375,10.90625 21.25067,-5.97391 27.35107,-20.91486 30.53125,-60.25 0.0368,-1.2431 -0.006,-2.50776 -0.0312,-3.75 -1.39817,-1.39325 -2.79789,-2.78732 -4.1875,-4.1875 -25.51261,-24.91433 -50.77143,-50.07943 -76.2188,-75.0625 -1.48304,-0.0678 -2.93673,-0.10895 -4.375,-0.0937 z"
         style="font-size:medium;font-style:normal;font-variant:normal;font-weight:normal;font-stretch:normal;text-indent:0;text-align:start;text-decoration:none;line-height:normal;letter-spacing:normal;word-spacing:normal;text-transform:none;direction:ltr;block-progression:tb;writing-mode:lr-tb;text-anchor:start;baseline-shift:baseline;color:#000000;fill:#ffff00;fill-opacity:1;stroke:none;stroke-width:1;marker:none;visibility:visible;display:inline;overflow:visible;enable-background:accumulate;font-family:Sans;-inkscape-font-specification:Sans"
         inkscape:connector-curvature="0" />
      <path
         sodipodi:nodetypes="scscccsccs"
         id="path4955"
         d="m 323.96288,496.82782 c 2.25966,-0.46515 4.78542,-0.84583 7.33176,-1.07066 5.09262,-0.44887 6.46634,8.38627 9.79338,9.13428 2.69485,0.60587 8.51138,-7.43565 10.73362,-5.94998 1.09049,0.72917 12.9422,9.39888 7.14464,7.52108 -0.8673,-0.28986 -6.5106,7.52203 -8.71898,3.93994 -6.52024,2.47181 5.47974,-28.41843 -18.7873,-8.94914 -3.659,2.93559 -12.32277,-2.8255 -13.72646,-2.70208 0.21805,-0.1 0.24001,-0.13381 0.49599,-0.24612 1.47747,-0.64834 3.47359,-1.21215 5.73335,-1.67732 z"
         style="font-size:medium;font-style:normal;font-variant:normal;font-weight:normal;font-stretch:normal;text-indent:0;text-align:start;text-decoration:none;line-height:normal;letter-spacing:normal;word-spacing:normal;text-transform:none;direction:ltr;block-progression:tb;writing-mode:lr-tb;text-anchor:start;baseline-shift:baseline;color:#000000;fill:none;stroke:#7d7d7d;stroke-width:2;stroke-miterlimit:4;stroke-opacity:1;stroke-dasharray:2, 6;stroke-dashoffset:0;marker:none;visibility:visible;display:inline;overflow:visible;enable-background:accumulate;font-family:Sans;-inkscape-font-specification:Sans"
         inkscape:connector-curvature="0" />
      <path
         sodipodi:nodetypes="cccccccccccc"
         inkscape:connector-curvature="0"
         id="path4945"
         d="m 306.88346,508.95057 c 1.08059,4.64456 13.65966,-0.22301 17.37153,3.13792 6.04116,4.86383 2.16043,20.69205 19.30699,10.61789 9.55268,3.51994 9.44987,17.73301 13.34242,28.50595 3.68873,9.39854 12.46617,15.60005 14.182,25.67178 5.65408,6.21648 -2.0948,8.16795 0.70086,11.38465 -6.85997,9.28366 6.34381,11.11859 4.80013,13.4625 -9.20368,-0.48587 -19.41979,-11.29158 -14.29602,-17.28088 9.28248,-13.89302 -8.0379,-3.67381 8.42924,-24.07222 0.47898,-17.07429 -24.54031,-26.32936 -39.18276,-31.78788 -4.80773,-2.15249 -11.03852,-7.76012 -12.81243,-14.11739 -0.61976,-2.90783 -12.48355,-2.63618 -11.84196,-5.52232 z"
         style="font-size:medium;font-style:normal;font-variant:normal;font-weight:normal;font-stretch:normal;text-indent:0;text-align:start;text-decoration:none;line-height:normal;letter-spacing:normal;word-spacing:normal;text-transform:none;direction:ltr;block-progression:tb;writing-mode:lr-tb;text-anchor:start;baseline-shift:baseline;color:#000000;fill:none;stroke:#7d7d7d;stroke-width:2;stroke-miterlimit:4;stroke-opacity:1;stroke-dasharray:2, 6;stroke-dashoffset:6.80000025;marker:none;visibility:visible;display:inline;overflow:visible;enable-background:accumulate;font-family:Sans;-inkscape-font-specification:Sans" />
      <path
         sodipodi:nodetypes="cscccscccccccccsc"
         id="path4931"
         d="m 364.18874,510.26557 c 1.40679,1.42251 5.94979,3.16503 6.88512,8.46956 0.72885,4.13347 3.5586,4.38107 4.72792,6.09637 1.1645,1.71614 3.03822,2.26819 6.59228,4.44716 3.91415,2.39956 6.19716,6.65119 9.04633,8.71788 13.4256,9.73886 -15.01899,51.54193 4.54055,50.03794 7.26179,-0.55837 3.0746,4.47706 2.11876,6.19591 -0.95595,1.71888 -0.32321,8.60567 -3.21354,3.4972 l -5.24936,0.827 1.04258,-8.70909 c 3.18983,-5.15603 6.18809,-11.2322 6.43676,-20.92027 0.18538,-7.22573 1.85476,-12.82589 -1.97025,-18.42404 -3.82512,-5.59813 -9.85859,-10.6642 -18.4644,-15.81521 l -8.86584,-5.29084 -1.47955,-9.29047 c -0.41173,-2.62872 -0.8997,-5.20032 -1.40375,-7.24125 -0.25203,-1.02047 -0.51031,-1.89784 -0.74361,-2.59785 z"
         style="font-size:medium;font-style:normal;font-variant:normal;font-weight:normal;font-stretch:normal;text-indent:0;text-align:start;text-decoration:none;line-height:normal;letter-spacing:normal;word-spacing:normal;text-transform:none;direction:ltr;block-progression:tb;writing-mode:lr-tb;text-anchor:start;baseline-shift:baseline;color:#000000;fill:none;stroke:#7d7d7d;stroke-width:2;stroke-miterlimit:4;stroke-opacity:1;stroke-dasharray:2, 6;stroke-dashoffset:0;marker:none;visibility:visible;display:inline;overflow:visible;enable-background:accumulate;font-family:Sans;-inkscape-font-specification:Sans"
         inkscape:connector-curvature="0" />
      <path
         sodipodi:nodetypes="zccccczz"
         inkscape:connector-curvature="0"
         id="path4915-2"
         d="m 279.84991,588.30177 c 11.96724,26.91921 23.35672,44.84243 53.07653,62.74878 -22.16039,2.61123 -87.38564,-9.3036 -103.65525,-22.86466 -11.26269,-8.36097 -22.85174,-29.01411 -25.8695,-42.87323 -9.03348,-31.91138 16.77624,-59.99659 42.99416,-79.94616 6.62477,-4.76038 21.48223,-15.13432 28.82609,-18.70062 -0.93716,2.97648 -2.77871,12.56679 -5.35794,35.02484 -2.57923,22.45805 -1.98134,39.69183 9.98591,66.61105 z"
         style="font-size:medium;font-style:normal;font-variant:normal;font-weight:normal;font-stretch:normal;text-indent:0;text-align:start;text-decoration:none;line-height:normal;letter-spacing:normal;word-spacing:normal;text-transform:none;direction:ltr;block-progression:tb;writing-mode:lr-tb;text-anchor:start;baseline-shift:baseline;color:#000000;fill:#ffff00;fill-opacity:1;stroke:none;stroke-width:1;marker:none;visibility:visible;display:inline;overflow:visible;enable-background:accumulate;font-family:Sans;-inkscape-font-specification:Sans" />
      <path
         sodipodi:nodetypes="czcccccccc"
         inkscape:connector-curvature="0"
         id="path18973"
         d="m 272.97237,489.14532 c -7.66962,10.61947 -14.03906,10.86412 -25.22124,30.97345 -11.18218,20.10933 -6.34161,21.02783 -7.9646,29.20354 -8.73825,-10.26391 -18.17723,-14.59009 -28.76106,-8.40708 7.54847,-1.93175 16.99001,-2.91738 28.76106,10.61947 4.57493,17.10915 4.92358,34.21829 18.14159,51.32744 24.63127,31.55506 49.26254,32.16184 73.89381,48.23009 -23.67691,-15.98122 -49.22411,-22.611 -70.79646,-49.11505 -11.97898,-17.10914 -16.00596,-34.21829 -19.91151,-51.32743 -0.54434,-26.24751 18.02796,-41.54789 31.85841,-61.50443 z"
         style="fill:#7d7d7d;fill-opacity:1;stroke:none" />
      <path
         style="font-size:medium;font-style:normal;font-variant:normal;font-weight:normal;font-stretch:normal;text-indent:0;text-align:start;text-decoration:none;line-height:normal;letter-spacing:normal;word-spacing:normal;text-transform:none;direction:ltr;block-progression:tb;writing-mode:lr-tb;text-anchor:start;baseline-shift:baseline;color:#000000;fill:none;fill-opacity:1;stroke:#7d7d7d;stroke-width:3;stroke-miterlimit:4;stroke-opacity:1;stroke-dasharray:none;marker:none;visibility:visible;display:inline;overflow:visible;enable-background:accumulate;font-family:Sans;-inkscape-font-specification:Sans"
         d="M 297.01432,433.86218 C 235.619,496.55597 173.52825,558.56294 111.64051,620.76942 c 44.32058,40.99242 101.04303,70.07915 161.3149,77.22676 32.10326,2.45195 64.90219,1.61881 95.7038,-8.68638 44.24627,-13.30943 85.1922,-37.13909 119.70028,-67.57463 C 465.46028,597.81876 440.75915,575.30031 417.36364,551.7269 377.19203,512.49726 337.61712,472.64715 297.01432,433.86218 z"
         id="path5037-7-2"
         inkscape:connector-curvature="0" />
    </g>
  </g>
</svg>
